<mxfile modified="2024-06-15T12:22:33.628Z" host="app.diagrams.net" agent="Mozilla/5.0 (Macintosh; Intel Mac OS X 10_15_7) AppleWebKit/605.1.15 (KHTML, like Gecko) Version/17.3.1 Safari/605.1.15" etag="sFBbe9fmXIYikzzCN-6f" version="24.5.4" type="github">
  <diagram id="7gcUSTIZ7YSJ5vT40chW" name="Page-1">
    <mxGraphModel dx="1290" dy="964" grid="1" gridSize="10" guides="1" tooltips="1" connect="1" arrows="1" fold="1" page="1" pageScale="1" pageWidth="1169" pageHeight="827" math="0" shadow="0">
      <root>
        <mxCell id="0" />
        <mxCell id="1" parent="0" />
        <mxCell id="5GPRaHHNxdMrhig5xY4P-12" value="" style="shape=image;verticalLabelPosition=bottom;verticalAlign=top;imageAspect=0;aspect=fixed;image=data:image/png,iVBORw0KGgoAAAANSUhEUgAAAgAAAAIACAYAAAD0eNT6AAAABHNCSVQICAgIfAhkiAAAAAlwSFlzAAAOxAAADsQBlSsOGwAAABl0RVh0U29mdHdhcmUAd3d3Lmlua3NjYXBlLm9yZ5vuPBoAACAASURBVHic7N13vB9Fvf/x18lJII0khBZ66B2kCQhIr4IFuQiItCs27KJevagoomLjgihiRdCf1y4gUhRFuvTeCQkBEnpIAVLP74/POTeHwynf73xmZ7a8n4/HPLhw3d3P7tndme/szGc6EBFJZyVgErAGsAqwMjAeGNf9z95lXPc2o4CRvfYxHhjWxjGXAC/1+vfFwGxgETAHmAXM7f6/53b/+zPAs8DM7vJsd1nSxnFFSq0jdwAiUisrABsAG3aXDbDKfg2s4l8mX2hui4EZwBTgse5/9vzfD2ONBpHKUANAREKMBrYCtgG2BjbDKvsVcgaV2XPA3cA93eVu4F6st0GkdNQAEJGhdGKV/M7Atlilv3H3f5fBLQHuB24Eru/+5wPoU4KUgBoAItJXT4W/G7A7sCv23V3ieAlrDPwduALrLRBJTg0AEQFYETgIeCuwJ6rwU5oB/K27XIZ9ShApnBoAIs21DlbhH4T92h+RNxzBBhreCPwO+D3wZN5wRESkLiYBnwLuArpUSl0WA9cCH8OmT4qIiLRlWeBg4LfAAvJXbCrtl0XYJ4L/QD01IiIyhE2B7wEvkr8CU4lXngJOB9ZGRESkWwdwIPBP8ldUKsWWhcBvgB0QEZHG6gQOB+4gf8Wkkr5cCxxCeymSRUSkwjqw7/t3kr8SUslf7sHGCWiGl4hIje0N3Er+SkelfOUurCEgIiI1sjdwM/krGZXyl2uw1M0ir6NuIpHqWA34LvCu3IE4LAGeBp7ARrM/gS2/OwtLkTsLm7XQ8++LscFuc3vtY3b3f2/H8n3+fTwwFhgDLAdM6P73CdgSxZOwufcrAqti176q0++WAD8G/ht4PnMsUiJqAIiUXydwInAqMC5zLK14GXiwu9yPLX7zBPA4MBOb0141nVgjYDKWQXEdYF1squUmWEOi7F4AvgCcS/sNKKkhNQBEyu2NwDmUtxv3CexzxM3AbVilPw3rfm6KDqxhsFl32Q77u62VMabB3AgchzXMRESkZMYAZ2O/1HJ/R+4p84GrgK8Cb8O6xmVgk7C1Fr6KfYsvUxbGV7CU0FrSWUSkRLbHfknnriS6gLuBM7DkQlXo5i6zscABwLeB27Fv87n/vtcBGxR50iIiMrRh2ECtnL8UF2Jr1L8P/cIv2prAh4G/Y9c91998NpZESkREMlgB+Cv5Kv3LgROwUe+S3kTgGGzBn1yffc7GFo4SEZFEtgOmkv6F/yBwEqr0y2YN4L+A+0h/T9yEFhkSEUniXdi0uVQv+PnYAjJ7ollAVbALtoxzyk8EzwI7pzg5EZEm6gBOIe1AsKnAKsWfmhRgLeAbWCKfFPfKK1Q74ZSISCkNB35Buoq/p7w3xclJocZinweepfj7ZUn3sUREJIJRwMWkr/wfobqpbOX1UjYEfoiWGRYRcRmHJYRJXfl3AUcnOD9JbxxwOvAqxd4/P0dJg0REgowDridP5T8Fvbzrbn3gQoq9jy5A95GISFvGAzeQp/LvAk4u/hSlJPbFGnxF3Uu/xsawiIjIEEaRr9u/C1t5b43Cz1LKZCzwPYpLKPSDdKciIlJNw8kz4K93uaTws5SyejM2+LOI++otCc9DRKRSOsgz1a9veWfRJyqlNg5L/BT7vroh5UmIiFTJyeSv/F8BRhd9olIJJxJ3psASbLljERHp5Z2UY6nXy4o+UamUbYHHiXd/7Zk2fBGRctsGmEf+yr8L+GjB5yrVsxpwC3Hur4MTxy4iUlorA9PJX/H3lPWLPV2pqDHAn/HfX9ukDlxEpIyGYV3uMSvwpx3bTin2dKXiOrHpfKH31/MotbSICACfIV7FvwQ4Cd8Uwt8We7pSAx3AGYTdX9/NEK+ISOnsCCwgTuW/GPhg934fcOxHq7hJq75Je/fWk8DELJGKiJTIOOAx4v36/1D3fofja1TsW9gZSx2dQmszV17AZhOIiDTeOcSr/D/fa7/rO/e1YjGnKzX2LuzX/UD31FXAurmCExEpk92JN9//2332fYBjX0/FP1VpiNFYQ+BHwF+BPwFfB96UMygRkTIZDTxMnMr/r7x+mdWPO/Z3ffzTFZG6GZY7AJGK+gpx5tnfBRyGDf7rbU3HPqc7thWRhlADQKR9mwIfi7CfZ4C3AnP7+f+Nd+x3mmNbEWkINQBE2vcdbJS+xxLgPQxcWS/v2Ld6AERkSGoAiLTnIGD/CPv5NnDFIP//cY59z3BsKyIiIn0sAzyIf9DfTd37GszNjv3HaKCISM2pB0Ckde8HNnTuYx5wOJbkZzCeHoCXHduKiIhILyOBJ/D/+m918OAzjmMoU5uIiEgkn8Rf+f+b18/3H8gLjuNs4jlRERERMWOAmfgq//nA5m0cc4bjWErXKiJD0hgAkaGdCKzi3MeZwD1t/O+HGiMwmGUd24qIiAg2Wv8pfL/+n6H9xD6POI63dciJikizqAdAZHBHAqs69/EF4KU2t/H0AIxybCsiDeHNZiZSd96Uv/cAPw3YTg0AqbLVsemuu2JLU88C7gR+2/1PEZFS2xP/yP93BB77JscxDw48pojXcOAbwCv0f28uwRoBK+QKUESkFRfhq/zvADoCj32Z47gnBB5TxGMZ4HJau0cfwv9pTUSkEGsAi/A1AA5xHP+njuN+2XFckVBn0d59ei0ahyYiJXQy+X79A3zFceyQMQciHpsQ1mA+PEewYtT6Enm9DuBY5z6+ib3gQj3p2HYNx7YiIY6l9SyXvX00chwiIi7ewX9PMfRqf0M5yHH8e53HFmnXdYTdq0uA9TLEK6gHQKQ/xzu3PwffND7w9QCsB4xwHl+kHasFbteB5doQEcluFDCH8F/fr+JPGwywsiOGLmCLCDGItOpuwu/V+zPEK6gHQKSv/YGxju1/BzwdIY5naT97YG9viBCDSKs8yX02RktYZ6EGgMhr/Ydz+/NiBIH9Mmpn8aC+tooUh0grLnFu/+4oUYiIBBoJzCa8K3MqcRvVP3TE8reIcYgMZSwwl/D79XF802YlgHoARJbaD1jOsf352KjmWDw9ANujtT4knbnAhY7t1wS2jBSLtEgNAJGl3ubYtgtrAMTk+a46HnhjrEBEWvAr5/ZviRKFiEibOrCpd6FdmLcUENMoYL4jpi8WEJPIQIZjA2BD79fr0ofcbOoBEDFbET6XGeBPsQLp5RXgNsf2e8cKRKQFi7BZMKF2wJYOlkTUABAxBzi3/0OUKF7P86toJ2BcrEBEWuBpCHfifw5FRNr2L8K7Lu8rMK63O+Lqwj+tUaQdy2D5K0Lv11+nD1lEmmwclro39KX19QJjWx5Y6IjtzwXGJtKf3xN+vz6VIV4RabD98P3K3r3g+Dy9E/OBFQqOT6S34/E9T1ocKBGNARCBXRzbzgNuiBXIADxZ1pYBDo0ViEgL/opV5KF2jRWIDE4NABFfA+Cf2K/sIv3Fuf1RUaIQac1M4HbH9moAiEgSy2C/4kO7Kz+SKM6HHTEuATZPFKcIwLcJv18fyhBvI6kHQJpuG2C0Y/srYwUyBE+WtQ7gpFiBiLTAM311A2BSrEBERAbyCcJ/qbxAugVMNsB+yYfGugBYI1GsIivju18PSR9y86gHQJpuG8e21+Mb7NSOh4F/O7YfAXw8UiwiQ3kGX1f+G2IFIgNTA0CabmvHtkWP/u/rAuf278PyCoikcK1jWzUARKRQo7H85aHdlHskjnccMNsRbxdwRuKYpbmOI/w+fTxDvCLSIDsS/oJaDIxNHzJnBcbbeyzAxsmjlibaAt+9qgRWIlKYEwl/OT2QIV6wwYCLW4xxoPK35FFLEw3HVrQMvU/3Sh9ys2gMgDSZZ278ndGiaM/DwBXOfewNvCVCLCKDWQTc79h+q1iBSP/UAJAm29Cxba4GAMBpEfZxFloqWIp3h2PbLaNFIf1SA0CazPMt3JPq1Ota4O/OfawL/DhCLCKD8TSU148WhYhIL8vhS1SSO6nOzoTH3rtonQAp0u6E35sz04crIk2wLeEvpjmkywA4mMvwNwBmo+VXpTgr4bs/l0sfsojU3RGEv5Rydv/3tjmwEH8j4BbyTGmUZniJ8HtTCYEKpDEA0lSe74sPR4vC5x7ghxH2sy3weyxdsEhsjzq21TiAAqkBIE21tmPbMi1X+kXguQj72Q/4BXonSHyeBoA+TxVID7s0lWcQX1l6AABeBD4faV9HAN+ItC+RHuoBEJFSuY/w75K7ZYh3MB1YciDvWICecmra8KXmTiD8Xrw0Q7wiUnNzCH8prZsh3qGshW+wVd9yNuohlDj2pPoDbkWkJiYS/kJaAiybPuSWvJ94DYAu4GKULVD8NiT8HlQuABGJakvCX0hPZ4i3Px3YamsfAM4Fbsa38MpA5d7uY2yGegQkzDjC77/F2KJCIiJR7EX4C+mWDPH2mAgcC/wK+2UUu7IfqjyP9Qp8Bt9CStI88wi/71bPEK+I1NThhL+MLkwc63jgeGww1AJH3EWUR4DvAG8GOou6AFILjxB+n22bId5GUNeKNNGKjm2fjRbF4LbFut6PAMYkOma71gM+2V2ew3oH/gz8DfscUWVjsfNbDxv0uQaW1nZVYGVgVHcZ2WubLmBW9//9HPAMdr/MxD4dPQZM6S4vF34G5TKT8Dn9q8YMRJZSA0CayNMAeD5aFK/XARwM/BewU4HHKcKKwHHd5WVsnYI/A5cAL2SMqxWrADsA22PjKrYEJhO23sPE7n8ONVNkJtYQeBC4H8vqeD8wDWtI1I1nMN8q0aKQ11ADQJpoJce2MbLu9dUBHAacTD2+rY8GDukui4B/YZ8wrgFu6/5vuSwLbINV+DsAO2KVfWqTusub+vz3ucDd2HW6DbgVy1mxMGl08XkaAOOjRSGvoQaANFGZegD2BE4Htou837IYjg263Kv73+cCN2KNgWuAf1Ncd3gH1u28PUsr+62BZQo6Xgxjsd6f3j1Ar2Lz4a/tLtdRbE9UEV50bKupqAVRA0CaaIJj21g9AGsDZwJvi7S/qhgL7N1dwH7ZPoJ1hT+IrbPwYPd/exbLuzCUcVgipMnYdd0UW0VuC+qxnOxIljYKPo19Irgf+Cc23uKf2LLOZeaJTw2AgqgBIE3kWfrW80sG7Jk7CfgC1lXedCOATbpLf+ZgGQ57yrJYPoLx3dtOoB6VfDs6sEbOpsCJ2CeVG7F00BcDd+QLbUCeBoA+AYhINHcSPiXJsz75JsBNjmOrqLRSpmK9S3tTniWejyT8fH6bId5GUGYvaSLPtLp5gdt9CBvQtb3j2CKtWBv4KPZ5YBrwXfLPpX/Jsa16AEQkGk8WvdXaPNYY4JeO46moxCr3YUtH55hXv2tAvD3lhgzxikhNzSX8ZdTOr5GNsClduV/8Kiq9ywLg99gngpBcByG2csR7T6IYG0efAKRphuEbfNfqJ4C3Yt/76zCvX+plBPBO7BPBg8AHsayGRfJkhizLOIbaSdX6EymLZYD5gdsuoLWlgE8AziFffvy52DSxB7HPHU9iKWrnYSPGl2DXYTw2I2INrFt4Mjay3DNNUqrpWeBs4AcUk+xqHSzzYYgphKcRFhH5P6MJ74ps5df/Fxz7Dy0PAt8HjsJelN6G/ZrAgcCpwNUUs8ywSjnLXODrLE1pHMsajpgejxyLiDTUcoS/iAYbyTwM+wWV6kV9H5YUZgPPxWjRSOx78dnA9ETnp5K3vAR8iXhJeCY5YpkRKQYRabjlCX8RDbSoTQfwU8d+Wy3zgPOAnd1XIVwHNpXxG/iWeFWpRnkGeB/+z1krOGIo4pOEoDEA0jwrYS+1EM9iS8H2dRbwkeCIhvYi8C3s+6xnPnURtsYGlB3CwNn8qqoL637uWbHvIWw8xbPYPTQPy9O/hKUDqsdhUz9XwqaMrozNy+9ZVnhdqpkB8g7g49jCTiHGEX7vvoTGpYhIBLG7Ir/m2N9QZQ7wVarz8lsX+DC2FHDVxg0swjJEnostabwtvpTRg5kE7IaNvv8BcBX2Kzf3NWilnEfY+ICix96IiAxpdcJfRE/02dfnHPsarCwBfk7/vQ1VMRrYBzgNW71uIfkrr95lJnAh9jfcg+Iq+3asChwMfAVbPvl58l+nga7doW2e2zKO44XO2hEReQ3PaOTpvfZzGFZRx365PgbsW8B55zYW2B0buPg7LF99qgrrBeAfwBlYTvp1Cj3TuNYHjsZ+eU8jf+Xfu/yW1nunRjiOs6DFY0ibNAZAmmYNXluRt+MJbIrcNtha9rG/5f4A+Cw2FasJxmPjBjbDsiZOxpb1XQtYhfYSlc3Bvtc/1v3PacADWLf+tGgR57c+1mOxF7Af+T8PTQPejfXyDGYE4RX5QqwHQSJTA0CaxtsA2A64GWsIxDIb+E8sPassNREbPT4OG4U+DvtFOAurTOZhjaVX8S03W1UjsF6Vt2GZJ2Pek+1YBJzC0vEw/VEDQESy83wCmIn90onZjXoP9qtOxKMDG7h4OjZTIccngd8z8FgKfQIQkew8DYDY5Uryd+FK/QzDEjedj2/hq5ByF/2PsVADQESyK0sD4HzUrSnFm4BNzXyYdPf2TCw/RG9qAIhIdmVoAPwYrcQpaQ3Dphj+jTT3+BxsGmgPNQBEJLvcDYCz0eBbyeuNwB8oZhpr7/IK1ugANQBEpARyNgAuQJW/lMf22DiUIu/5+cBBqAEgIiWQqwHwF2B4gvMTadfewO0Ud++/ik1TVANARLLK0QC4iWouACPNMQxb9W8WxTwDLzu2VQNARKJI3QCY0X1MkSpYFfgj6RvJagCISOFSNgBeBXZKc1oiUR2JLXucu/JXA0BEoknZAPh4onMSKcLKFD9IUA0AEUkmVQPgUjTiX6qvE/gGxU8ZVANARAqXogEwE/v1JFIXR2CLL6kBICKVlaIBcFiysxFJZytsJU01AESkkopuAFyc7lREklsbmIIaACJSQUU2AOYAq6c7FZEs1gGmogaAiFRMkQ2A/054HiI5rQU8ghoAIlIhRTUApgKj0p2GSHZrAU+iBoCIVERRDYCjUp6ESElsA8xFDQARqYAiGgD3Y/OlRZronRSbJ0ANABGJoogGwBFJz0CkfM5ADQARKbnYDYCHsZXURJpsBLbqpRoAFaIXl4jPWVj3p0iTLQSOxhbAEhEppZg9ALOA5dKGL1JqJ6MegMoYnjsAkQr7JZb8p2wmAhsCKwCjM8eyAGsoTcHSyFZZJzAZy4Y3gfwDP+dgS/Y+iI3EL4NvAccC62WOQ0TkdWL2AGyXOPbB7AicDTxEcYOxvOVp4H+Bt2PfjKtgOeA44BJgNvmvYX9lMXA78DVgk2IuQ1vegXoARKSEYjUA7kkd+AC2B/5B/kqo3TINeB/lHYc0AovvafJfq3bLxcAG8S9JW65HDQARKZlYDYDPpw68j+WAX5F3nfYY5RZg48jXxmsP4DHyXxtvpflN8n3mPbCFGNs5FxERt1gNgM1TB97LusDdA8RVxTIbODjqFQr3PqzCyX1NYpV/AStFvUKt6QBuC4i3v6IGgIhEEaMB8GjyqJfaAhv4lbtiiV0WAcdHvE4hvk7+61BEeQiYFPE6teo/A+PtW9QAEJEoYjQAvpc8arMS1e+aHqwsAg6KdrXaE6uyKmu5Hlg22tVqzWjgxQixqwEgIlHEaAAcmjxq+5Z7TWC8VSovYNPsUtoZmB8h9rKX8yJdr3b8IDDW3kUNABGJwtsAWAKskjxq+GBgvFUsl0W6Zq3opF7jKYYqqcda7B4hZjUARCQKbwPgofQhMxaYERhvVcveUa7c0I5LeE5lKA+SNoFRJzDTGbMaAAUp6xxckbK6K8MxP0KeQVw5fS7BMYYDX05wnDLZEDgk4fEWA5cmPJ60QamApWqGAVsCuwGbAhsBawJjgGVa3N4jdQKgDmyAWtPsAayDDXosygHYvdM0xwG/S3i8K7H0wKFGYGNDWvEKMA+YivXW3Qlcha3aKSIV1AHsAvwIeI68Xaj/UfC59rVlxNirVj4a4foN5iclOMccZSFpF7FaraDzaKdMwxIjbVHwuYpIJMOwQUu3kP8F0lN2KPSMX+/DEWOvWvljhOs3mDKvm1B02TfC9WvHtIixe8u12Hulo9AzrgCNAZCy2g373n4RsG3mWHp7MvHxcmYczG2zAvc9Esuo2FRFXtv+3J74eIPZGXuv/JP016FUNAZAymYMcCaWFa5sLfQubERzSp5v1LOwhYIWR4olxLaEV7RrxQykjzXwjYa/g7zflZcF9qe1cS/9WTtiLK24HXhb4mMOZTeWrqJ4KnmfE5HG2xS4j/xdhAOVl4s79QH9yxHvOzPE29cKWIa/0HMIreCG8gZHTNMox4+n/yL8HH6WONbDHbGmKFfRvJk2+gQgpbEDcDXlWM98IDkaAJ6KZka0KMI9j2XZC1VURevZ7zNYoyY3z+eo1A2YxxIfr127ATdgs4oaQw0AKYO9se9xK+QOZAiv5g5ApKLK3gAAmIyl227MuAA1ACS37YE/AaNyB9KCrtwBiFTUrNwBtGgl4AqsMVB7agBITqsBf8FS3YqIlMFqwMXYaoa1VoaBLNJMw4DzgZVzByKV0YHNitgIWL27rIxN6RuNjYx/GRtzMA8bAzETeBy4H/t2L9KKzbFlv2udhVMNAMnlU8BeuYOQ0jsUG7G/I5YVcYxjXy9i075uAGb7Q5OaOx7LF3Bh7kCKogaA5LAm8MXcQUgl/CLivpYH9uwuIq34HraWwdzcgRRBYwAkh9PQd38RKb81gU/kDqIoagBIausCR+QOQkSkRR8n7eJJyegTgKT2ceLdd08BfwAuwZb/bGWQ12qkX9JXRMItoLUsfZ3YoNCNgYOAQ4DxEY4/ERsPcGaEfYk01jLEWc53DvBpwnIHrOE47vSA43ld54j3TRni7c888qd6jVlujnt5gr2H8HM4P3GsyzhiDc0kORH4Frb8sfdvfltgDKWmTwCS0oH4s/1NxSq2bwGveAMSkdp6AfuhcCA2A8Rja2qYIVANAElpP+f2z2FTB++OEIuINMPfgH3wr+Wxf4RYSkUNAEnJM/2qC1vdbkqkWESkOW4FPubcR+2mj6oBIKmMBzZ0bP97bLVAEZEQP8MSQYXaPlYgZaEGgKTiXWbz9ChRiEhTLQG+6dh+Jcq/Ymlb1ACQVDZwbDuNmo7CFZGk/kr4rAKA9WMFUgZqAEgqExzb/hsbAyAi4jEbuM+x/fKxAikDNQAkFU8mrSejRSEiTed5n9QqhbkyAUoqyzi2nRMtCqmDmdivuEexz0PPYjkhXsVWCxyFfa9dF1gP2II4GeGkHmY5tg1JPlZaagBIKh2ObdX932wvAn/B5nNfj1X87RgGbArsguWi2I+avchFQqgBICJldjBwOZbONdQSbP2He4AfYr0EJwBnuKMTqTCNARCRMvsHvsq/P/OAayPvU6Ry1AAQERFpIDUAREREGkgNABERkQZSA0BERKSB1AAQERFpIDUAJBXPXH5PDgEREemHGgCSimcBjmWjRSEiTTfase3L0aIoATUAJJWXHNsqjauIxDLOse3saFGUgBoAkoonn/9a0aIQkaab7NjW80OmdNQAkFQ8C3BsFi0KEWmyUcA6ju3VAyASYKpj27Wxld1ERDx2BToDt12MrT5ZG2oASCoPAQsc2+8fK5CKWeTYtgyfTlYBRjq2j70OQIz9ropveetY1nZsW9R1Lbu3OLadgi07XRtaDVBSWQg8iK3NHuJ44AcR4lji2Db0l4OHZ+zEj4HD8TW8PDqAHQj/ofEKxVVUcx3brg7cDtwbKZYQY4F9HNun7sr2PDueZ7a3ZYEjHdvfEymO0lADQFK6i/AGwLbAzsB1zhg8leEY57FDPO7YdizwtliBZFBkd+t0rEs3tGLatLtU1dTEx/M8O54pxL29G1jRsf1dkeIoDX0CkJT+5tz+GxFi8DQAPPOHQ92d4ZhlUeQvrgXAwwXuv+xS/5rN3QAYCXzJuY8rIsRRKmoASEqX4uvO2wU4xhmD52UynPRJif6V+HhlclXB+2/qtZ0P3JD4mLkbAKfgGxPzHPDvCHGINNoNWFrg0DIL/4yAlx3HX9557BD3O+KtalkMrBnj4g1ivxKcZ47y5xgXr03bOeL1dr2/GRtM67lm5ztjKCX1AEhqv3VuPx64CF82r+cd2050bBvqJxmOmdsV2Hf6Iv0dG9ndND/PcMwVHNt6ntfJwO/xD+D9jXN7EcEq7pfw/4q5FlguMIY7HcfdI/CYHqOwwYC5fzmmLLtGuXJDOzLhOZWh3EWexbXeFxhvF1aBh5gE3Oc4bk95hJr+WK7lSUmpzQZ+FWE/OwOXAysFbPu047iTHduGegX/AKYq+T1wTaJj/Rq4NdGxyuAzWKWWmuf7+zMB22yI3UObOI7b4/vEm4oo0ngb4/8m11OmAG9o8/g/cRzvlLbPNo5OrFs89y/IosszwGqRrlmrtsM3LqQq5fuxLliACwaJa6jyX20e6wDgBcfxepcX0WJkItGdQ7wX26vASbSe1+ILjmOdF3rCESyPZVTMXZEUVRYAe0e7Wu05EvuVl/saFFX+AYyIdrXad/UAcbVSjmjxGGOAM4j7d/xE8BmLyIBWwlrXMV9y92Kt/6Ec7TjGtZ6TjmBjYAb5K5TYZQG+LG0xeBqGZS734EuAE8NMwuN/0xD7HgYcCzzpOEZ/5UHKkfJZpJY+RjEvvMuwbt2B7OjY9xzyj51ZDbiJ/BVLrPIcsGfUKxTuCOr1OeCv5O/CXh3fOQzUeOnApnLe6tz/QOXAKGcvIv0aRrHftW/BRh/3TUIyDl834cYRr0Go0cDPqH639Q34lmctwk7YyO/c18ZTFgBfJn9jFeBgws+jvwG747Hn+h7HfocqOcdLiDTGJHzdg62UF7CBf+9kaf6A6Y795e6q7m0X4J/kr3DaLQ9jWR3LUEH1ZyQ2+OwZ8l+rdspi4HfEGf0eyxcJP5+ruvexCna//AabFVPkNbwL3wqWItKG5lER1gAAIABJREFUfbBfLClekAuwCvMpxz6+U8xlcNkK+CZwB+XtFZgG/BTrts2xsmKIUdiKir8FniX/NeyvLMQWyTqZ8vWmgGUeDD23h4CbsYZNims5i3I1ngqVIyGESH+OwTKUVeGevBrYLXcQgxgNrA+sjHWX5vyV/VJ3eQRfRreyWA1LRb0cttpiLgux8ShPAY+Sb8nnoXRgg/NWzR1IC14F9qe5a0SIZNWTpKTsZT55lgYWqZrNyP+8tlIWAYcWdA1EpEUnU94u7N6llemGIk33EfI/q6006FvNNSAiBTsG6+LM/WIYrHy7sLMXqY8Lyf+sDlbmosa8SOm8lTiLBhVVvEuUitTdcGxQXe5ndaDyBLB9YWcvIi4bALeR/0XRX1mCTWEUkf7tRP7ndKByKWELiYlIQiOBsynnuID3FnjeIlX3dfI/o33LfOCzVGO2kYh024ViM3+FlMsKPWORanuY/M9o73I1sGmhZywihRkBfA6YTf6XSRc293pioWcsUk3bkv/57CkzgOPQr36RWlgBOIVyNASOL/ZURSrpm+R/Np/D3hPLFXuqIpLDJOB07EHP9ZL5W+FnKVItw4Cp5Hsmp2Lf+VXxizTAKOyX+C2kf9ksBtYu/hRFKmNv8jyHVwLvoDrrTIhIZOsAHyNtY+CLSc5MpBr+H+mevXuxbv51U5yYiFTHhsCHgD8CL1LcS2gKGmAkArA8xS7XOwO4AMsWunqic6otvbSkKTqxKUDbdJetgY2wFfNiOABNCxT5KHBmhP10YasIPoAlA+spD0fYt4gIYKv6bQF8Gt8vk0tSBy5SMsOAh/A9R0diDfNlE8cuIg3WCUwj/MW1BHtxiTTVQfgq/2vSh9xsw3IHIFISi4HzHNt3YOMNRJrqo87tfxwlChGRAGtjDYHQXzBzsCRFIk2zBb71Ol7EpvOKiGRzKb5uzFOSRyyS36/xPTdnpQ9ZROS1DsH3InseZSCTZlkPWIjvuXlD8qhFRPoYgc019rzMPp086upbARtEdjzwTiyHQ9E6gK2Aw4Fjgf2AsQmOWzc/wfe83JA+ZBGR/p2M74X2NKpIWrUp8GdgEa+/jncCbyvgmMOA9wKP9XPMV4GfoiQzrVoXmI/veTksedQiIgNYHv9Kgycnj7p6/gOYx9DX8mxgeKRjjgX+1MIxnwF2iXTMOvslvufkUZS7X0RK5rv4Xmyz0IyAwewJLKD163klMNF5zHWwXoV2/oYbO49ZZ1vgmzXTBbw/edQiIkNYk/YqqP7K6cmjroZl6b/7fajyMLBbwPE6gEOBZwOOeXXA8ZriInzPx0w09U9ESuo8fC+4V4DJiWOugqPxXddLgJ0ZOpHZCOBA4Ebn8d7kPuP62R3fNe0CPp86aBGRVm2Mv4vzt8mjLr/f4K88en5B/gz4JPBuYH+scfFZ4H+xLvwYxzm1mMtQWcPwL7c9G5iQOnARkXb8EX8F8ubkUZebt/JIXX5dzGWorPfhv6b6PCYipbcp/U9Ra6fcikY693Y7+Sv1dsrvi7kMlTQem+bquZ4v4h/QKRHEmlojaY3BRpiPZekgmuV47d/zxe5/voLNbZ4DPIc9gNK6+4DzgeMc+9gG+CA2nU1gOtXK/DYtdwAlchqwsnMf3wReiBCLOHXkDkBeZyUsteZkbNrSZGyRmklYpb8iMDJw34uxRkBPmQFMxebi9pQnsEU9ZKm1gAcJv+5g3zw3AZ6KElG1fRQ4M3cQbTgAuCx3ECXwRixrn2cV2aeADYCXo0QkUlGdWBrSo4FvA1dgg5pyd3e+CtwB/Bx7Ue+CctsDfAf/tdWAQDMBWzMh973eSnkQ9ZSCXYMYn240718aaSywN/Al4HL8meZSlsVYV/gPsbzpq0a+NlWwInFGlb8ldeAldTz57+uhykJgj6IuQMWchP96PoRNzRRphC2BzwD/xJ9UpmzlAaxBcDDNSebhXSOgC/vEsnzqwEvqq+S/jwcqi7H1AgQ2wrrsvddUOf+l1jqxFKc/xAY65X6JpSrzsPzqx2G/lOtqFDAF//X6RerAS+yj+HMtxC7zgXcVedIV0glcj/+a/guNOZMaGobN8z6bcnzDz10WYeMZjsJmK9TNwcS5Tm9NHXiJ/Qfl+ST2JLBrsadbKZ/Gf00XApunDlykSKsB/02cX4R1LXOwdLp74Rs5XDbeHOhd2GjolVIHXmIbALeR9369HP8UtzrZDJtG7L2u30kduEgRhmG5xf+MtWpzV7BVKg8DHwPGtX3Vy2cd4nwTvRh1i/Y2ArtHUvcGPN993Do1Ur1GAnfhv7ZPollEUnHLYtP17iV/RVr1Mgc4F/t1UWVfIs71+HDqwCtgTeAn2Lf4Iu/F2VhKWuWkf73vE+caH546cJFYVgJOAZ4hf8VZt7IEGzi4Tat/jJIZifVqeK/DK9hsEXm9NbAcGbHH1jyKzejQbIz+vZ041/kfqQMXiWEilvJyDvkryrqXJVhX+A4t/WXKZW8sfu81uB91kw6mE1vp71wsMU+713cxltzqu9jSvvrsMrDJxEnS9DI2fVBKTA/Ca40DPo4tLzo+cyxNdBm2RvjtuQNpwznAByLs53fY1LOuCPuqu9WwXpONsLTZE7FEW2Owbv15WKrrh7HkM3dglZoMbiRwLbBthH19CmtwiZTecOBEli6Wo5KvLMbSEK8+6F+sPMZiXcoxzv0TiWMX6e3HxLmPr0YDKqUi9gHuIX/Fp/LaMg/4MtXIJbAbcZLZLEBz0CWPWKmZ52K9MlIBTf4EsA7wP1QzIcsSrEvzeayiBBuvsKjX/2YsNq1qBLaK4ESqmbL3CeAj2NTLMvsfbCqZ19PYeAgtQSup7IQN2POsdtnjROAHEfYjCTSxAdCJpR89lfL+unwZm3L4ELZc72Pd/5zO0oo/xCisMbAmtsTt2t3/3AjL1DXJEXPR/oQ1BJ7MHcgARmNjFzaMsK87sVUY50bYl8hg1gJuAlaJsK+/A/tiPQEipbMF8G/yd2/3LnOAK7EGyaFYBdJZ1AUYwkQsrfHHgV9jDY/c16d3eQmbN1/W74s7Em/Rpz9R3vOUehiLDZCMcb++gDUmREqnE/gC5ViRbx7wF6wXYlvKv9b4KtgqXj+mPA2Cf2C9GGUUI3d6T/lG4tilOTqBC4lzny7BcgeIlM462NSWnBXWVOAMrHssxne2nDbApkleQ95V3F6knFnGOrAGXqzz/FDa8KUhYmX668LebSKl8x6s2zhHBTUdmwe7I/UdazEJeD/WGIiRECekXED5cjasgA3ii3F+i4B3pA1fau5zxHv+bgSWSRu+yOBGYavQpa6M5gO/xaYWNu377XrYtL3HSH/dH6Z86XR3It4np5eBndOGLzV1NPEa6y9gmQNFSmMy6ZcVfQz79qulRK3hczC2tGrKXoG5wJEJzq8dJxHv/F4AtkobvtTMwcRrlC4B3pY2fJHB7UvabH43Yelbyz6QL5eNsDnBMdYUb7WcieU+KIMO4g206sJyBGyc9AykLvYm7nP47bThiwzuE9j30hSVzN+x6XLSmlWxF0aqxZWuwqY0lsFywN3EO7fp2MBWkVb15JSIdQ9eSr6pyiKv0Ql8jzQVy9VY2lcJsyLWEEjRI3A/sG6a0xrSOsRdUvpRyjsNUsrljcQdCH0f5Rt0Kw01BriI4iuTe4D9Ep1TE6yFLfhT9DTCmdgLsAx2xQaJxjq3KWgAlgxuJ2AW8e6551CefymJFYGbKbYCeQ7Lba1v/MXYiuJzNMyjPOs9HEfcc5tKeXo5pFx2wZZGjnWvLQB2T3kCIgNZFcuVX1SlsQRb570s35HrrAM4Bvu1XtTfcyFwRKoTGsK3iXtu07HkTCI9difuN/8u4ISUJyAykLWxed9FVRYPoCVZc5gA/JTipg4uAo5NdTKD6CT+Z6uZwNYpT0JK62Asb0TM++s7Sc9AZADrEy/DWt+yEDiN6qfqrbr9gMcp5m+8GPhAulMZ0Cgse2LMc5uFBqg23bHYeyzmffVLmpfUTEpoMsVVDFOwATNSDuMoLpPjEmxFwdwmEG8ltp7yClqUpak+Tfzes0soT04NabDVgEcopkL4BVbhSPm8m7gDmXo3Ao5OeB4DmUT8+3oRWkCoSTqxxXhiPyPXAqMTnodIv1bC5p7GvsFfxhYLknJbH7iF+H//hZTj1/K6wFPEP7//Qcla6m4McTNN9pS7gOUTnodIv5ajmLz+U4A3JDwP8RlJMZ8EXgX2SncaA9oSW9449vldBIxNeB6SzmrArcS/Zx7FZllJA5R5mdrhwMXA/pH3ezm2aMwLkfcrxfsINiI55nfJuVhq09w2AzYtYL/3Y4mspF7eBKxewH7/jY21KquXsZTij2Aztm7CGs9SM+cSv3V7DkrqU3V7Eje7mYqKSnXLIiwh3BexKeJSA58l7k2yGBslK/WwOcXNCFFRUalmWYzNXNCMrgp7G3Gns8wHDkt6BpLC6sCd5H/pqKiolK9chHoEKmdD4nbvvgwckPQMJKXlgRvJ/7JRUVEpX5kLfBCphLHEze8/By1e0QTLAf8i/8tGRUWlnOWXKKdBqXUAvyXeH3w2+g7UJKOBv5H/RaOiolLO8i/sx4KU0IeI94eeh3KiN9EY4ufXV1FRqU+5AXtPSLcy5AHYBMv0FqOLZgFwCDYSVJpnHPB3YPvcgYhIKV2CDTRfnDuQMsidKnRZLAnLmhH2tRg4HBv9Kc00H/gjtiTqSpljEZHy2RBLA3517kAEvkW87p2PJY5dymsyMIP8XY4qKirlKwuA7ZCsnwB2BK4jzlrT51KOdd6lPLbFBv7om5+I9HUTVgd15Q4kp1yfAHq6/leOsK+LsaVdG/2HlNeZga0i+S7KMdZFRMpjdWwtgUavk5GrAfAl4J0R9vMQcCDwSoR9Sf08gPUw7ZY7EBEpnfWx3uPGyvHLaAts1P8yzv3Mwbpw7nNHJHU2DBsY+pbcgYhI6ewKXJs7iFxSr4zXga3I5638u4DjUeUvQ1sCHIWtnb5uhP19hYZ3G4pk0glMAt6MLRM/KsI+D6PBDYDUjiDOKM6zUwculbcztnSo9967InXgIvI6k4Cf4H+epyaOu7FGE2cJ13uJ0/KT5jmNOA3QA1MHLiL9OgHLAeN5nldPHnUDfQn/i/dVYKvUgUttjMDGn8RohKb+fCYi/fsqvuf5relDbpbVsRz93hfvp1MHLrWzCbZMtPde/FDqwEWkX6OAmYQ/yx9NH3KzfB//C/dm8qculnr4MP778RlgfOrARaRf5xL+LH8tQ7yNsTaWo93zsl2Auv4lng4sF7i3EXBq6sBFpF+fJfw5/m6GeEshRhreoXwB/7S/bwF3RohFBJZ2+3lXBPswtgKhiOS10LFtV7QoKqboBsD6wDHOfTyODfIQiekO4EfOfUxAYwFEymCCY1tlki3Ij/B3sx6WPOr6GAMcCfwMuBJbC/tMYF+UHx9gIvAsvvvzaTQtVSS37xH+DJ+UId7aWxn/aOvrUEUV6p3Akwx8bW9F4yrAfsF7G6kfTh61iPR2AeHP73szxFt7p+B7qS5BazaH+jR2/Ya6xnOBPTPFWBadwO347tVpWI4BEcnjIsKf30MzxFtro7BpUp6X6u+SR10PB9BeZqwXgDWyRFoe++LvBTg6edQi0sMzq2fvDPHW2gn4XqaLgc2SR119ncD9tH+9f54j2JL5N7579rr0IYtIt7sIf3a3zxBvrd2K72X6y/Qh18KbCbverwDLZYi3TN6Kvxdg8+RRiwjAdMKf2/UzxFtb2+D/9b9R8qjr4cuEX/fd04dbKh3Y1EDPvXtm8qhFBGA24c/tShnira1z8L1E/5Q+5Nq4kPDr/u4M8ZbNYfju3RexVS9FJJ3htDboeaCiAbyRjAFewvcS3SV51PUxjfDrrhWxLDHWPfju36OSRy3SbCsS/rzOyRBvbR2F7+X57/Qh18YEfK3gN6QPuZSOw3cP/yt9yCKNth7hz+sTGeKtrYvxvTyPTB9ybYQOAOzCFlvyrtdQF6OBWYRfyyVoWqVIStsS/rzekyHe0oi5FsAEbD51qOeBP0aKpYk8Wf3uxxoBYtkrf+3YvgN4R6RYRGRoyzu2fTFaFBUUswFwCL5fkb8AXo0US2rDgVWBNYGRmWLY0rHtXZFi6MBSQE/GxoNU1U+d26sBIJKOZyGgWdGiaLhL8XX/b5o+ZLdtgd/w2ikoC4C/A28n7ToGNxF+7b2LYawN/ACY2WufS4CbgQ9SzVG2nvTAi9DUIpFUjif8WVXOmQjGAvMJ/yPckD5kl2HAaQw96O5i0qwX3wnMGyKWwYrn083RWCKhwfZ/B9YrUCUfxteg/c/0IYs00icJf07PzhBv7bwN38vyY+lDDjYM+1zR6rldS/ED7DZqI57+yiqBxz2mjWPMADYJPE4OE/A1qi5JH7JII51K+HN6aoZ4a8eT/Gcx1Rk13W7l31NOKzguTwKbZwKPuS42ZqOdY1WtEfBnwq/rq1R7HIRIVZxF+HPq/fxZabEGAR7g2PY6qjEXcxi2aE7Iqm8fAybGDec1PAMA7wjc7vPAsm1uMwn4B9VpBPzFse2ywE6xAhGRAXlmATR6EGCMBsAm2CCwUH+IEEPRPJU/2C9BTyNpKJ4pgHcGbNNJ+Ej3KjUCLsF+JYTaPVIcIjKw8Y5t1QBw2s25/V8jxFCkYcDP8K/3vkWEWAaSegrgGvh6NCYBV1H+JZ9nYCtbhvI+GyIyNPUABIrRANjZse0U4OEIMRSl55f/MRH2VdRsgAlY/oFQIT0AYx3H67EyNl2y7D0Bns8Ab0SLA4kUTXkAAuVuAJR5pLS327+vpyPtp6+tCM83sBB4IGC70IGDfVXhc4CnAbAMsGOsQESkX2oAZLIq4aMvu4CD0ofckmHAefjOrW/Zs6BYP+qIKeTXf48HHMftW56mvJ8DOoAnCT+3L6cPWaRReidia7esmCHe0vD2ALzJse0SbAZA2cTs9u8xBbgm4v5683z/9zQAznNs21eZPwd04btP1QMgUpzh+D5JvhQrkCb6KuEtr7szxDuU0Hn+Q5VDCoz5ZkdcnjmwY4BHHMfur5Q1T8BJhJ/TUxniFWmKFQl/NudkiLdWLiL84p+bId7BFFX5f73AmL0pgPdxHn8zbDWtujcCPEstd6F1AUSKsj7hz+X0DPHWymOEX/xj04c7oCK++XcBP6TYBYE2dsYXmgK4t62xpZxjXreyjQkYiy3wE3o+e6QPWaQRtiX8ubwnQ7y1MZ6hF8MZrHi+XcdU1cof4F2O+GZEjKMJjYA7CT+Xj2SIV6QJ9ib8ubw6Q7yl4hkEuAXpp5/F1pPk55jI+z0XWwa3K/J++0qdAGggt2MP4gsR97kyNkWwLI2Amx3bFpkESqTJPPlVZkeLoqI8DYD1Hds+ACxwbB9D1St/SJ8CeDB1bwTc5NhWDQCRYigHgIOnATDZsW3MX58h6lD5Q3l6AHrUuRFwn2PbDaNFISK9qQHg4GkArOPYNmf3f10q/wn4llGO3QPQo66NAE/K6onAqFiBiMj/UQPAIVcDYKpjW4+6VP4AbyB8DMYC4MGIsfRVx0bA0/iShqwWKxAR+T+ehYBejBZFRXkaAGs7tp3q2DZUnSp/8HX/30/xYzDq2AiY4th29WhRiEgPz1LAjc8CGNoA6MDWAQjleZGGqFvlD+UaADiQujUCnnBsqx4AkfjUA+AQ2gBYDhgRuO1CYGbgtiHqWPlD+QYADqROjYAnHduqB0AkPvUAOAwP3M6T2vQ5LIFQCnWt/DuBTR3bp+oB6NHTCPg7NiAuhp5GwJ7AvZH2ORQ1AMphLLATljJ6Yywf/PLY874Qm9/9BDbO5V4sh8P8LJFK0dQDkMEbKX/6xQ6KyfB3JsVn+BvKJvjOYeX0IQOwPcWsHbBRovjf74jz/EQx1tVqwKeB67FKvp1rPw+4AjgB36hxKZ/HCX8mPblsGu1Awi/6PxPFeIojxoFKivS+rShLCuAQRaQNnkKadb091/13CeKrox2AP+Nbi6F3eQX4CbBBypOQwswh/F5YIUO8teB5Ef4hQXw74lunoL9Shl/+Pb5G+HlcliHevoroCfhFgrj3c8T3lwTx1ckGwF+Je4/0LouAn5Km4SjFGI7vPR86jq3x3kO5X9RXOuIre+UPVpmEnss3M8Tbn9iNgMXA5gXHvIMjvisLjq0uOoGTsV/qRVX+vcvzwFFJzkxiW4Hwv/ucDPHWxnsJv/A/Kji2NYn7678s3f69TSf8fN6dId6BxP4c8PWC432DI7brC46tDiYRv/Heavk5MLr4U5SI1if87/14hnhLJ3Qa4LKOYxadgGY/4lXYZ5F3tH9/JuJLAZx7HYbebgf2J15Kzv0j7WcgnntXqYAHtx5wLTarI4djgavwzXCStJQG2Cm0AbCM45hFNwAmR9rPucDHKVflD775/0WnAA5xM/bSj5EnwJOeuhVqABTjDcCNWCMgp+2xNeInZY5DWqMGgFNoA6DTcczFjm1b4UkM0eNJ4FOUr/IHXwbA+8i/DHN/bge+H2E/4/Cltx7KIse2nkZzna0LXEp5BuNtjE0Z9MwvlzTGObadHS2KCgt9WS50HLPokZfPRtjH6thLaWyEfcVWlQyA7Tgc+FyE/RSdZMpz75ax4ZXbeGxWStl+cW8B/IZiG5Pi50kqFjMzaWWF3uCel1nRv4RidXHvClxE+QYGVWENgHYcDfyS8KyUvRX9eaPMn76q6AeUdz7+PthsBCkvfQJwqmMD4DJ8PRS97dG9v7L0BHhTAJetB+BwLFWz55NSb0XPtff0ACgV7WsdDRyZO4ghfBEbFyDl5PncqwYA4Q0Az8vMM4OgFS8B/xtxf7tiCUnK0AjYEN9gsjI1AA7HfvnHqvxf6d5fkTy9QeoBWGp54Fu5g2hBJ3AO8e5RicvTANAYAPI0ADwDN1r1JSz/dyxl+Rzg6f6fATwTKxCnY4BfEffF+i18i/W0wtPlqB6Apb5AvvUo2rUtlvhMykefAJxCGwCeVZRSjPZ9DOtijDmKfw/gcvL2BHgGAJbl+//hWArWmAOsrgROjbi/gXhGhmvQkVkBW5SnSk5GvQBlpJUAnUJfws87jplqAYY/Ap8gbiNgF+BiYEzEfbbD0wNQhu7/In753wIcim+KXqs8XY6eZ6ZOPky8RvR8bIzOJ4BDsCWn3wV8HriOeDNC1gPeHmlfEo/neXwpWhQNtCbhKRifSxzr+4m/MNA15OkJeCIw3i7ypwA+FssBEfPvcBu+qUDt8izC9NWEcZZVB7Zyo/fvvhCbQTDU9MGNsMXHYtxrF/tOXQpwN+F/z20zxFsbowm/8ItJnxSlDo2Aic54i14oZzDHUv3KH+D/OeL9ZOJYy2hX/H/354G92jzuf2K9BZ7jLqA8yYrEPE7433P9DPHWyjzCL36OlJ9VbwTs4YjzVfItfXks9aj8wRb0CY356Azxls1p+P7ucwj/DPZ2/Pfh4YHHlmLMJvxvqcac04OEX/y9M8QLxTUClksQe8+6BKEVZg7HEb/yv5U8lT/YLIPQuNv91VpHN+D72x/qPP6XnccveiVTad1wfO/yXD+IauNywi/+ezPE2+N9VLMR8DNHfOcVHFt/6lb5j8R3PuumD7lUhuPrhr8yQgwjgWmOGMoyk0ZsMHno3/EV8g3kro0fEv4HOC1DvL1VsRFwqyO21N+f61b5gyVhCo19IfrFsQG+v3+sXsOPOWJ4Ga0PUBbr4bufnsbei1qlM9B/EX7x/5wh3r6q1AgYjrVaQ+NK2f1cx8ofYF/C438sQ7xlcwDh1+8F4qwVAbAWvud+rUhxiM+2xHm3zMAahSPThl99hxN+0R/NEG9/imgEXEv8RsCmzphSZV2ra+UPcBLh5/CPDPGWzZGEX7/LI8fimU7rycUh8exJ3PfME8CJNGzZbk93lmfltXVIM3BuKD8CPoDdALHsjC0lHPP8PC+dp0iTAvg44CfE7SK9DVuVrQxZ9N7o2PbhaFFUl+d5eCpaFMaTMroMa4KILw1wf1YHzsYSpu0Ted+l5XlZ30f4qnsd2JrbZVCFRoAnBXCKDIDHU+/KH3wNAA0es2c+1OJoURhP1kilBC6HonoFNwKuwBI/rV3QMUrD88KeDzzk2H47x7axlb0R4OkBKLryOR74MfWu/FfC9zIoQxrm3OY6tl01WhRmDce2WkWuHGL3APR1EPYj9xSKX8G2sjyZ0WIu2RvLh4k/JuAy/L8aPN8si1xz/R3E/+Z/I74c30U4kPDzWULxL6sqOJjwa/gkvh6E3lbCegBCY1knUhzi8xXivncGK/fj6wGsrc8RflGfyBBvK04kfiPgc454PPNdu4DNHMcezOpYZraY16mMlT/Yr4DQc3osfbiltBm+e2OHSHEc74hhAfFmI4jP94j77hmqLAS+gabzvsY++C5qWafUxG4EvASMC4zFM9q1yBTAsR/Aslb+AJcQfl5/yhBvGS2D75f3byLE0IlvAZn7I8QgcZxP/Eq+lXI9Sur1f5bD91C/J33ILTuBuI2AwwLjKGMK4GHATEdcfcst+Nb2LtKy+Ho6TkofcmndQfh1XIItx+3xfsfxu4BfOo8v8VxEMRV8K2U2NutJsEom9EL+KkO87YjZCPh6YAw/dxzz54HHHIpnOei+pcyVP8B++M4vVtd1HZyB71rOwO69ENvgW8CsC/t8IOVwNfEr9nbLBSiBEGcTfgGfpfzTaj5EnEbAOYHH96QA/kTgMYeyuSOm3uUGytvt3+Msws9vHg1LLDIEz2DKnvIwsEmbx90TeM553CWENz4kPs+nnJjlNsr7KTuJI/BdwCr8QorRCPhKwHG9KYD3DDhmKyY5YuopVaj8wSqc0HOMsYBNnYzAcrB7752XsMbtUNOzJgCnYwO4vMf8l+/UJbLpFFept1ueohr1WCEm4ascT00fcpAT8E152y/gmN6R0ysFHLNVjzjiKnu3f4+N8V0TygJNAAAWqklEQVT/L6UPufS8nwF6l+nAmVjPwmZYvoAtsWWDf4blkYh1rP8s4mJIsNnEr8g95RXKPaatUJ5xAA9kiDfUBwlr7DxBWDIJT++KJ91pK0LXVr+B8BkRqX0K30tBc4dfby1sOl3uF3Y7ZQZaNa5MhhN/qnasckpxp11ep+G7aFVaYCOkEXBM4LG+0eZxepe/Bh6zVeOxRkY7MV1PdSp/sG7f0Ov/DFo6diDnkf9F3U75VCFXQUJ5c6MUXb5DvMRVlbArvgt2WvqQXT5A658DfuA4zl9bPEZ/JXTWQTt2oPUpctdSrcp/PXy/Ms5PH3JlrEn8JFJFlUfQSO+yWY/wv+eT2OfcGGNRBis/pEE/AIYDLxJ+sR6lei2mAxl8LvzLwGfwnVe7v7B7lyMcx23HFsC9g8SxGHsYqpZP+6v4XgCHpw+5Uj5N/sq9lXJAURdAgm1D+N/z7u59TAC+S7Gfoy6gQZkjvZmZihqxXqQx2PoBl2KjxacD12DfgTwLjkB5UwD3pxNrcPwOW0DjSWyg33fwrWSYSye+UcbzqcYgx5w6sVkSuSv4wcq5hZ29eHiyo17TZ19bATc59jdU+QMNSR98EL4L9f/Sh1xqZU0B3AQH4LuX/5I+5EpaHRsrkbui76/cgQb+ldUhhP9dL+5nf53AJ/FNuR6s/ILq9XC3bQTwPOEXaT7FTlurmk8Qfi1vzRBvnfwO3wP/7vQhV9YbKd94gCdowFrwFfZewv+2g43N2RRburuIe+qbEc679H6G7yJptO1SPyf8Ov4sQ7x1sSLWGA299i9ja2RI6w7Aeq1yV/xdWI9Eys9n0r5PEv73/d4Q+x6Dvx4bqBSVmbU0vHnTp9KgQRNDuAXdaDl8Ad89/Nv0IdfCbsAs8lb+jwEbFX2i4vYVwv/GrSaeezfxkw0tBo4MPekq6ASm4btIGj1tPNNUqjigsgzG4M8Z/9bkUdfHFsCD5Kn8r8IyCUr5edbnaGd1zg2I/0lgPrBHyElXxSn4LtAtySMuJ08a0xUzxFsH3sx/01EPltdy2KCpVBX/AuwXZdkXJZOlLiD8791uSuex2CyvmPfc0/hniZXWmsAifBdor+RRl09oeuWpGWKtg2Xx5V3owtIjSxx7AvdTbOX/L2xlS6mWiwj/mx8acLxlgF86jtlfuZ4arxR6Cb6Lc136kEvn64Rdux/lCLYG3o/vnl2MRo7HNhw4isETTYWUqwlbnEvK4RrC//ahPy478Pdu9y1nBcZSet6cAF3A/smjLpd1aH9e6mLsO6q0ZziWjdJzv/Y3v1ji6AB2wRq3oWNjpmBTsfR8VJ/nu/x2zmOfiG9V2L4lVcbWpIbh7767iQYkTxjC52jvmn0rT5iV55lX3FP2Th51M3VglfiHgO8Df8MqhCnYAM5HgduxXsjvAMcD62aJVIryOOHP6foRjv8h4q1GOBdbdrx2TsB/cUK+19RJBzZvtZVr9Us0kCnEeAZf06GVosRLIul4pufFGiD9GUcMfcsN1PDdvSy2jrbnwjwOjE4deAkdgc1R7u8aPYH9gm16b0mo7+B/gA9LHrVIMw0n/Nf3EuLO0jk1MI7+yqcjxlUa3qQqXcB/J4+6nIZjyy5/FvgG8HlgH6q3yl6ZbIgv618X1uVcu9a7SEl5FkmbU0A8/+OIp3d5mRomoZqAb5ngnj/a6qkDl0b4C/4H94PJoxZprvUIf1anFxBPB/61Q3rKddj4uVqJ0Qvwh+RRS915V/zrwj7L1HYur0gJbUP483p3QTGN7d53jEZA7dK4j8OfXrULWwJSJIYxwCP478ljUgcu0nCeZdKvKTCu9fFlb+0pc4BJBcaZxWfxX5gZwPKpA5da+iH++/FBlPZXJLVDCX9mLyo4tn3wZ8HtAn5ccJzJjcFGq3svjJa5Fa/9iTOHt+lTVEVyOJ7wZ/aCBPGd7IivpywCtkwQa1LvwX9huoB3pg5camMi/nz/XdhgHU27FEnvk4Q/t99LEF8nluff+465PEGsSXUA1+K/MC8CayWOXerh1/jvv8XA9qkDFxHAN/f+K4li3Aib1ud91xyQKN5kdiBO9+uV1HC6hBTqXfjvuy7g3NSBi8j/OYvwZ/ekhHF6eip6yj3UsJ6Ltdb3qakDl8raGHgJ/z33AvFSiYpI+84n/Pl9b8I4hxGnx7t2s99WBJ7Ff2GWAG9NHLtUzzjirSv/gcSxi8hrXUT485t64O5GwAJHvF3AjYljTuIo4ryQZwObJI5dqqMD+D1x7rWr0MA/kdyuIfwZ3itDvGc44u0peySPOoFLifNivg/lB5D+fZE499jLwAaJY5fXGoY9554yIXnUEttdhD/H22WIdyLwfGC8PeWy5FEnsDaW9SjGC/qfKCWrvNZRxFuz+1OJYxezHLbo1e3AQuL8LV8FrgbeD4xIdyoSyeOE/+3XzxAvwMfbiHGgsnXyqBPwJHXoW85HXbRi9sG/yl9PqeVa3RWwGzCTeO+H/sp91HAFtpqbTfjfO9cA3mWAh1qMcaDyq+RRJxLrG20X8LXEsUv5bI3vJdG7vASsmzZ8wSr/WA24ocqz2ApzUn7D8fXq5ezxOXKQuFopr1DTT90TsWUaYz3Qn0sbvpTIetiaEbHupSPShi/AeOBp0lT+PeVm1HtYBSsQ/jeekyHe3oYDj+K7T09MHnUie2IZ1mI90B9JG76UwHr4vg/2LT9NG750i7F8eEip3XzrGlqP8L/v9Azx9vUhfPforelDTifGIgo9ZQnwvrThS0brE7cX6T5sAStJL9a66u2W/01xcuKyDeF/37szxNvXKPzjWrZKHnUiHcCFxG0EfCLpGUgOGxBnpcmeMgsNDMtlBHF7AtspDyQ4P/HZk/C/7zUZ4u3P5/Hdp2emDzmd8fhHS/YtX0h6BpLSlsRZ3a+nLAYOSnoG0tuK5Kn8u7BxB1JuhxD+9704Q7z9WQnfANfnqPn01c2JN4q7p5xBDRdVaLg9sV/rMe+Tk5OegfQ1jHjz/dstZegilsF5po1fkCHegXhnvuXIaJjUAcR/EfwRGJ3yJKQw7yb+NLHfoZHgZXAdeRoAWuWx/Dwr7J2dId6BHIjvXq31Z4Ae7yf+Q34jsErKk5CoOoD/Il6Gv55yLTZAR/L7IHkaAG9OcXLi8hXC/75fzRDvQDrxDVqekj7kPE4n/oM+jTw5ocVnLPAb4t8P92O5KKQclsFmYaSs/P+c5MzE6yzC/8YnZYh3MKfhu2e3SB9yesOwFIixH/hXsO9JUg0bAfcS/z54CluTQsplI+IsGd5K0WJi1XE+4X/n92aIdzBvwHff/nf6kPMYgbXQi3j4z0Vdv2V3CJaSN/bf/nlqPKe2BtbFPtkVWfn/EVX+VXIR4X/rQzPEO5QphJ/PjRnizWZZ4AqKeQncg00nk3IZjQ3cif29vwubPaDPQOXXAbwVG8F9N/AM8IKjzMBWFjwH2DnheUgcVxP+zO+dId6hfJfw81lMw5a3Ho3vBhisvIolDdIo8HLYEXiQYv7Ws7v3LyLVchfhz30ZG/xvxvcu2z99yHktB/yTYiqGru5951ozWuxzz1cpbi74PGCXZGcjIjF51voo43u9E0vsE3pOp6YPOb9RwF8prhHwMvBZbPUmSedNwB0U93ft6t6/iFSTJ0HcihnibcUfCD+nKzPEWwrL4LtwrZTb0HfCFFYBzqOYb/19y9QkZyQisQ3H944oa/rcjxB+TnNp8A/V4diSrUVWGEuAXwNrJjqnJhkOfBR4keIr/p4yK8mZiUhsKxD+3M/JEG+rtsD3Tts2fcjlcjLF/3qch2WhGp/onOqsA5uSU8S8/lYadJ3Fn6KIRLYe4c/99AzxtqoDX86Lj6QPuXzejY3kL7oCeQFbznFsmtOqnYOwTyupK/7eRfO+RapnG8Kf+bIv9HQh4ef2owzxltJupMse9gyWk16VydA6sOkqN5C34u8p6xR7uiJSgD0Jf+avyRBvO75Efc8tqTUoPntY7zIHyya4YYqTq5iRwNFY6zt3pd+7bF3kSYtIIQ4l/Jm/KEO87TiY8HN7LkO8pTaS4gcH9i0LsVkJB2DrFzTZ2sA3sc8luSv7/soexZ26iBTkeMKf+V9miLcdq+N7p62cPuTyex82pz91BTMN+CIwufAzLI/x2AP6TyxFZe5KfrDyjoKugYgU55OEP/NnZ4i3XU8Tfn67hR60zr9WfwRsj6WPTGkt4MvYQg83YimG10gcQwojsa6r/8VyrP8U2J3y31ONyp8tUhOe57YK038fcGy7ceiGZX9Ze90LvBE4A2sppdQB7IAt+DANawyc0v3fqnrdJwMfBC7GVtO7CHgX1VpRUQ0AkeqpewPgYce2wQ2AJmQRmo91H10G/IQ8SX2GYRX/DtiIz+eAfwDXdpe7sK7zslkb2AlbPGcfYNO84QB2naZi84JDqAEgUj11bwA84th2tdANm9AA6HEFsBnwNeBD5P0VviJwWHcBm01wE5ar/m6sQXAf1nhJZW2sJbkVVunvAKya8PituAM4AZsSdHrgPtQAEKmeujcAPD0Ak0I3bFIDAKyi/QiW3vfHlOMXLdgqh3t1lx6LsNWvHsN+8T6GZbR6Dut+7ylzuv+3A5kAjAEmdpcVsTEJa2O9IZOxir/MyY1exj6fnIGd6zaOfakBIFI9dW8ATHVsG9wAaLJlsWQ+nhWmylQWYlPvXqjROXUBlwDr9vnbHebY34WISNXcRfgzv12GeNu1GuHn91KGeGtjVSyZzyLyV3YqS8t9wFsG+Jvt69jvVQPsU0TKazrhz3zoeKGUOvHVQaPTh1wv2wNXk7/ia3qZiX3nH2zRnjc69n/nIPsVkXLy9GqumCHeEDMIP8e+vaQSaF/SphNWsfICNkNiuaH/RGzoOM60FvYvIuUxHN+KryPShxzkDsLPcccM8dbaweRfua4J5VlshcVxrf1ZAEt9GXo8fS8TqZYVCH/e52SIN5SnB3qvfvYnTh3AfsDfyF9R1q3MAD5N2OyDZRzHXcLgnxdEpFzWI/x5n54h3lB/Ifw8BxovNaiqZqRLpQu4HEuCsxWWXvjVrBFV363A+7FvVt8C5gbsYwE2NTBEB+31NohIXp5l11+MFkXxZju2HRmykRoArbuLpRXX54FH84ZTKfOBC7DBe9thDalXnPv0zO1VLgCR6vA02D2VamohP4Z6qAGQyAzg68AGwN7YYjjqFXi9LuB64ERsucujgZsj7l8NAJFmqHsSoB4LHdsGNQCalgkwpi7gyu6yHPBWbGGcfbEkQ031IPCr7jKlwOOoASDSDGoADE0NgIzmsLTSmwC8DTgI6yGoe2WzGPul/5fucl+i46oBINIMagAMTQ2AkpgF/KK7DMcW1jkAm02wFfUYgf44NmXlsu7yfIYY1AAQaYamNACWOLYNqlfUACjWIuCa7vJ57FPBTsDO3WUHyr0ID9gv/Aewc7gWq/jLMLVGDQCRZmhKAyA5NQDSmoMtS3xF9793YnNct+wuW3SXtciTvWoWcDu2JPHdWNrcewmfclckNQBEmkENgIKoAZDXYuCh7vL7Xv99OLZk72Rgne5/rgyshGXFWrH7nyOxKTKxPit8Hjgn0r6KpgaASDOoAVAQNQDKaRG2PvRUWl+9bjj2ieHbwPFFBFUyagCINIMaAAVRHoD6WIRlvZqfO5BE1AAQaYamZAJMTg0AqSo1AESaQT0ABVEDQKpKDQCRZlADoCAaAyBVsAGWXGlzYBKWWtjzUtgEreVQNnOx/BJ/xxJqPZfw2GsBRwG7A6sBoxIeW4Y2xrHtLVgj4ElgJpaO/GLgqQhxiZTODwhfUvKDGeIdSCfwXmwaYu6li1XSllmkuReHAadia3nkPmeVdGUJcAOWvr1MTif8nD4TckB9ApAy2gdbffHHwKaZY5H0xmMN2dMLPMYwbCGvk2n22h1N1AHsCFyIJTjbKm84+agBIGVzEnApqvj/f3t3E6JVFcdx/DtjSclkUtFkkL1A9E4QvYCIgliiUQYpUi0ShaAWVtBGqkUFEb1hmzZFtSizzILETaFmIYVQCRaRvYhF4JSaJhjjqLU4LiSYyXnOuffce+73A8/y/O9vYOaZ33Pvfe5R+FSzuKLZK4BFFc1We8wAtgALcwfJwQKgJnkZeI4y9ktQGs8CExPPHCQUAAnCPQbvAg/nDlI3C4Ca4hGadQ+CmmEa4ea8lBYSd2OZytNHeIjagtxB6mQBUBPMAZ7JHUKNNSPxvOmJ56kM/cCbwGW5g9TFAqDcJgAv4Wl/jW6w4fNUjgHCZchOsAAot6V4w5/GlvphLgcSz1NZbgNm5w5RBwuAcnsodwA13jeJ521PPE/lWZ47QB0sAMrpUvz0r7EdAtYnnrmW8PAUaTS3AJNyh6iaBUA5Ne1JXGqelcC+xDO3A+8lnqmynE4oAUWzACinq3MHUKNtAZ6saPb9uB+ExnZ97gBVswAop6m5A6ix1gHzgeGK5u8FZgFbK5qv9rsod4CqWQCUkwVAJzoMfER4GMvtwF8VH+83wjMBlhLONhyr+Hhql8m5A1TN7YCVU8wmLDcDP6cKouyGgSHgSM3HPQq8fvw1kfCMgFNrzqDqzAJe63Ft8f8fi/8BVaxfsQAorcOE3yuVozNP9euFlwAkSeogC4AkSR1kAZAkqYMsAJIkdZAFQJKkDrIASJLUQRYASZI6yAIgSVIHWQAkSeogC4AkSR1kAZAkqYMsAJIkdZAFQDn9E7HW311J/6cvYm3M+1Mr+CaqnGL2ez83WQpJpRqIWLs/WYqGsgAopz8j1k5NlkJSqWLeJ2Len1rBAqCcYhr2xclSSCrVNRFrPQMgVWgoYu38ZCkklagfmBex/vdUQZrKAqCctkWsnQ4MpgoiqTg3AudHrP86VZCmsgAop68i1vYD96YKIqk4yyLWHiPuA0orWACU07fA3xHrVwBnJ8oiqRyXA0si1u8ADqaJ0lwWAOV0BNgSsX4K8HiiLJLK0Ae8CJwSMWNzoiyNZgFQbmsi1y8H7koRRFIRHiXu5j+Ad1IEaToLgHJ7n3AmoFd9wKvADWniSGqxO4EnImcMAZ8myNJ4FgDltgf4OHLGJGAjcEd8HEkt9SCwmvj/a2uAo/Fxms8CoCZ4IcGMAWAt8BShEEjqhnOAN4CVxF33h3A2cmVsoLawAOhEEzIddwPweYI5/cBjhDt4lwETE8yU1ExnEL4J9CPpvhK8Gvgp0azxiikvxW9cpJPzPOGXoZfXZuCs+iMDcOtJZhzP6wDhD/pu4CrCtwYktU8/4Su/1wH3AesJXyFO+X5xFLiyrh/oP6YRPrj0mv2BXg4ae7pEzbM3Yu3MyPVNMxlYfPwlSWPpJzybpI329LLISwDl+SF3AElSrXp63+9LnULZTQN25Q4hSarFIcKl2+HxLvQMQHl+Ab7PHUKSVItP6OGfP1gASvV27gCSpFqs6nWhlwDKdB6wEzgtdxBJUmV2A5fQ46ZqngEo027gldwhJEmVepqIHVU9A1CuKcB3hLMBkqSybCPsgdLzXiqeASjXfuAeOvJMa0nqkH3AIuI2Usv26FfVYydwEJibO4gkKYkjwALgy9hBFoDyfQGMALPxko8ktdkIsAT4MMUwC0A3fEbYMGMubpAjSW00RNjyfF2qgd4D0B1vETbS2JA7iCRpXFYB1wKbUg61AHTLDmAOMA/YCBzLG0eSNIoR4APgJsIN3UOpD+A14W67kLAN70zgCuAC4EwshpJUpxHC9uW7CDsSbiJsefxHlQf9F913/2iyNf6mAAAAAElFTkSuQmCC" vertex="1" parent="1">
          <mxGeometry x="110" y="314" width="100" height="100" as="geometry" />
        </mxCell>
        <mxCell id="5GPRaHHNxdMrhig5xY4P-14" value="" style="shape=image;verticalLabelPosition=bottom;verticalAlign=top;imageAspect=0;aspect=fixed;image=data:image/svg+xml,PHN2ZyB4bWxucz0iaHR0cDovL3d3dy53My5vcmcvMjAwMC9zdmciIGZpbGw9Im5vbmUiIHZpZXdCb3g9IjAgMCA2NCA2NCIgaGVpZ2h0PSI4MDBweCIgd2lkdGg9IjgwMHB4Ij48cGF0aCBmaWxsPSIjNDA0MEIyIiBkPSJNMzguMDYgMjYuMTUxdjExLjQ3M0w0OCAzMS44OTFWMjAuNDA2bC05Ljk0IDUuNzQ1eiIvPjxwYXRoIGZpbGw9IiM1QzRFRTUiIGQ9Im0yNy4wMyAyMC40MDYgOS45NCA1Ljc0NXYxMS40NzNsLTkuOTQtNS43NFYyMC40MDd6TTE2IDE0djExLjQ3OWw5Ljk0IDUuNzR2LTExLjQ4TDE2IDE0em0xMS4wMyAzMC42MjQgOS45NCA1Ljc0di0xMS40OGwtOS45NC01LjczOXYxMS40OHoiLz48L3N2Zz4=" vertex="1" parent="1">
          <mxGeometry x="230" y="60" width="160" height="160" as="geometry" />
        </mxCell>
        <mxCell id="5GPRaHHNxdMrhig5xY4P-15" value="" style="shape=image;verticalLabelPosition=bottom;verticalAlign=top;imageAspect=0;aspect=fixed;image=data:image/svg+xml,PHN2ZyB4bWxucz0iaHR0cDovL3d3dy53My5vcmcvMjAwMC9zdmciIHZpZXdCb3g9IjAgMCAzMiAzMiIgaGVpZ2h0PSI4MDBweCIgd2lkdGg9IjgwMHB4Ij48dGl0bGU+ZmlsZV90eXBlX2Fuc2libGU8L3RpdGxlPjxwYXRoIGQ9Ik0xNiwyOS45NTFhMTMuOTUyLDEzLjk1MiwwLDEsMSwuMTkzLTI3LjlBMTMuOTUxLDEzLjk1MSwwLDAsMSwxNiwyOS45NTFabS0yLjIyMS0xMy4xM2MuMS4xLjEuMS4xOTMuMUMxNiwxOC41NTksMTguMDI3LDIwLjEsMTkuOTU4LDIxLjc0NWExMC45MjgsMTAuOTI4LDAsMCwwLDEuMjU1Ljk2NS45OS45OSwwLDAsMCwxLjU0NS0uNjc2LDEuNjQzLDEuNjQzLDAsMCwwLS4xLS42NzZMMTguOSwxMi4zOGMtLjU3OS0xLjM1Mi0xLjE1OS0yLjgtMS43MzgtNC4xNTFhLjg3Ljg3LDAsMCwwLS41NzktLjU3OWMtLjU3OS0uMTkzLS45NjUuMS0xLjI1NS42NzYtMi4wMjcsNC43MzEtMy45NTgsOS41NTgtNS45ODYsMTQuMjg5LDAsLjEtLjEuMTkzLS4xLjI5aDEuOTMxYy4xOTMsMCwuMTkzLS4xLjI5LS4xOTMuMzg2LS44NjkuNjc2LTEuODM0LDEuMDYyLTIuN0EzMS4yMzQsMzEuMjM0LDAsMCwxLDEzLjc3OSwxNi44MjFaIi8+PHBhdGggc3R5bGU9ImZpbGw6I2ZmZiIgZD0iTTEzLjc3OSwxNi44MjFjLS4zODYsMS4wNjItLjg2OSwyLjEyNC0xLjI1NSwzLjE4Ni0uMzg2Ljg2OS0uNzcyLDEuODM0LTEuMDYyLDIuN2EuMzU1LjM1NSwwLDAsMS0uMjkuMUg5LjI0MmMwLS4xLjEtLjE5My4xLS4yOSwyLjAyNy00LjczMSwzLjk1OC05LjU1OCw1Ljk4Ni0xNC4yODkuMjktLjU3OS42NzYtLjg2OSwxLjI1NS0uNjc2YS44Ny44NywwLDAsMSwuNTc5LjU3OWMuNTc5LDEuMzUyLDEuMTU5LDIuOCwxLjczOCw0LjE1MWwzLjc2NSw4Ljk3OWEyLjk3OCwyLjk3OCwwLDAsMSwuMS44NjkuOTkuOTksMCwwLDEtMS41NDUuNjc2LDE0LjE5MSwxNC4xOTEsMCwwLDEtMS4yNTUtLjk2NWMtMi4wMjctMS42NDEtNC4wNTUtMy4xODYtNS45ODYtNC44MjdDMTMuODc2LDE2LjgyMSwxMy44NzYsMTYuODIxLDEzLjc3OSwxNi44MjFabTIuNTEtNi4yNzVjLS41NzksMS41NDUtMS4xNTksMi45OTMtMS44MzQsNC40NDEtLjEuMSwwLC4xOTMuMS4yOUMxNiwxNi40MzUsMTcuNDQ4LDE3LjUsMTguOSwxOC42NTZjLjI5LjE5My41NzkuNDgzLjg2OS42NzZoMEMxOC42MDcsMTYuNDM1LDE3LjQ0OCwxMy41MzksMTYuMjksMTAuNTQ2WiIvPjxwYXRoIGQ9Ik0xNi4yOSwxMC41NDZjMS4xNTksMi45OTMsMi40MTQsNS44ODksMy41NzIsOC43ODZoMGMtLjI5LS4xOTMtLjU3OS0uNDgzLS44NjktLjY3Ni0xLjQ0OC0xLjE1OS0yLjktMi4yMjEtNC4zNDQtMy4zNzktLjEtLjEtLjE5My0uMS0uMS0uMjlDMTUuMDM1LDEzLjUzOSwxNS42MTQsMTIuMDkxLDE2LjI5LDEwLjU0NloiLz48L3N2Zz4=" vertex="1" parent="1">
          <mxGeometry x="280" y="445" width="110" height="110" as="geometry" />
        </mxCell>
        <mxCell id="5GPRaHHNxdMrhig5xY4P-16" value="" style="shape=image;verticalLabelPosition=bottom;verticalAlign=top;imageAspect=0;aspect=fixed;image=data:image/svg+xml,PHN2ZyB4bWxucz0iaHR0cDovL3d3dy53My5vcmcvMjAwMC9zdmciIHZpZXdCb3g9IjAgMCA4MCA4MCIgd2lkdGg9IjI1MDAiIGhlaWdodD0iMjUwMCI+PGxpbmVhckdyYWRpZW50IHkyPSIwJSIgeTE9IjEwMCUiIHgxPSIwJSIgaWQ9ImEiPjxzdG9wIHN0b3AtY29sb3I9IiMxYjY2MGYiIG9mZnNldD0iMCIvPjxzdG9wIHN0b3AtY29sb3I9IiM2Y2FlM2UiIG9mZnNldD0iMSIvPjwvbGluZWFyR3JhZGllbnQ+PGcgZmlsbC1ydWxlPSJldmVub2RkIiBmaWxsPSJub25lIj48cGF0aCBmaWxsPSJ1cmwoI2EpIiBkPSJNMCAwaDgwdjgwSDB6Ii8+PHBhdGggZmlsbD0iI2ZmZiIgZD0iTTYwLjgzNiA0Mi44OTNsLjM4NC0yLjcwNGMzLjU0IDIuMTIgMy41ODcgMi45OTcgMy41ODYgMy4wMi0uMDA2LjAwNi0uNjEuNTEtMy45Ny0uMzE2em0tMS45NDMtLjU0QzUyLjc3MyA0MC41IDQ0LjI1IDM2LjU5IDQwLjggMzQuOTZjMC0uMDE0LjAwNC0uMDI3LjAwNC0uMDQxYTIuNDA2IDIuNDA2IDAgMCAwLTIuNDA0LTIuNDAzYy0xLjMyNCAwLTIuNDAyIDEuMDc4LTIuNDAyIDIuNDAzczEuMDc4IDIuNDAzIDIuNDAyIDIuNDAzYy41ODIgMCAxLjExLS4yMTcgMS41MjctLjU2MiA0LjA1OCAxLjkyIDEyLjUxNSA1Ljc3NCAxOC42OCA3LjU5NEw1Ni4xNyA2MS41NmEuOTU1Ljk1NSAwIDAgMC0uMDEuMTRjMCAxLjUxNi02LjcwNyA0LjI5OS0xNy42NjYgNC4yOTktMTEuMDc1IDAtMTcuODUzLTIuNzgzLTE3Ljg1My00LjI5OCAwLS4wNDYtLjAwMy0uMDkxLS4wMS0uMTM2bC01LjA5My0zNy4yMDdjNC40MDkgMy4wMzUgMTMuODkyIDQuNjQgMjIuOTYyIDQuNjQgOS4wNTYgMCAxOC41MjMtMS42IDIyLjk0LTQuNjI1ek0xNSAyMC40NzhDMTUuMDcyIDE5LjE2MiAyMi42MzQgMTQgMzguNSAxNGMxNS44NjQgMCAyMy40MjcgNS4xNiAyMy41IDYuNDc4di40NDlDNjEuMTMgMjMuODc3IDUxLjMzIDI3IDM4LjUgMjdjLTEyLjg1MiAwLTIyLjY1Ny0zLjEzMi0yMy41LTYuMDg3em00OSAuMDIyYzAtMy40NjUtOS45MzQtOC41LTI1LjUtOC41UzEzIDE3LjAzNSAxMyAyMC41bC4wOTQuNzU0IDUuNTQ4IDQwLjUyNEMxOC43NzUgNjYuMzEgMzAuODYgNjggMzguNDk0IDY4YzkuNDcyIDAgMTkuNTM1LTIuMTc4IDE5LjY2NS02LjIybDIuMzk2LTE2Ljg5NmMxLjMzMy4zMTkgMi40My40ODIgMy4zMS40ODIgMS4xODQgMCAxLjk4NC0uMjkgMi40NjktLjg2N2ExLjk1IDEuOTUgMCAwIDAgLjQzNi0xLjY2Yy0uMjYtMS4zODMtMS45MDItMi44NzUtNS4yNDgtNC43ODRsMi4zNzYtMTYuNzYyeiIvPjwvZz48L3N2Zz4=" vertex="1" parent="1">
          <mxGeometry x="285" y="220" width="50" height="50" as="geometry" />
        </mxCell>
        <mxCell id="5GPRaHHNxdMrhig5xY4P-20" value="" style="shape=image;verticalLabelPosition=bottom;verticalAlign=top;imageAspect=0;aspect=fixed;image=data:image/svg+xml,PHN2ZyB4bWxuczp4bGluaz0iaHR0cDovL3d3dy53My5vcmcvMTk5OS94bGluayIgeG1sbnM9Imh0dHA6Ly93d3cudzMub3JnLzIwMDAvc3ZnIiB2ZXJzaW9uPSIxLjEiIHZpZXdCb3g9IjAgMCAyMCAyMCIgaGVpZ2h0PSI4MDBweCIgd2lkdGg9IjgwMHB4Ij4mI3hhOyAgICAmI3hhOyAgICA8dGl0bGU+Z2l0aHViIFsjMTQyXTwvdGl0bGU+JiN4YTsgICAgPGRlc2M+Q3JlYXRlZCB3aXRoIFNrZXRjaC48L2Rlc2M+JiN4YTsgICAgPGRlZnM+JiN4YTsmI3hhOzwvZGVmcz4mI3hhOyAgICA8ZyBmaWxsLXJ1bGU9ImV2ZW5vZGQiIGZpbGw9Im5vbmUiIHN0cm9rZS13aWR0aD0iMSIgc3Ryb2tlPSJub25lIiBpZD0iUGFnZS0xIj4mI3hhOyAgICAgICAgPGcgZmlsbD0iIzAwMDAwMCIgdHJhbnNmb3JtPSJ0cmFuc2xhdGUoLTE0MC4wMDAwMDAsIC03NTU5LjAwMDAwMCkiIGlkPSJEcmliYmJsZS1MaWdodC1QcmV2aWV3Ij4mI3hhOyAgICAgICAgICAgIDxnIHRyYW5zZm9ybT0idHJhbnNsYXRlKDU2LjAwMDAwMCwgMTYwLjAwMDAwMCkiIGlkPSJpY29ucyI+JiN4YTsgICAgICAgICAgICAgICAgPHBhdGggaWQ9ImdpdGh1Yi1bIzE0Ml0iIGQ9Ik05NCw3Mzk5IEM5OS41MjMsNzM5OSAxMDQsNzQwMy41OSAxMDQsNzQwOS4yNTMgQzEwNCw3NDEzLjc4MiAxMDEuMTM4LDc0MTcuNjI0IDk3LjE2Nyw3NDE4Ljk4MSBDOTYuNjYsNzQxOS4wODIgOTYuNDgsNzQxOC43NjIgOTYuNDgsNzQxOC40ODkgQzk2LjQ4LDc0MTguMTUxIDk2LjQ5Miw3NDE3LjA0NyA5Ni40OTIsNzQxNS42NzUgQzk2LjQ5Miw3NDE0LjcxOSA5Ni4xNzIsNzQxNC4wOTUgOTUuODEzLDc0MTMuNzc3IEM5OC4wNCw3NDEzLjUyMyAxMDAuMzgsNzQxMi42NTYgMTAwLjM4LDc0MDguNzE4IEMxMDAuMzgsNzQwNy41OTggOTkuOTkyLDc0MDYuNjg0IDk5LjM1LDc0MDUuOTY2IEM5OS40NTQsNzQwNS43MDcgOTkuNzk3LDc0MDQuNjY0IDk5LjI1Miw3NDAzLjI1MiBDOTkuMjUyLDc0MDMuMjUyIDk4LjQxNCw3NDAyLjk3NyA5Ni41MDUsNzQwNC4zMDMgQzk1LjcwNiw3NDA0LjA3NiA5NC44NSw3NDAzLjk2MiA5NCw3NDAzLjk1OCBDOTMuMTUsNzQwMy45NjIgOTIuMjk1LDc0MDQuMDc2IDkxLjQ5Nyw3NDA0LjMwMyBDODkuNTg2LDc0MDIuOTc3IDg4Ljc0Niw3NDAzLjI1MiA4OC43NDYsNzQwMy4yNTIgQzg4LjIwMyw3NDA0LjY2NCA4OC41NDYsNzQwNS43MDcgODguNjQ5LDc0MDUuOTY2IEM4OC4wMSw3NDA2LjY4NCA4Ny42MTksNzQwNy41OTggODcuNjE5LDc0MDguNzE4IEM4Ny42MTksNzQxMi42NDYgODkuOTU0LDc0MTMuNTI2IDkyLjE3NSw3NDEzLjc4NSBDOTEuODg5LDc0MTQuMDQxIDkxLjYzLDc0MTQuNDkzIDkxLjU0LDc0MTUuMTU2IEM5MC45Nyw3NDE1LjQxOCA4OS41MjIsNzQxNS44NzEgODguNjMsNzQxNC4zMDQgQzg4LjYzLDc0MTQuMzA0IDg4LjEwMSw3NDEzLjMxOSA4Ny4wOTcsNzQxMy4yNDcgQzg3LjA5Nyw3NDEzLjI0NyA4Ni4xMjIsNzQxMy4yMzQgODcuMDI5LDc0MTMuODcgQzg3LjAyOSw3NDEzLjg3IDg3LjY4NCw3NDE0LjE4NSA4OC4xMzksNzQxNS4zNyBDODguMTM5LDc0MTUuMzcgODguNzI2LDc0MTcuMiA5MS41MDgsNzQxNi41OCBDOTEuNTEzLDc0MTcuNDM3IDkxLjUyMiw3NDE4LjI0NSA5MS41MjIsNzQxOC40ODkgQzkxLjUyMiw3NDE4Ljc2IDkxLjMzOCw3NDE5LjA3NyA5MC44MzksNzQxOC45ODIgQzg2Ljg2NSw3NDE3LjYyNyA4NCw3NDEzLjc4MyA4NCw3NDA5LjI1MyBDODQsNzQwMy41OSA4OC40NzgsNzM5OSA5NCw3Mzk5Ij4mI3hhOyYjeGE7PC9wYXRoPiYjeGE7ICAgICAgICAgICAgPC9nPiYjeGE7ICAgICAgICA8L2c+JiN4YTsgICAgPC9nPiYjeGE7PC9zdmc+" vertex="1" parent="1">
          <mxGeometry x="110" y="700" width="100" height="100" as="geometry" />
        </mxCell>
        <mxCell id="5GPRaHHNxdMrhig5xY4P-22" value="" style="shape=image;verticalLabelPosition=bottom;verticalAlign=top;imageAspect=0;aspect=fixed;image=data:image/svg+xml,PHN2ZyB4bWxuczp4bGluaz0iaHR0cDovL3d3dy53My5vcmcvMTk5OS94bGluayIgeG1sbnM9Imh0dHA6Ly93d3cudzMub3JnLzIwMDAvc3ZnIiB4bWw6c3BhY2U9InByZXNlcnZlIiBzdHlsZT0iZW5hYmxlLWJhY2tncm91bmQ6bmV3IDAgMCAzNzQxLjYgMjg5OC4yOyIgdmlld0JveD0iMCAwIDM3NDEuNiAyODk4LjIiIHk9IjBweCIgeD0iMHB4IiBpZD0ia2F0bWFuXzEiIHZlcnNpb249IjEuMSI+JiN4YTs8c3R5bGUgdHlwZT0idGV4dC9jc3MiPiYjeGE7CS5zdDB7ZmlsbDojOTk1QjgwO30mI3hhOwkuc3Qxe2ZpbGw6IzdCM0Y2NTt9JiN4YTsJLnN0MntmaWxsOiNDMTdCOUQ7fSYjeGE7PC9zdHlsZT4mI3hhOzxwYXRoIGQ9Ik0xNTg3LjUsMjQ1Ni4xbC0yNTcuMS03Mi4xbC0yNDMuMi0yNzcuM2wzMDQuMi04LjRMMTU4Ny41LDI0NTYuMSBNOTkzLDIyNzMuM2wtMTQ0LjctNDAuNWwtMTM2LjctMTU2JiMxMDsmIzk7bDE2Ni4xLTI3LjNMOTkzLDIyNzMuMyIgY2xhc3M9InN0MCIvPiYjeGE7PHBhdGggZD0iTTYyNS44LDIwNTcuMmwxNDcuOSwzMC4xbDIxLjUtMzcuOFY3NjguM2wtMjEuNS0yNC45bC0xNDcuOSw4NC4yVjIwNTcuMiIgY2xhc3M9InN0MSIvPiYjeGE7PHBhdGggZD0iTTEzNDQuOSw4NzcuM0w3NzMuNyw3NDMuNHYxMzQzLjlsODUuNi04bDEzMy43LDE5NGwxMDMuMS0yMTZsMjQ4LjgtMjMuMVY4NzcuMyIgY2xhc3M9InN0MiIvPiYjeGE7PHBhdGggZD0iTTk1Ni4xLDIxMjYuNGwyNTMuNSw1MS4xbDE2LjctMzkuM1Y1NjMuNGwtMTYuNy0zNS42TDk1Ni4xLDY1Ni4yVjIxMjYuNCIgY2xhc3M9InN0MSIvPiYjeGE7PHBhdGggZD0iTTI2NTYsOTkyLjFMMTIwOS42LDUyNy44djE2NDkuN2wxNjcuNS0yMS42bDIxMC40LDMwMC4ybDE2Ni42LTM0OC43bDkwMi0xMTYuMUwyNjU2LDk5Mi4xIiBjbGFzcz0ic3QyIi8+JiN4YTs8cGF0aCBkPSJNMjM5NC40LDI2OTRMMjAyOSwyNTkxLjdsLTM0NS40LTM5My45bDQ0Ny43LTQuNkwyMzk0LjQsMjY5NCIgY2xhc3M9InN0MCIvPiYjeGE7PHBhdGggZD0iTTE0OTcuMiwyMjMxLjZsMzcyLjgsNzIuMWwyOS0yNVYyMzkuM2wtMjktNDBsLTM3Mi44LDE4Ni4zTDE0OTcuMiwyMjMxLjYiIGNsYXNzPSJzdDEiLz4mI3hhOzxwYXRoIGQ9Ik0zMTE1LjgsODIyLjFMMTg3MCwxOTkuMnYyMTA0LjVsMjE5LjgtNDRsMzA0LjUsNDM0LjNsMjYxLjctNTQ3LjdsLTAuMiwwbDQ1OS45LTkyLjFWODIyLjEiIGNsYXNzPSJzdDIiLz4mI3hhOzwvc3ZnPg==" vertex="1" parent="1">
          <mxGeometry x="1054.3200000000002" y="270" width="90.32" height="70" as="geometry" />
        </mxCell>
        <mxCell id="5GPRaHHNxdMrhig5xY4P-23" value="" style="shape=image;verticalLabelPosition=bottom;verticalAlign=top;imageAspect=0;aspect=fixed;image=data:image/svg+xml,PHN2ZyB4bWxuczp4bGluaz0iaHR0cDovL3d3dy53My5vcmcvMTk5OS94bGluayIgeG1sbnM9Imh0dHA6Ly93d3cudzMub3JnLzIwMDAvc3ZnIiBwcmVzZXJ2ZUFzcGVjdFJhdGlvPSJ4TWlkWU1pZCIgdmVyc2lvbj0iMS4xIiB2aWV3Qm94PSIwIC05LjUgMjU2IDI1NiIgaGVpZ2h0PSI4MDBweCIgd2lkdGg9IjgwMHB4Ij4mI3hhOwk8Zz4mI3hhOwkJPHBhdGggZmlsbD0iI0RBMjQzMCIgZD0iTTc0LjgzOTI2ODEsMTA2Ljg5MjkyNiBMMzMuOTcxNDE0NywxMjEuNzYzMzE0IEMzNC40OTU4MzM2LDEyOC4zMTUzNzYgMzUuNjIzMzk3OCwxMzQuNzg3NDQyIDM3LjIxMTg5MiwxNDEuMTI4NzIxIEw3Ni4wMjkwNTE2LDEyNi45OTIyNjUgQzc0Ljc4NDY2NzcsMTIwLjQ0MDIwMyA3NC4zNDAyNDQ4LDExMy42NzIyNzggNzQuODQ4MTU2NiwxMDYuODkxNjU2Ij4mI3hhOyYjeGE7PC9wYXRoPiYjeGE7CQk8cGF0aCBmaWxsPSIjREEyNDMwIiBkPSJNMjU1LjQ0NDA3MSw2MS43MDIzNjE4IEMyNTIuNTkzNDE2LDU1LjgyMzI4MjcgMjQ5LjI5NzA2OCw1MC4xNDEwMTk0IDI0NS40Nzc1NzIsNDQuNzg2MzU5MSBMMjA0LjYyMTE0Niw1OS42NTY3NDcgQzIwOS4zNzY0Nyw2NC41MjAwMDI1IDIxMy4zNjM1NzgsNjkuOTg2NDAzMyAyMTYuNjI4MTgxLDc1LjgzMjQ2ODEgTDI1NS40NDUzNDEsNjEuNjk5ODIyMiBMMjU1LjQ0NDA3MSw2MS43MDIzNjE4IEwyNTUuNDQ0MDcxLDYxLjcwMjM2MTggWiI+JiN4YTsmI3hhOzwvcGF0aD4mI3hhOwkJPGc+JiN4YTsJCQk8cGF0aCBmaWxsPSIjREEyNDMwIiBkPSJNMTgyLjk1MDI3NSw2MS40NjE0NDEzIEMxNzcuODA5Njk1LDU3LjAwMDU3OTIgMTcyLjAwNDAzMiw1My4xNTEwNjYyIDE2NS41NDE2NSw1MC4xMzY1NzUyIEwxNjUuNTM5MTEsNTAuMTM2NTc1MiBDMTI3LjU5ODA5OSwzMi40NDg1NDY2IDgyLjMzMDQ1OTQsNDguOTA0ODg5IDY0LjY0MjQzMDgsODYuODU4NTk4NSBDNjMuNjQ1NDkwMSw4OS4wMDAxNTEzIDYyLjc2MjU2MTEsOTEuMTY0NzE1NSA2MS45ODg2MDA2LDkzLjM0NjIxNTEgQzU5Ljc4MDkxNjQsOTkuNzY5MjY1NyA1OC40OTEyOTM2LDEwNi4zMzYwOSA1Ny45OTc4NTMzLDExMi44OTI0MSBMNTcuODUzOTI5NSwxMTIuOTQ1NiBDNTcuODUwMTYzMywxMTIuOTkzNjM1IDU3Ljg0NjQ0MDYsMTEzLjA0MTY3IDU3Ljg0Mjc2MTYsMTEzLjA4OTcwNCBMMzMuMjQ3MjIxNSwxMjIuMDM5NTEyIEwxNy40MjA3MzY2LDEyNy44ODg1MTMgQzE3LjQxODQ2MiwxMjcuODU5MzE0IDE3LjQxNjE5OCwxMjcuODMwMTE1IDE3LjQxMzk0NDcsMTI3LjgwMDkxNCBMMTYuOTc5OTg3MywxMjcuOTU4ODIyIEMxNS40NDM1NTQsMTA4LjUyMzU3NyAxOC43MTk1ODUxLDg4LjQ0NzA5MjcgMjcuNTMzMTI0Nyw2OS41NDc2OTQ0IEMyOC42ODcwMTM1LDY3LjA3MjQ4NDYgMjkuOTE3MTkyNCw2NC42NTY2MjA1IDMxLjIxOTU2ODYsNjIuMzAxNTkyMSBDNjAuMjczODE2MSw4LjE4NTY2MTYgMTI2LjM4MzU2OCwtMTQuNDM0MTYxMyAxODIuMTM4MzE3LDExLjk3MjUzNDIgQzE5My42NzgwMzcsMTcuNDQwNDgyNCAyMDMuOTExMDQ3LDI0LjYwOTQzNTcgMjEyLjY5NDUzNiwzMy4wNDU1MTEgQzIxOC42MDQwMSwzOC41MTIxMjE0IDIyMy44Nzg0MDUsNDQuNTMzNDk2OSAyMjguNDc1NzMxLDUwLjk4NjA1NzYgTDE4Ny42MTY3NjcsNjUuODU4OTg1IEMxODcuNDA2NTA5LDY1LjY0NDA4MjcgMTg3LjE5NDkyNSw2NS40MzAyNTM1IDE4Ni45ODIwMTgsNjUuMjE3NTE3MiBMMTg2Ljg2ODkwNiw2NS4yNTkzMzQ4IEMxODUuNjEwNDI2LDYzLjk1MjM2MDIgMTg0LjMwNDE2LDYyLjY4NDk3NzEgMTgyLjk1MDI3NSw2MS40NjE0NDEzIFoiPiYjeGE7JiN4YTs8L3BhdGg+JiN4YTsJCQk8cGF0aCBmaWxsPSIjRTgyNDI5IiBkPSJNMTkuMjYxMzIxNywxOTMuODk2NDc3IEwxOS4xOTY4OTUyLDE5My45MTk5MyBDMTAuNjk1NzIxNCwxODEuOTQ5NzE5IDQuNTA4MDg1OTEsMTY4LjUwMTQ4NSAwLjkzODczNTcxNCwxNTQuMzQ3MjUzIEwzOS43NjM1MTM5LDE0MC4yMDY5ODggTDM5Ljc2NjA1MzUsMTQwLjIwOTUyOCBDMzkuNzc0MDUxNCwxNDAuMjUxMzA2IDM5Ljc4MjA4MzgsMTQwLjI5MzA3NyAzOS43OTAxNTA4LDE0MC4zMzQ4NDEgTDQwLjA0MjI2LDE0MC4yNDE2MDEgTDQwLjA0ODEwMjYsMTQwLjI1NzE4MSBDNDIuMDQyMjY2MiwxNTAuODE3ODIyIDQ2LjE5MzM2MzYsMTYwLjg5MjM5NCA1Mi4yNDU4MjQ1LDE2OS43NTA2OTUgQzU0LjU1MzUzMzMsMTczLjA0MzkxMiA1Ny4xMzIxNDEzLDE3Ni4xNjU2NTMgNTkuOTY4MjQ1NSwxNzkuMDc3NDc4IEw1OS44MTQwNTM1LDE3OS4xMzM2MTEgQzU5LjkxMTY2NjMsMTc5LjIzNjU5OCA2MC4wMDk1OTAxLDE3OS4zMzkzMyA2MC4xMDc4MjQzLDE3OS40NDE4MDMgTDE5LjYyMDI5NDgsMTk0LjQxMjU4NyBDMTkuNTAwMTcxLDE5NC4yNDA4NTEgMTkuMzgwNTEzLDE5NC4wNjg4MTMgMTkuMjYxMzIxNywxOTMuODk2NDc3IFoiPiYjeGE7JiN4YTs8L3BhdGg+JiN4YTsJCQk8cGF0aCBmaWxsPSIjREEyNDMwIiBkPSJNMTczLjQ2NTQ4NiwxODMuNDQ2ODU4IEMxNTIuNDEzOTM0LDE5Ni40NjQyOSAxMjUuNDEyMzg3LDE5OC45NzkyNTIgMTAxLjM1MTg4MywxODcuNzU4OTYxIEM5Mi44NDA1NTEzLDE4My43ODk2MyA4NS40MjUwMzksMTc4LjQyMTAwMiA3OS4yMzM1OTQxLDE3Mi4wNjQ0ODYgTDM4LjQ2MjI0MzksMTg2LjkwODIwOCBDMzguNTY1OTkwOCwxODcuMDU0MTE3IDM4LjY3MDA4NDUsMTg3LjE5OTgwNSAzOC43NzQ1MjQ1LDE4Ny4zNDUyNzIgTDM4Ljc1NDM0OCwxODcuMzUyNzMzIEM0OS45NjQ0MjE1LDIwMy4zNjkzNSA2NS4yNTY1NTEyLDIxNi43NTY3OCA4NC4wMjExNTQ5LDIyNS42NTEyMjIgQzEyNC40OTA0NTUsMjQ0LjgxNDM4MiAxNzAuNDA3OTI3LDIzOC4xNTIyOTggMjAzLjY1NTQ3NiwyMTIuMzY2OCBDMjE4LjU0MzQ4NiwyMDEuMjE1Mjk0IDIzMC45NzE5OTUsMTg2LjM1MTM2MSAyMzkuMzY4MDI3LDE2OC4zNDc4NDEgQzI0OC4xODY2NDYsMTQ5LjQ1MjI1MiAyNTEuNDQzNjMxLDEyOS4zODMzODcgMjQ5Ljg4MzA3MiwxMDkuOTYzMzc5IEwyNDguNzQ3NDY0LDExMC4zNzY1ODUgQzI0OC43MzIxMSwxMTAuMTY4NTc0IDI0OC43MTYyMTcsMTA5Ljk2MDYzNiAyNDguNjk5Nzg1LDEwOS43NTI3NzEgTDIwOC4yMTAzMDgsMTI0LjcwOTkyMyBMMjA4LjIxMjI1NSwxMjQuNzEzODE4IEMyMDcuNTY3NjE4LDEzMy42Mzc0NzMgMjA1LjM0OTM2MywxNDIuNTkwMzQxIDIwMS40MDU1ODMsMTUxLjE3MzE3NiBDMTk1LjA5MTE5OSwxNjQuOTI2NTM5IDE4NS4yNDIwMTIsMTc1Ljg4MjEzNSAxNzMuNDY1NDg2LDE4My40NDY4NTggWiI+JiN4YTsmI3hhOzwvcGF0aD4mI3hhOwkJCTxwYXRoIGZpbGw9IiNFODI0MjkiIGQ9Ik0yMTguNTUyMzc5LDc1LjEyOTE5MTIgTDIxOS4xNTk0ODYsNzQuOTA4MTk1NyBMMjE5LjE1OTQ4Niw3NC45MDY5MjU5IEMyMjUuNTQ2NDc3LDg4LjA0OTE0MzggMjI5LjQ0NDcwMSwxMDIuMzM0MTYzIDIzMC42MTI4OTcsMTE2Ljk2MjAyMyBMMTg5Ljg0MDI3NywxMzEuNzk1NTg3IEMxODkuODQ3ODE2LDEzMS42OTQ0MjkgMTg5Ljg1NTE0OSwxMzEuNTkzMjc0IDE4OS44NjIyNzQsMTMxLjQ5MjEyMyBMMTg5LjA5MTI1MSwxMzEuNzc2OTgzIEMxOTAuMjAxMzUyLDExNi42ODkzNDUgMTg2LjgxNjUxNywxMDEuNjgzNTA1IDE3OS42NTczMzksODguNjU0NDIzNCBMMjE4LjIwNTExMyw3NC40MDQyMzA4IEwyMTguMjA3MDYsNzQuNDAwMzM1OCBDMjE4LjMyMjk5LDc0LjY0Mjg5NzIgMjE4LjQzODA5Nyw3NC44ODU4NTA3IDIxOC41NTIzNzksNzUuMTI5MTkxMiBaIj4mI3hhOyYjeGE7PC9wYXRoPiYjeGE7CQk8L2c+JiN4YTsJCTxwYXRoIGZpbGw9IiNDMjIwMzUiIGQ9Ik03NC44OTA2NzA3LDEwNi42NTQwMzEgTDM0LjMwOTY1OSwxMjEuNjUwMTMzIEMzNC44Mjk2NTM3LDEyOC4yNjAxMDQgMzUuOTQ5NDkyNSwxMzQuNzg2MzMxIDM3LjUyODk1MjIsMTQxLjE4MjA3MSBMNzYuMDc0Nzc4NiwxMjYuOTI0MDg4IEM3NC44MjgzNDkzLDEyMC4zMDI0MzIgNzQuMzgwNDEzNywxMTMuNDg2MDIyIDc0LjkwNjI1MTEsMTA2LjY1MDEzNiI+JiN4YTsmI3hhOzwvcGF0aD4mI3hhOwkJPHBhdGggZmlsbD0iI0MyMjAzNSIgZD0iTTI1NC4yMjY5Miw2MS4wODI4MjI4IEMyNTEuMzk3MTM2LDU1LjE1NDQ5MzQgMjQ4LjEyMTM2NCw0OS40MjQ4MTM3IDI0NC4zMjk0OTIsNDQuMDI0MjY5MSBMMjAzLjc1ODIxOCw1OS4wMjAzNzE4IEMyMDguNDc5MDY5LDYzLjkyNjIzOTcgMjEyLjQzODQzLDY5LjQzNzc5NDIgMjE1LjY3OTE0Niw3NS4zMzQ5NjMgTDI1NC4yMjEwNzcsNjEuMDc4OTI3NyBMMjU0LjIyNjkyLDYxLjA4MjgyMjggTDI1NC4yMjY5Miw2MS4wODI4MjI4IFoiPiYjeGE7JiN4YTs8L3BhdGg+JiN4YTsJCTxwYXRoIGZpbGw9IiNBQzIyM0IiIGQ9Ik0zNC4zMDg0OTA0LDEyMS42NTI2NjUgTDc0Ljc5MDE3NzQsMTA2LjgyNDA1MiBMNzQuNjI0NjM2LDExNC45NTcwMDMgTDM1LjU2ODU1MjYsMTI5LjcwNTc2NyBMMzQuMzAyNjQ3OCwxMjEuNjQyOTI4IEwzNC4zMDg0OTA0LDEyMS42NTI2NjUgTDM0LjMwODQ5MDQsMTIxLjY1MjY2NSBaIj4mI3hhOyYjeGE7PC9wYXRoPiYjeGE7CQk8cGF0aCBmaWxsPSIjQUMyMjNCIiBkPSJNMjAzLjc2NjAwOSw1OC44OTc0ODE3IEwyNDQuODc4Nyw0NC43ODk0NTk5IEwyNDkuMTUxNjE1LDUxLjIzNzc4NDEgTDIwOS4yMDU1MDQsNjUuMzU5NDM4NiBMMjAzLjc3MTg1MSw1OC44OTM1ODY2IEwyMDMuNzY2MDA5LDU4Ljg5NzQ4MTcgTDIwMy43NjYwMDksNTguODk3NDgxNyBaIj4mI3hhOyYjeGE7PC9wYXRoPiYjeGE7CQk8cGF0aCBmaWxsPSIjQjkyMTM1IiBkPSJNMzguNzYzODkwOSwxODcuMjAxMDIgTDc5LjI5NDI2NjUsMTcyLjQ1MjI1NiBMOTEuNTUyMTE5OCwxODQuMDE2NzgyIEw0OS4wNDg4ODAzLDE5OS45NzMwMjUgTDM4Ljc2NTgzODUsMTg3LjE5NzEyNSBMMzguNzYzODkwOSwxODcuMjAxMDIgTDM4Ljc2Mzg5MDksMTg3LjIwMTAyIFoiPiYjeGE7JiN4YTs8L3BhdGg+JiN4YTsJCTxwYXRoIGZpbGw9IiNCOTIxMzUiIGQ9Ik0yNDkuMzgwNjQ3LDEwOS44NjE2MzkgTDIwOC4yMTUzNzEsMTI0LjcwNTgzMyBMMjA1LjE4MzA0MywxNDEuMTg0MDE4IEwyNDkuMDc0ODgyLDEyNS41NDEzMyBMMjQ5LjM4NjQ5LDEwOS44NjM1ODcgTDI0OS4zODA2NDcsMTA5Ljg2MTYzOSBMMjQ5LjM4MDY0NywxMDkuODYxNjM5IFoiPiYjeGE7JiN4YTs8L3BhdGg+JiN4YTsJPC9nPiYjeGE7PC9zdmc+" vertex="1" parent="1">
          <mxGeometry x="880" y="610" width="110" height="110" as="geometry" />
        </mxCell>
        <mxCell id="5GPRaHHNxdMrhig5xY4P-25" value="" style="shape=image;verticalLabelPosition=bottom;verticalAlign=top;imageAspect=0;aspect=fixed;image=data:image/svg+xml,PHN2ZyB4bWxucz0iaHR0cDovL3d3dy53My5vcmcvMjAwMC9zdmciIGZpbGw9Im5vbmUiIHZpZXdCb3g9IjAgMCAxNiAxNiIgaGVpZ2h0PSI4MDBweCIgd2lkdGg9IjgwMHB4Ij48cGF0aCBkPSJNMTIuMzQyIDQuNTM2bC4xNS0uMjI3LjI2Mi4xNTkuMTE2LjA4M2MuMjguMjE2Ljg2OS43NjguOTk2IDEuNjg0LjIyMy0uMDQuNDQ4LS4wNi42NzMtLjA2LjUzNCAwIC44OTMuMTI0IDEuMDk3LjIyN2wuMTA1LjA1Ny4wNjguMDQ1LjE5MS4xNTYtLjA2Ni4yYTIuMDQ0IDIuMDQ0IDAgMDEtLjQ3LjczYy0uMjkuMjk5LS44LjY1Mi0xLjYwOS42OThsLS4xNzguMDA1aC0uMTQ4Yy0uMzcuOTc3LS44NjcgMi4wNzgtMS43MDIgMy4wNjZhNy4wODEgNy4wODEgMCAwMS0xLjc0IDEuNDg4IDcuOTQxIDcuOTQxIDAgMDEtMi41NDkuOTY4Yy0uNjQ0LjEyNS0xLjI5OC4xODctMS45NTMuMTg1LTEuNDUgMC0yLjczLS4yODgtMy41MTctLjc5Mi0uNzAzLS40NDktMS4yNDMtMS4xODItMS42MDYtMi4xNzdhOC4yNSA4LjI1IDAgMDEtLjQ2MS0yLjgzLjUxNi41MTYgMCAwMS40MzItLjUxNmwuMDY4LS4wMDVoMTAuNTRsLjA5Mi0uMDA3LjE0OS0uMDE2Yy4yNTYtLjAzNC42NDYtLjExLjkyLS4yNy0uMzI4LS41NDMtLjQyMS0xLjE3OC0uMjY4LTEuODU0YTMuMyAzLjMgMCAwMS4zLS44MWwuMTA4LS4xODd6TTIuODkgNS43ODRsLjA0LjAwN2EuMTI3LjEyNyAwIDAxLjA3Ny4wODJsLjAwNi4wNHYxLjMxNWwtLjAwNi4wNDFhLjEyNy4xMjcgMCAwMS0uMDc4LjA4MmwtLjAzOS4wMDZIMS40NzhhLjEyNC4xMjQgMCAwMS0uMTE3LS4wODhsLS4wMDctLjA0VjUuOTEybC4wMDctLjA0YS4xMjcuMTI3IDAgMDEuMDc4LS4wODNsLjAzOS0uMDA2SDIuODl6bTEuOTQ3IDBsLjAzOS4wMDdhLjEyNy4xMjcgMCAwMS4wNzguMDgybC4wMDYuMDR2MS4zMTVsLS4wMDcuMDQxYS4xMjcuMTI3IDAgMDEtLjA3OC4wODJsLS4wMzkuMDA2SDMuNDI0YS4xMjUuMTI1IDAgMDEtLjExNy0uMDg4TDMuMyA3LjIzVjUuOTEzYS4xMy4xMyAwIDAxLjA4NS0uMTIzbC4wMzktLjAwN2gxLjQxM3ptMS45NzYgMGwuMDM5LjAwN2EuMTI3LjEyNyAwIDAxLjA3Ny4wODJsLjAwNy4wNHYxLjMxNWwtLjAwNy4wNDFhLjEyNy4xMjcgMCAwMS0uMDc4LjA4MmwtLjAzOS4wMDZINS40YS4xMjQuMTI0IDAgMDEtLjExNy0uMDg4bC0uMDA2LS4wNFY1LjkxMmwuMDA2LS4wNGEuMTI3LjEyNyAwIDAxLjA3OC0uMDgzbC4wMzktLjAwNmgxLjQxM3ptMS45NTIgMGwuMDM5LjAwN2EuMTI3LjEyNyAwIDAxLjA3OC4wODJsLjAwNy4wNHYxLjMxNWEuMTMuMTMgMCAwMS0uMDg1LjEyM2wtLjA0LjAwNkg3LjM1M2EuMTI0LjEyNCAwIDAxLS4xMTctLjA4OGwtLjAwNi0uMDRWNS45MTJsLjAwNi0uMDRhLjEyNy4xMjcgMCAwMS4wNzgtLjA4M2wuMDQtLjAwNmgxLjQxMnptMS45NyAwbC4wMzkuMDA3YS4xMjcuMTI3IDAgMDEuMDc4LjA4MmwuMDA2LjA0djEuMzE1YS4xMy4xMyAwIDAxLS4wODUuMTIzbC0uMDM5LjAwNkg5LjMyMmEuMTI0LjEyNCAwIDAxLS4xMTctLjA4OGwtLjAwNi0uMDRWNS45MTJsLjAwNi0uMDRhLjEyNy4xMjcgMCAwMS4wNzgtLjA4M2wuMDQtLjAwNmgxLjQxMXpNNC44MzUgMy44OTJsLjA0LjAwN2EuMTI3LjEyNyAwIDAxLjA3Ny4wODFsLjAwNy4wNDF2MS4zMTVhLjEzLjEzIDAgMDEtLjA4NS4xMjNsLS4wMzkuMDA3SDMuNDI0YS4xMjUuMTI1IDAgMDEtLjExNy0uMDlsLS4wMDctLjA0VjQuMDIxYS4xMy4xMyAwIDAxLjA4NS0uMTIybC4wMzktLjAwN2gxLjQxMnptMS45NzYgMGwuMDQuMDA3YS4xMjcuMTI3IDAgMDEuMDc3LjA4MWwuMDA3LjA0MXYxLjMxNWEuMTMuMTMgMCAwMS0uMDg1LjEyM2wtLjAzOS4wMDdINS40YS4xMjUuMTI1IDAgMDEtLjExNy0uMDlsLS4wMDYtLjA0VjQuMDIxbC4wMDYtLjA0YS4xMjcuMTI3IDAgMDEuMDc4LS4wODJsLjAzOS0uMDA3aDEuNDEyem0xLjk1MyAwYy4wNTQgMCAuMS4wMzcuMTE3LjA4OGwuMDA3LjA0MXYxLjMxNWEuMTMuMTMgMCAwMS0uMDg1LjEyM2wtLjA0LjAwN0g3LjM1M2EuMTI1LjEyNSAwIDAxLS4xMTctLjA5bC0uMDA2LS4wNFY0LjAyMWwuMDA2LS4wNGEuMTI3LjEyNyAwIDAxLjA3OC0uMDgybC4wNC0uMDA3aDEuNDEyem0wLTEuODkyYy4wNTQgMCAuMS4wMzcuMTE3LjA4OGwuMDA3LjA0djEuMzE2YS4xMy4xMyAwIDAxLS4wODUuMTIzbC0uMDQuMDA2SDcuMzUzYS4xMjQuMTI0IDAgMDEtLjExNy0uMDg4bC0uMDA2LS4wNFYyLjEyOGwuMDA2LS4wNGEuMTI3LjEyNyAwIDAxLjA3OC0uMDgyTDcuMzUzIDJoMS40MTJ6IiBmaWxsPSIjMjM5NkVEIi8+PC9zdmc+" vertex="1" parent="1">
          <mxGeometry x="680" y="710" width="110" height="110" as="geometry" />
        </mxCell>
        <mxCell id="5GPRaHHNxdMrhig5xY4P-28" value="" style="shape=image;verticalLabelPosition=bottom;verticalAlign=top;imageAspect=0;aspect=fixed;image=data:image/svg+xml,PHN2ZyB4bWxucz0iaHR0cDovL3d3dy53My5vcmcvMjAwMC9zdmciIHZpZXdCb3g9IjAgMCAzMiAzMiIgaGVpZ2h0PSI4MDBweCIgd2lkdGg9IjgwMHB4Ij48dGl0bGU+ZmlsZV90eXBlX2plbmtpbnM8L3RpdGxlPjxwYXRoIHN0eWxlPSJmaWxsOm5vbmUiIGQ9Ik0xOS41MTMsMjUuMTczYy0uMDY4LDAtLjEzNiwwLS4yLS4wMUMxOS4zNzgsMjUuMTY5LDE5LjQ0NSwyNS4xNzMsMTkuNTEzLDI1LjE3M1oiLz48cGF0aCBzdHlsZT0iZmlsbDpub25lIiBkPSJNMTguOTE5LDI1LjA4N2ExLjkzLDEuOTMsMCwwLDAsLjM5Mi4wNzZBMS45MywxLjkzLDAsMCwxLDE4LjkxOSwyNS4wODdaIi8+PHBhdGggc3R5bGU9ImZpbGw6bm9uZSIgZD0iTTIwLjA5MSwyNy41MTFjLS4wMjEtLjEyMS0uMDQzLS4yMjEtLjA2NC0uMzFoMGMuMDIxLjA4OS4wNDMuMTg5LjA2NC4zMVoiLz48cGF0aCBzdHlsZT0iZmlsbDojZjBkNmI3IiBkPSJNNy40MzYsMTQuMjE0QS44MzIuODMyLDAsMCwxLDcuNiwxNC4xLjU4MS41ODEsMCwwLDAsNy40MzYsMTQuMjE0WiIvPjxwYXRoIHN0eWxlPSJmaWxsOiNmMGQ2YjciIGQ9Ik0xMC40MTIsMTguMjUzYy4wNi40MjEuMjQsNC4xNjQsMi43NjYsNi4yNWExNS40NjUsMTUuNDY1LDAsMCwwLDEuNTQ5LjE2MmMuMjgtLjYsMS4zMTItLjU1NCwxLjk4NS0uNGE2LjY0OCw2LjY0OCwwLDAsMS0yLjE3Ni0xLjc3OCw0LjQ2Niw0LjQ2NiwwLDAsMS0xLjQ3Mi0yLjY1NmMxLjM0OCwxLjg3LDIuNDYyLDMuNSw0LjkxMyw0LjMyNiwxLjg1NS42MjIsNC4wMjEtLjI4NSw1LjQ0Ni0xLjI4NmE2LjI1OCw2LjI1OCwwLDAsMCwxLjM2NS0xLjY4LDE0LjI0MiwxNC4yNDIsMCwwLDAsMi4xNDUtOC42MjEsOS41NjcsOS41NjcsMCwwLDAtLjUtMy40NDZjLS40NTMtLjkwOC0xLjk4NC0xLjcyLTIuODgtLjlhMS4wNywxLjA3LDAsMCwxLS4wMTYtLjI0NmMtLjE0My4xMzQtLjIzLjIzMi0uMjMuMjMyYTEuMjA5LDEuMjA5LDAsMCwxLS4xMjItLjQ4NywxLjU1MSwxLjU1MSwwLDAsMSwxLjUtMS41LDguNjc0LDguNjc0LDAsMCwwLTEuNDc5LTEuNTYzLDEwLjQ5LDEwLjQ5LDAsMCwwLTYuMDQ3LS4yMjIsOC4wNiw4LjA2LDAsMCwwLTUuOTc1LDUuNCwxNC4wODUsMTQuMDg1LDAsMCwwLS4zODgsMi4yNjNjLS4wMzEuODg0LjQxNiwxLjY1NS40NSwyLjYxNy0uMjM5LjM5NC0uOTY5LjQ0My0xLjQ3NC40MTYtLjAzNy0uMTg3LS4wODItLjM3OS0uMTM2LS41NjZhNS4xNTgsNS4xNTgsMCwwLDAtMS4yNjUtLjUsMS43MTksMS43MTksMCwwLDEsMS4wMDksMi4wMzhjLS4zNzMtLjIxMy0uNDYyLTEuMTUtLjktMS4xNzctLjYyNi0uMDM4LS41MTIsMS4yMTYtLjUwOSwxLjk1YTIuMjkxLDIuMjkxLDAsMCwxLS4xOS0yLjIxM2MtLjI4NC0uMTM5LS40NDQuMDYxLS42LjIxNy0uMjIyLDEuMDM2LS41NDcsMS44NzMuMDYyLDIuOTJhMS43MzQsMS43MzQsMCwwLDAsMS40MTQuNmMuNTY3LS4wNTYuNzA2LS42MjQsMS4zMjQtLjYxOEEuNTEzLjUxMywwLDAsMSwxMC40MTIsMTguMjUzWk0xNi44NjEsMjAuMmwtLjMtLjA2MXMtLjMxNC0xLjEtLjE2My0xLjMwNmMuMDgtLjEwNy41Mi0uMjY4LDEuMTM2LjAyOEMxNy41MywxOC44NjIsMTYuOCwxOC45ODQsMTYuODYxLDIwLjJabTUuNzA2LDEuMzQxYTUuMjcsNS4yNywwLDAsMS0zLjQyNi0uMDE0QTQuNjg3LDQuNjg3LDAsMCwxLDE3Ljg1OCwyMC4xYy0uMTU1LS4yLS45MjctLjcwOC0uMDEyLS43MDloMGMuNzE3LDEuOCwzLjE4LDEuNTkyLDUuMjU3LDEuNTQzQTEuMTExLDEuMTExLDAsMCwxLDIyLjU2NywyMS41NDJabS4zLTEuNmE0LjAxNiw0LjAxNiwwLDAsMSwwLTEuMDYzLDguNTM4LDguNTM4LDAsMCwwLDIuOTYtMS4xODVoMEEzLjQyNSwzLjQyNSwwLDAsMSwyMi44NjYsMTkuOTM5Wm0yLjc1Ni04LjA3M2MtLjE4My4wNjEtMS4zNy43NjItMS4yNzgtLjEyMmExLjM0OCwxLjM0OCwwLDAsMSwxLjAyNi0xLjA3NywzLjAzNywzLjAzNywwLDAsMSwwLS40aDBsLjA3OSwwYTE3LjE0NiwxNy4xNDYsMCwwLDAsMS4xNzIsMi4yOWMtLjMxNy43MzgtMi40LDEuMzktMi4zNjYuMDY2LjQ1LS4yLDEuMjI3LS4wNCwxLjYyNi0uMjkxLS4wOTQtLjI1Ny0uMi0uNS0uMy0uNzU2Wm0tNS4xODcsNC43NWEuNzE5LjcxOSwwLDAsMSwuMDQ2LjFjLjA5MS0uNTA3LjI1OS0xLjEuNTQ4LTEuMDEzYS42ODQuNjg0LDAsMCwxLC41LjYzOCw2LjkwOCw2LjkwOCwwLDAsMC0uOTQ4LjczOGMuMDY1LjMuMTQ0LjYuNTIzLjY2OCwxLjEwNi4xODksMi4zOTMtLjY3NywzLjE4OS0uOTc5LjQ5My0uODMyLS4wNDMtMS4xMzgtLjQ4Ny0xLjY3My0uOTEtMS4xLTIuMTMtMi40NTYtMi4wODYtNC4xLjM2OC0uMjY3LjQuNDA3LjQ1Mi41M2ExNS4wMDYsMTUuMDA2LDAsMCwwLDIuNTQzLDMuNDg2Yy4yMTQuMjM0LjU2Ny40NTkuNjA2LjYxNC4xMTMuNDUxLS4yOTQuOTkxLS4yNDcsMS4yOWgwYTYuNTg3LDYuNTg3LDAsMCwxLTQuNDY2LDEuNEExLjMyMiwxLjMyMiwwLDAsMSwyMC40MzQsMTYuNjE1Wm0xLjk1OCwyLjMyMUE0LjkzMyw0LjkzMywwLDAsMSwyMi40NywyMGMtMS44MTEuMDktMy45NTItLjM1OC00LjQyNy0xLjYyOUExMC4yODUsMTAuMjg1LDAsMCwwLDIyLjM5MywxOC45MzZabS00LjI1Ni04LjY0OGE2Ljk1NCw2Ljk1NCwwLDAsMCwuOTc3LDEuODI5Yy4yMjguMjIyLjY3LjQ5Mi40NTEsMS4xMDlhMS40MDYsMS40MDYsMCwwLDEtLjY0Mi41MzRjLS43OS4yMzMtMi42MzEuMDQ4LTIuMDA4LS45MzcuNjUzLjAzLDEuNTMyLjQyNCwyLjAyLS4wNS0uMDk1LS4xNTItLjIwOS0uMzQxLS4zMjItLjU1MS0uNS4zMTYtMS44NzQuMzMtMS44NzQtLjQ3OSwwLS44NTIsMS4zMzktMS4wMzQsMS4zMzktMS4wMzRsLjAxLjAyNEExLjExLDEuMTEsMCwwLDEsMTguMTM3LDEwLjI4OFpNMTQuOTE0LDcuMzYzYzEuMTk1LS44MTUsMS44LS4zNSwyLjEuMTg4YS41NjguNTY4LDAsMCwxLC4yNzQuODI4Yy0xLjY1OC0uMzg2LTIuNDgyLjY5NC0yLjk4NSwxLjgxNC0uMTI5LjIzNC0uMTM2LjA2OC0uMjEtLjEzNmEuMzkyLjM5MiwwLDAsMS0uMDYxLS4xMzZBLjU1MS41NTEsMCwwLDAsMTMuOTQsOS44QzEzLjcsOS41NTMsMTMuNTc1LDguMjc2LDE0LjkxNCw3LjM2M1oiLz48cGF0aCBzdHlsZT0iZmlsbDojMzM1MDYxIiBkPSJNNi4yODMsMjkuMjhoOC43NTNjLS4wNC0uMTM1LS4wNzktLjI2OC0uMTE4LS4zOTRhMTIuMTY0LDEyLjE2NCwwLDAsMS0uNDc2LTEuOTQ4LDIxLjA3OSwyMS4wNzksMCwwLDEtMy4wODctMS42NTUsMi4zNTMsMi4zNTMsMCwwLDEtLjI0LS4yNTdMNS44NDksMjcuMzc5UzYuMDM4LDI4LjEzMyw2LjI4MywyOS4yOFoiLz48cGF0aCBzdHlsZT0iZmlsbDojNmQ2YjZkIiBkPSJNOS40MzMsN0EyLjEyNSwyLjEyNSwwLDAsMSw5LjksNi45MTJhMy44MTcsMy44MTcsMCwwLDAsLjc0Ny4wMjljLjQ5NC0uMTIzLjkxMi0xLjIzMSwxLjI4NS0xLjY0NGExMS4zMzMsMTEuMzMzLDAsMCwxLC45NDEtLjc3NkE3LjM0Niw3LjM0NiwwLDAsMCw5LjQzMyw3WiIvPjxwYXRoIHN0eWxlPSJmaWxsOiM2ZDZiNmQiIGQ9Ik03LjE3NywxMi41ODZhMi4xNDcsMi4xNDcsMCwwLDEsMy4xNDUsMS43NDdjLjY5NC0uMDE4LjI1OS0uODY2LjEzNC0xLjQxMy0uMzY5LTEuNjA4LjQ4Ny0zLjM0LjE5Mi00Ljg2MUM2Ljc4Miw4LjYzNyw3LDExLjYwNiw3LjE3NywxMi41ODZaIi8+PHBhdGggc3R5bGU9ImZpbGw6I2RjZDlkOCIgZD0iTTEzLjI0OSwzLjg1MWMtMS44Mi41MTYtNC4xNTIsMS44MzgtNC45LDMuNDczQTcuMzg5LDcuMzg5LDAsMCwwLDkuNDMzLDdhNy4zNDYsNy4zNDYsMCwwLDEsMy40NC0yLjQ3OSwxLjY0NywxLjY0NywwLDAsMCwuMTU5LS4xNjZjLjE5Mi0uMDkzLjQ3Ni0uMDg2LjQ4Ny0uMzc1QzEzLjQzNiwzLjg5MSwxMy4zNDgsMy44MjMsMTMuMjQ5LDMuODUxWiIvPjxwYXRoIHN0eWxlPSJmaWxsOiNkY2Q5ZDgiIGQ9Ik03LjUsOC45ODVjLS44Ljg4NS0uNjM2LDIuNTQyLS41MzgsMy43MjFhMi4zMjEsMi4zMjEsMCwwLDEsLjIxOC0uMTJjLS4xOC0uOTc5LS4zOTQtMy45NDksMy40NzEtNC41MjdhMi44MSwyLjgxLDAsMCwwLS4xNDItLjQ5M0E0LjQwOSw0LjQwOSwwLDAsMCw3LjUsOC45ODVaIi8+PHBhdGggc3R5bGU9ImZpbGw6I2Y3ZTRjZCIgZD0iTTEwLjQxMiwxOC4yNTNhLjUxMy41MTMsMCwwLDAtLjQyLS40NjhjLjMzNS42NjgtLjUxNi44NzgtLjYsMS4zNTVhMy44MzcsMy44MzcsMCwwLDAsLjEyNS44MzIsMTEuMzUxLDExLjM1MSwwLDAsMCwxLjQ0NSwzLjM2NSwzLjE4MSwzLjE4MSwwLDAsMCwyLjIyLDEuMTY2QzEwLjY1MiwyMi40MTgsMTAuNDcyLDE4LjY3NCwxMC40MTIsMTguMjUzWiIvPjxwYXRoIHN0eWxlPSJmaWxsOiNmN2U0Y2QiIGQ9Ik0yMS41MjUsMTYuMzM4YS42ODQuNjg0LDAsMCwwLS41LS42MzhjLS4yODktLjA4Mi0uNDU3LjUwNi0uNTQ4LDEuMDEzYTIuMzc2LDIuMzc2LDAsMCwxLC4xLjM2M0E2LjkwOCw2LjkwOCwwLDAsMSwyMS41MjUsMTYuMzM4WiIvPjxwYXRoIHN0eWxlPSJmaWxsOiNmN2U0Y2QiIGQ9Ik0yNC4zNDQsMTEuNzQ0Yy0uMDkyLjg4NCwxLjEuMTgzLDEuMjc4LjEyMmwtLjA0My0uMjg2YTMuMjM1LDMuMjM1LDAsMCwxLS4yMDktLjkxM0ExLjM0OCwxLjM0OCwwLDAsMCwyNC4zNDQsMTEuNzQ0WiIvPjxwYXRoIHN0eWxlPSJmaWxsOiNmN2U0Y2QiIGQ9Ik0xNi43MzksMTEuNzQ0YzAsLjgwOSwxLjM3MS43OTUsMS44NzQuNDc5YTQuMDUzLDQuMDUzLDAsMCwxLS41MjUtMS40ODlsLS4wMS0uMDI0UzE2LjczOSwxMC44OTIsMTYuNzM5LDExLjc0NFoiLz48cGF0aCBzdHlsZT0iZmlsbDojZjdlNGNkIiBkPSJNNy4xOTIsMTQuODg1YS44LjgsMCwwLDEtLjEyNS4xMDksMS4yMjEsMS4yMjEsMCwwLDEsLjM3LS43ODFBLjU4MS41ODEsMCwwLDEsNy42LDE0LjFhLjk3OS45NzksMCwwLDEsLjc4Mi0uMDMyLDUuMTU4LDUuMTU4LDAsMCwxLDEuMjY1LjVjLS4xOTMtLjY2NC0uNTI0LTEuMjYzLTEuMjA4LTEuMzM4YTIuMDM0LDIuMDM0LDAsMCwwLTIuMiwxLjk2M0EzLjg1OCwzLjg1OCwwLDAsMCw3LjI1NCwxNy44QzYuNjQ0LDE2Ljc1OCw2Ljk3LDE1LjkyMSw3LjE5MiwxNC44ODVaIi8+PHBhdGggc3R5bGU9ImZpbGw6I2Y3ZTRjZCIgZD0iTTE3LjE2NSw0LjQ0M2ExMC40OSwxMC40OSwwLDAsMSw2LjA0Ny4yMjIsNC4xMjcsNC4xMjcsMCwwLDAtLjQ5LS4zMjljLTEuODg5LTEuMDY2LTUuMDg2LTEuODY3LTcuMS0uODY2LTEuNjIxLjgwOC0zLjgxMywyLjE0Ni00LjU2LDMuODQxYTQuMTA5LDQuMTA5LDAsMCwxLC4xMjMsMi41MzJBOC4wNiw4LjA2LDAsMCwxLDE3LjE2NSw0LjQ0M1oiLz48cGF0aCBzdHlsZT0iZmlsbDojZjdlNGNkIiBkPSJNMjMuMTg4LDcuNzI4YTEuMjA5LDEuMjA5LDAsMCwwLC4xMjIuNDg3cy4wODctLjEuMjMtLjIzMmMuMDMxLS43MzQuODY1LTEuMTUyLDEuODMyLS44NjYtLjIyMi0uMjg2LS40NDctLjU4OS0uNjgxLS44ODlBMS41NTEsMS41NTEsMCwwLDAsMjMuMTg4LDcuNzI4WiIvPjxwYXRoIHN0eWxlPSJmaWxsOiNmN2U0Y2QiIGQ9Ik0xNC4wOTIsMTAuMDU4Yy4wNzQuMi4wODIuMzcuMjEuMTM2QS4zNDguMzQ4LDAsMCwxLDE0LjA5MiwxMC4wNThaIi8+PHBhdGggc3R5bGU9ImZpbGw6I2Y3ZTRjZCIgZD0iTTE0LjAzMiw5LjkyMmExLjQ4NiwxLjQ4NiwwLDAsMSwuMTE0LS43NTgsMi44MTYsMi44MTYsMCwwLDEsMi40Ny0xLjc1NSwxLjE0OSwxLjE0OSwwLDAsMSwuNC4xNDNjLS4zLS41MzgtLjktMS0yLjEtLjE4OC0xLjMzOC45MTMtMS4yMTcsMi4xOS0uOTczLDIuNDM0QS41NTEuNTUxLDAsMCwxLDE0LjAzMiw5LjkyMloiLz48cGF0aCBzdHlsZT0iZmlsbDojNDk3MjhiIiBkPSJNNS44NDksMjcuMzc5bDUuMjY2LTIuMzUzYy0uMzg2LS40NDgtMS4wNzktMS4zLTEuMi0xLjI1N2EyNC4wNzksMjQuMDc5LDAsMCwwLTUuNjEsMy40ODUsMjAuMjM2LDIwLjIzNiwwLDAsMSwuODEsMi4wMjZINi4yODNDNi4wMzgsMjguMTMzLDUuODQ5LDI3LjM3OSw1Ljg0OSwyNy4zNzlaIi8+PHBhdGggc3R5bGU9ImZpbGw6IzMzNTA2MSIgZD0iTTI3LDI5LjMwN2EyMC44MzYsMjAuODM2LDAsMCwwLC41NDgtMi4wNThjLjAzNi0uMTgxLjEwNi0uNDc1LjE1Ni0uNzU2bC0yLjg4Ni0yLjE0NGE1LjEyMyw1LjEyMywwLDAsMSwuMTMsMy45Yy4xLjM3Mi40NTQuNTE1LjYuODUtLjAzNC4wNi0uMDY4LjExOS0uMS4xNzloMS40NzZBLjE0OS4xNDksMCwwLDEsMjcsMjkuMzA3WiIvPjxwYXRoIHN0eWxlPSJmaWxsOiMzMzUwNjEiIGQ9Ik0yNC40NDEsMjguMDc0YTEuMDgxLDEuMDgxLDAsMCwwLC4xNzItLjM4MSwxLjA4MSwxLjA4MSwwLDAsMS0uMTcyLjM4MVoiLz48cGF0aCBzdHlsZT0iZmlsbDojMzM1MDYxIiBkPSJNMjMuNjE3LDIzLjk0NmEuOTQ4Ljk0OCwwLDAsMSwuNTE0LS4xMDZsLS4yMzgtLjE3N0ExLjQ1NywxLjQ1NywwLDAsMCwyMy42MTcsMjMuOTQ2WiIvPjxwYXRoIHN0eWxlPSJmaWxsOiM0OTcyOGIiIGQ9Ik0yNy43NTYsMjUuODc5Yy0uMDc0LS41MzctLjgtLjkzNS0xLjE3Mi0xLjI2NkMyNS45LDI0LDI1LjQ3MiwyMy40NiwyNC43NjEsMjIuODg3YTQuMzkxLDQuMzkxLDAsMCwxLS44NjkuNzc2bC4yMzguMTc3YS45MzIuOTMyLDAsMCwxLC42ODYuNTFMMjcuNywyNi40OTNBMi4zMzksMi4zMzksMCwwLDAsMjcuNzU2LDI1Ljg3OVoiLz48cGF0aCBzdHlsZT0iZmlsbDojZmZmIiBkPSJNMjAuNTcyLDI5LjJhLjQzOC40MzgsMCwwLDAsLjAwOS4wNzZoLjQ3OWEuMzMzLjMzMywwLDAsMSwuNjY2LDBIMjIuNXYtLjAzYy0uMjc0LS4xNDQtLjg3My0uNDU1LTEuMi0uNTkzQzIwLjg3NiwyOC40NzUsMjAuNTcyLDI5LjIsMjAuNTcyLDI5LjJaIi8+PHBhdGggc3R5bGU9ImZpbGw6I2RjZDlkOCIgZD0iTTIwLjU3MiwyOS4ycy4zLS43My43My0uNTQ4Yy4zMjIuMTM4LjkyMS40NDksMS4yLjU5My4wMS0uMjIuMDItLjQ0LjAzNC0uNjYtLjYxOC4wMzktLjk2MS0uNTU5LTEuMzk0LS42MDUtLjM3OC0uMDQxLS43LjQzNS0xLjE5LjIyOS0uMTEzLjEyNC0uMjE1LjI1OS0uMzMuMzgxYTYuMzEzLDYuMzEzLDAsMCwxLC40ODkuNjg1aC40NzZBLjQzOC40MzgsMCwwLDEsMjAuNTcyLDI5LjJaIi8+PHBhdGggc3R5bGU9ImZpbGw6I2ZmZiIgZD0iTTE0LjUxMSwyNS4xNjlhNi43MzgsNi43MzgsMCwwLDEtMi4yNjktLjQuMjgyLjI4MiwwLDAsMCwuMDE3LjQyMSw3LjY1Nyw3LjY1NywwLDAsMCwyLjE0LjU3OEExLjc0OCwxLjc0OCwwLDAsMCwxNC41MTEsMjUuMTY5WiIvPjxwYXRoIHN0eWxlPSJmaWxsOiNkY2Q5ZDgiIGQ9Ik0xNC4zNTcsMjYuMDY5YTEuMjMzLDEuMjMzLDAsMCwxLC4wNDEtLjMsNy42NTcsNy42NTcsMCwwLDEtMi4xNC0uNTc4QTQuMjM3LDQuMjM3LDAsMCwwLDE0LjM1NywyNi4wNjlaIi8+PHBhdGggc3R5bGU9ImZpbGw6I2QzMzgzMyIgZD0iTTI0LjYxMywyNy42OTNhMi45NjMsMi45NjMsMCwwLDAsLjA3My0uODcsNy4wNTcsNy4wNTcsMCwwLDAtLjItMS4zNzgsMywzLDAsMCwwLTEuMDA5LjA0OWMtLjMuMDYxLS42MDkuMTIyLS42NjkuNDg3cy4xMjIuNTQ4LS4wNjEuODUyLS40ODcuMTIyLS43OTEuM2MtLjIwNy4xMjQtLjA3Ni40NDUuMDI5LjYzOGExMi4xMzgsMTIuMTM4LDAsMCwwLDIuNDU5LjNBMS4wODEsMS4wODEsMCwwLDAsMjQuNjEzLDI3LjY5M1oiLz48cGF0aCBzdHlsZT0iZmlsbDojZDMzODMzIiBkPSJNMTUuNTYyLDI5LjIxOWMuMDE2LjA0My4wMzMuMDg4LjA0Ny4xMjhzLjAyOS4wOTMuMDQyLjEzOWwtLjAwOS0uMTE3WiIvPjxwYXRoIHN0eWxlPSJmaWxsOiNkMzM4MzMiIGQ9Ik0xOS41NjMsMjcuOTI1cS4wMS0uMjY0LjAyMS0uNTI3YTEuMzA5LDEuMzA5LDAsMCwxLS45Ni0uMDc0Yy0uOTM3LS41MTEtLjA1LS4zNi0uMzgyLTEuMDM4YTMuMjM2LDMuMjM2LDAsMCwwLTEuMjI0LS4zNjVjLTEuMjI4LDAtMS43LS4yNDctMS41NjgsMS4xNjkuMDY5Ljc2LjEzMSwxLjUxOS4xOTEsMi4yOC4xLjE4OC4xOS4zNTcuMjYyLjVhNC44MzQsNC44MzQsMCwwLDAsMS44MzMtLjU1OUEyMS4wMDcsMjEuMDA3LDAsMCwwLDE5LjU2MywyNy45MjVaIi8+PHBhdGggc3R5bGU9ImZpbGw6I2QzMzgzMyIgZD0iTTIwLjAyNywyNy4yYy4wMjEuMDg5LjA0My4xODkuMDY0LjMxaDBhLjcuNywwLDEsMCwuNDI4LTEuMzFBLjk1My45NTMsMCwwLDEsMjAuMDI3LDI3LjJaIi8+PHBhdGggc3R5bGU9ImZpbGw6I2VmM2QzYSIgZD0iTTIxLjk1MywyNy4xMzdjLjMtLjE4My42MDksMCwuNzkxLS4zczAtLjQ4Ny4wNjEtLjg1Mi4zNjUtLjQyNi42NjktLjQ4N2EzLDMsMCwwLDEsMS4wMDktLjA0OSwxLjEyNSwxLjEyNSwwLDAsMC0uMzQ4LS42NTJjLS43NDctLjQzNi0yLjA1Ni44MjUtMi42NjUsMS4wOTNsLS4wNTcuMDIzYTEuNjk0LDEuNjk0LDAsMCwxLC4xNzUuNTU4QTEuNDc1LDEuNDc1LDAsMCwxLDIyLDI2LjQyOWExLjc2MSwxLjc2MSwwLDAsMSwuMjc2LjAzM2MuMDQ1LjAwOS4wODkuMDIuMTMzLjAzMmExLjQ2MywxLjQ2MywwLDAsMSwuMjQzLjA5Miw0LjIwOSw0LjIwOSwwLDAsMC0uNzU3LjEuNy43LDAsMCwwLS4yLjA5NSw4LjYxOCw4LjYxOCwwLDAsMC0uMDM1LjlxLjE1OC4wNDUuMzIyLjA4NEMyMS44NzcsMjcuNTgyLDIxLjc0NiwyNy4yNjEsMjEuOTUzLDI3LjEzN1oiLz48cGF0aCBzdHlsZT0iZmlsbDojZWYzZDNhIiBkPSJNMTUuNjUxLDI5LjQ4NWMuMDUxLjE4My4wOTUuMzQ4LjI1My4zODUtLjA3Mi0uMTQ0LS4xNjMtLjMxMy0uMjYyLS41WiIvPjxwYXRoIHN0eWxlPSJmaWxsOiNlZjNkM2EiIGQ9Ik0xNS40NSwyNy4wODljLS4xMjktMS40MTYuMzQtMS4xNjksMS41NjgtMS4xNjlhMy4yMzYsMy4yMzYsMCwwLDEsMS4yMjQuMzY1Yy4zMzIuNjc4LS41NTUuNTI3LjM4MiwxLjAzOGExLjMwOSwxLjMwOSwwLDAsMCwuOTYuMDc0bDAtLjA2M2EzLjAzOSwzLjAzOSwwLDAsMC0uOTE2LS4yOSwzLjUsMy41LDAsMCwwLS4zNzEtLjAzNiwxLjU1NSwxLjU1NSwwLDAsMSwuMjkxLS4xMDYsMy4yODUsMy4yODUsMCwwLDAsLjkwNi0uMjgxYzAtLjA3OS4wMDYtLjE1OC4wMDktLjIzNmExLjg4MywxLjg4MywwLDAsMS0uMi0uMDI3LDEuNTY1LDEuNTY1LDAsMCwxLS4xNzctLjA0NCwxLjU4NSwxLjU4NSwwLDAsMS0uMjk0LS4xMjdjLS4xNzgtLjEtLjMzMS0uMjE2LS41MjUtLjMyMmE5LjA3Nyw5LjA3NywwLDAsMC0yLjQwOC0uODgxYy0uOTIxLS4xNzYtLjkyOSwxLjEwNS0uODksMi4wNDksMCwuMS4wMDguMTkyLjAxMy4yOGE2LjU4NSw2LjU4NSwwLDAsMCwuNTQ0LDEuOWwuMDc5LjE1QzE1LjU4MiwyOC42MDksMTUuNTE5LDI3Ljg0OSwxNS40NSwyNy4wODlaIi8+PHBhdGggc3R5bGU9ImZpbGw6I2VmM2QzYSIgZD0iTTIwLjUyLDI2LjJhMS4wMDksMS4wMDksMCwwLDAtLjU4Mi4yLDEuNywxLjcsMCwwLDAsLjAwNy40MTJjLjAxMS4wNzkuMDI4LjE1NS4wNDguMjM4bC4wMzEuMTMxLDAsLjAxN2gwQS45NTMuOTUzLDAsMCwwLDIwLjUyLDI2LjJaIi8+PHBhdGggc3R5bGU9ImZpbGw6IzIzMWYyMCIgZD0iTTE0LjE0Niw5LjE2NGExLjQ4NiwxLjQ4NiwwLDAsMC0uMTE0Ljc1OC4zOTIuMzkyLDAsMCwwLC4wNjEuMTM2LjM0OC4zNDgsMCwwLDAsLjIxLjEzNmMuNS0xLjEyLDEuMzI3LTIuMiwyLjk4NS0xLjgxNGEuNTY4LjU2OCwwLDAsMC0uMjc0LS44MjgsMS4xNDksMS4xNDksMCwwLDAtLjQtLjE0M0EyLjgxNiwyLjgxNiwwLDAsMCwxNC4xNDYsOS4xNjRaIi8+PHBhdGggc3R5bGU9ImZpbGw6IzIzMWYyMCIgZD0iTTI0LjI1MiwxMi42MjdjLS4wMzIsMS4zMjQsMi4wNDkuNjcyLDIuMzY2LS4wNjZhMTcuMTQ2LDE3LjE0NiwwLDAsMS0xLjE3Mi0yLjI5bC0uMDc5LDBoMGEzLjAzNywzLjAzNywwLDAsMCwwLC40LDMuMjM1LDMuMjM1LDAsMCwwLC4yMDkuOTEzYy4wOTUuMjU2LjIwNS41LjMuNzU2QzI1LjQ3OSwxMi41ODcsMjQuNywxMi40MywyNC4yNTIsMTIuNjI3WiIvPjxwYXRoIHN0eWxlPSJmaWxsOiMyMzFmMjAiIGQ9Ik0xOC45MzQsMTIuNzczYy0uNDg4LjQ3NC0xLjM2Ny4wOC0yLjAyLjA1LS42MjMuOTg1LDEuMjE4LDEuMTcsMi4wMDguOTM3YTEuNDA2LDEuNDA2LDAsMCwwLC42NDItLjUzNGMuMjE5LS42MTctLjIyMy0uODg3LS40NTEtMS4xMDlhNi45NTQsNi45NTQsMCwwLDEtLjk3Ny0xLjgyOSwxLjExLDEuMTEsMCwwLDAtLjA0OS40NDUsNC4wNTMsNC4wNTMsMCwwLDAsLjUyNSwxLjQ4OUMxOC43MjYsMTIuNDMyLDE4LjgzOSwxMi42MjEsMTguOTM0LDEyLjc3M1oiLz48cGF0aCBzdHlsZT0iZmlsbDojMjMxZjIwIiBkPSJNMjAuNjA1LDE4LjMxNWE2LjU4Nyw2LjU4NywwLDAsMCw0LjQ2Ni0xLjRoMGMtLjA0Ny0uMy4zNi0uODQuMjQ3LTEuMjktLjAzOS0uMTU1LS4zOTItLjM4LS42MDYtLjYxNGExNS4wMDYsMTUuMDA2LDAsMCwxLTIuNTQzLTMuNDg2Yy0uMDUzLS4xMjMtLjA4NS0uOC0uNDUyLS41My0uMDQ0LDEuNjQyLDEuMTc2LDMsMi4wODYsNC4xLjQ0NC41MzUuOTguODQxLjQ4NywxLjY3My0uOC4zLTIuMDgzLDEuMTY5LTMuMTg5Ljk3OS0uMzc5LS4wNjUtLjQ1OC0uMzY1LS41MjMtLjY2OGEyLjM3NiwyLjM3NiwwLDAsMC0uMS0uMzYzLjcxOS43MTksMCwwLDAtLjA0Ni0uMUExLjMyMiwxLjMyMiwwLDAsMCwyMC42MDUsMTguMzE1WiIvPjxwYXRoIHN0eWxlPSJmaWxsOiMyMzFmMjAiIGQ9Ik03LjYsMTQuMWEuODMyLjgzMiwwLDAsMC0uMTU5LjExMSwxLjIyMSwxLjIyMSwwLDAsMC0uMzcuNzgxLjguOCwwLDAsMCwuMTI1LS4xMDljLjE1My0uMTU2LjMxMy0uMzU3LjYtLjIxN2EyLjI5MSwyLjI5MSwwLDAsMCwuMTksMi4yMTNjMC0uNzMzLS4xMTctMS45ODcuNTA5LTEuOTUuNDM4LjAyNy41MjcuOTY0LjksMS4xNzdBMS43MTksMS43MTksMCwwLDAsOC4zNzgsMTQuMDcuOTc5Ljk3OSwwLDAsMCw3LjYsMTQuMVoiLz48cGF0aCBzdHlsZT0iZmlsbDojMjMxZjIwIiBkPSJNMjIuODY4LDE4Ljg3NWE0LjAxNiw0LjAxNiwwLDAsMCwwLDEuMDYzLDMuNDI1LDMuNDI1LDAsMCwwLDIuOTYyLTIuMjQ5aDBBOC41MzgsOC41MzgsMCwwLDEsMjIuODY4LDE4Ljg3NVoiLz48cGF0aCBzdHlsZT0iZmlsbDojMjMxZjIwIiBkPSJNMjIuNDcsMjBhNC45MzMsNC45MzMsMCwwLDAtLjA3Ny0xLjA2NiwxMC4yODUsMTAuMjg1LDAsMCwxLTQuMzUtLjU2MkMxOC41MTgsMTkuNjQ0LDIwLjY1OSwyMC4wOTIsMjIuNDcsMjBaIi8+PHBhdGggc3R5bGU9ImZpbGw6IzIzMWYyMCIgZD0iTTE3Ljg0NiwxOS4zOWgwYy0uOTE1LDAtLjE0My41MS4wMTIuNzA5YTQuNjg3LDQuNjg3LDAsMCwwLDEuMjg0LDEuNDI4LDUuMjcsNS4yNywwLDAsMCwzLjQyNi4wMTQsMS4xMTEsMS4xMTEsMCwwLDAsLjUzNi0uNjA5QzIxLjAyNiwyMC45ODIsMTguNTYzLDIxLjE4OSwxNy44NDYsMTkuMzlaIi8+PHBhdGggc3R5bGU9ImZpbGw6IzgxYjBjNCIgZD0iTTI0Ljk2LDI5LjI4YTEuNzA5LDEuNzA5LDAsMCwwLTEuMDQyLS43NTMsMS40MzMsMS40MzMsMCwwLDAtLjkxOC4xMmMtLjAwOC4yLS4wMTguNDE1LS4wMzEuNjMyWiIvPjxwYXRoIHN0eWxlPSJmaWxsOiNmMGQ2YjciIGQ9Ik0yMS45NzEsMjQuNzQ5Yy0uNjg2LjA2MS0xLjQ5My4zNzMtMi4yNTIuNDE5LS4wNjksMC0uMTM4LjAwNi0uMjA2LjAwNnMtLjEzNiwwLS4yLS4wMWExLjkzLDEuOTMsMCwwLDEtLjM5Mi0uMDc2LDEuNjY2LDEuNjY2LDAsMCwxLS4xODgtLjA3YzAsLjA1Mi0uMDcxLjAzMy0uMDgyLjA3Ni4wODUuMDY2LjE2Ny4xMjYuMjQ3LjE3OXMuMTU5LjEuMjM4LjE0M2EyLjIxOCwyLjIxOCwwLDAsMCwuNDc1LjE5LDMuMDUyLDMuMDUyLDAsMCwwLC44MTYuMDljLjEsMCwuMjEyLDAsLjMyNy0uMDA5QzIxLjE2OSwyNS4zODQsMjEuNTM3LDI1LjAzMSwyMS45NzEsMjQuNzQ5WiIvPjxwYXRoIHN0eWxlPSJmaWxsOiM4MWIwYzQiIGQ9Ik0xOS4wODYsMjkuMDQ4bC0uMzUxLjIzM2guNTI3UTE5LjE3NiwyOS4xNjIsMTkuMDg2LDI5LjA0OFoiLz48cGF0aCBzdHlsZT0iZmlsbDojMjMxZjIwIiBkPSJNNC42ODEsMjkuNzY5di0uMzM1YS4xNTMuMTUzLDAsMCwxLC4xNTMtLjE1M2guMjgzYTIwLjIzNiwyMC4yMzYsMCwwLDAtLjgxLTIuMDI2LDI0LjA3OSwyNC4wNzksMCwwLDEsNS42MS0zLjQ4NWMuMTE4LS4wNDcuODExLjgwOSwxLjIsMS4yNTdhMi4zNTMsMi4zNTMsMCwwLDAsLjI0LjI1NywyMS4wNzksMjEuMDc5LDAsMCwwLDMuMDg3LDEuNjU1LDEyLjE2NCwxMi4xNjQsMCwwLDAsLjQ3NiwxLjk0OGMuMDM5LjEyNi4wNzguMjYuMTE4LjM5NEgxNS4yYS4xNTMuMTUzLDAsMCwxLC4xNTMuMTUzdi4xNThoLjEzOWEuMTUzLjE1MywwLDAsMSwuMTUzLjE1M1YzMGgxLjY5MXYtLjI1NWEuMTUzLjE1MywwLDAsMSwuMTUzLS4xNTNoLjc4di0uMTU4YS4xNTMuMTUzLDAsMCwxLC4xNTMtLjE1M2guMzE3bC4zNTEtLjIzM3EuMDkuMTE0LjE3Ni4yMzNoLjg0M2E2LjMxMyw2LjMxMywwLDAsMC0uNDg5LS42ODVjLjExNS0uMTIyLjIxNy0uMjU2LjMzLS4zODEuNDkyLjIwNi44MTItLjI3LDEuMTktLjIyOS40MzMuMDQ2Ljc3Ni42NDQsMS4zOTQuNjA1LS4wMTQuMjItLjAyNC40NC0uMDM0LjY2di4wM2guNDc0Yy4wMTItLjIxNy4wMjMtLjQyOS4wMzEtLjYzMmExLjQzMywxLjQzMywwLDAsMSwuOTE4LS4xMiwxLjcwOSwxLjcwOSwwLDAsMSwxLjA0Mi43NTNoLjQ4MWMuMDM0LS4wNi4wNjktLjExOS4xLS4xNzktLjE0My0uMzM1LS40OTUtLjQ3Ny0uNi0uODVhNS4xMjMsNS4xMjMsMCwwLDAtLjEzLTMuOS45MzIuOTMyLDAsMCwwLS42ODYtLjUxLjk0OC45NDgsMCwwLDAtLjUxNC4xMDYsMS40NTcsMS40NTcsMCwwLDEsLjI3NS0uMjgzLDQuMzkxLDQuMzkxLDAsMCwwLC44NjktLjc3NmMuNzEyLjU3MywxLjE0MSwxLjExMiwxLjgyNCwxLjcyNS4zNy4zMzIsMS4xLjczLDEuMTcyLDEuMjY2YTIuMzM5LDIuMzM5LDAsMCwxLS4wNTQuNjE0Yy0uMDUxLjI4MS0uMTIuNTc1LS4xNTYuNzU2QTIwLjgzNiwyMC44MzYsMCwwLDEsMjcsMjkuMzA3YS4xNS4xNSwwLDAsMSwuMDcyLjEyN1YzMGguMzY4Yy4yNTgtLjgwOC41MTEtMS42MzUuNzY2LTIuNDg5YTYuMjA3LDYuMjA3LDAsMCwwLC40NzgtMi4xODdjLS4wNzgtLjYxNy0xLjA0LTEuMjY1LTEuNTQ3LTEuNzU0LS4yODEtLjI3MS0xLjU5My0xLjI2Ny0xLjY2OS0xLjY0cy41MzUtMS4xNzguNzMxLTEuNTg2YTExLjY2OSwxMS42NjksMCwwLDAsLjYyMS0xLjc4OGMxLjAzMi0zLjYyNywxLjEzNy04LjYxMS0uMzM5LTExLjU5MmExMi41NCwxMi41NCwwLDAsMC0zLjEtMy40MjhjLTIuMy0xLjc0Mi02LjU2My0xLjkzNS05LjMzOS0uOTEzYTEzLjQ4MSwxMy40ODEsMCwwLDAtMi4yLjkzOUMxMC4wMjQsNC42MjgsOC4wOTQsNS4zNDIsNy41NTUsNy40OWMtMS4zMjguNi0xLjcyOSwyLjMtMS42NjIsNC4yNjhhNi4yMjEsNi4yMjEsMCwwLDEsLjE0OSwxLjIyN2MtLjAzNy4xODQtLjI4Ni40MTktLjMzNi41MzhhNS4zLDUuMywwLDAsMCwuNjA5LDQuNTkyQTMuMjI1LDMuMjI1LDAsMCwwLDguNDY4LDE5LjVhNC41NjgsNC41NjgsMCwwLDAsLjQ0NywxLjY3MmMuMTcuMzczLjgwNSwxLjA0My41NzEsMS41MTlhNi45ODcsNi45ODcsMCwwLDEtMS40OTUuOTY2Yy0xLjE1OC42OTUtMiwxLjEyLTMuMDY2LDEuODktLjY5Mi41LTEuNzczLjU2Mi0xLjYsMS43MWExNy44NjksMTcuODY5LDAsMCwwLC44MDgsMi41MTNjLjAyNS4wNzguMDUzLjE1NS4wOC4yMzJoLjQ3Wk0xMy4wMzIsNC4zNTVhMS42NDcsMS42NDcsMCwwLDEtLjE1OS4xNjYsMTEuMzMzLDExLjMzMywwLDAsMC0uOTQxLjc3NmMtLjM3My40MTMtLjc5LDEuNTIxLTEuMjg1LDEuNjQ0QTMuODE3LDMuODE3LDAsMCwxLDkuOSw2LjkxMiwyLjEyNSwyLjEyNSwwLDAsMCw5LjQzMyw3YTcuMzg5LDcuMzg5LDAsMCwxLTEuMDg0LjMyNWMuNzQ4LTEuNjM1LDMuMDgtMi45NTcsNC45LTMuNDczLjEtLjAyOC4xODguMDQuMjcxLjEyOUMxMy41MDksNC4yNjgsMTMuMjI0LDQuMjYyLDEzLjAzMiw0LjM1NVptLTIuMzg1LDMuN2MuMywxLjUyMS0uNTYxLDMuMjU0LS4xOTIsNC44NjEuMTI1LjU0Ni41NiwxLjM5NC0uMTM0LDEuNDEzYTIuMTQ3LDIuMTQ3LDAsMCwwLTMuMTQ1LTEuNzQ3LDIuMzIxLDIuMzIxLDAsMCwwLS4yMTguMTJjLS4xLTEuMTc5LS4yNjYtMi44MzYuNTM4LTMuNzIxYTQuNDA5LDQuNDA5LDAsMCwxLDMuMDA5LTEuNDE5QTIuODEsMi44MSwwLDAsMSwxMC42NDcsOC4wNTlaTTcuMjU0LDE3LjhBMy44NTgsMy44NTgsMCwwLDEsNi4yMzIsMTUuMmEyLjAzNCwyLjAzNCwwLDAsMSwyLjItMS45NjNjLjY4NC4wNzUsMS4wMTQuNjc0LDEuMjA4LDEuMzM4LjA1NC4xODcuMS4zNzkuMTM2LjU2Ni41MDUuMDI3LDEuMjM1LS4wMjIsMS40NzQtLjQxNi0uMDM0LS45NjItLjQ4MS0xLjczMy0uNDUtMi42MTdhMTQuMDg1LDE0LjA4NSwwLDAsMSwuMzg4LTIuMjYzLDQuMTA5LDQuMTA5LDAsMCwwLS4xMjMtMi41MzJjLjc0Ny0xLjY5NSwyLjkzOS0zLjAzMiw0LjU2LTMuODQxLDIuMDA5LTEsNS4yMDctLjIsNy4xLjg2NmE0LjEyNyw0LjEyNywwLDAsMSwuNDkuMzI5LDguNjc0LDguNjc0LDAsMCwxLDEuNDc5LDEuNTYzYy4yMzQuMy40NTkuNi42ODEuODg5LS45NjctLjI4Ny0xLjguMTMyLTEuODMyLjg2NmExLjA3LDEuMDcsMCwwLDAsLjAxNi4yNDZjLjktLjgyMSwyLjQyNy0uMDA5LDIuODguOWE5LjU2Nyw5LjU2NywwLDAsMSwuNSwzLjQ0NiwxNC4yNDIsMTQuMjQyLDAsMCwxLTIuMTQ1LDguNjIxLDYuMjU4LDYuMjU4LDAsMCwxLTEuMzY1LDEuNjhjLTEuNDI1LDEtMy41OTEsMS45MDgtNS40NDYsMS4yODYtMi40NTEtLjgyMy0zLjU2NS0yLjQ1Ni00LjkxMy00LjMyNmE0LjQ2Niw0LjQ2NiwwLDAsMCwxLjQ3MiwyLjY1Niw2LjY0OCw2LjY0OCwwLDAsMCwyLjE3NiwxLjc3OGMtLjY3My0uMTU4LTEuNy0uMjA4LTEuOTg1LjRhMTUuNDY1LDE1LjQ2NSwwLDAsMS0xLjU0OS0uMTYyLDMuMTgxLDMuMTgxLDAsMCwxLTIuMjItMS4xNjYsMTEuMzUxLDExLjM1MSwwLDAsMS0xLjQ0NS0zLjM2NSwzLjgzNywzLjgzNywwLDAsMS0uMTI1LS44MzJjLjA4OC0uNDc4LjkzOS0uNjg3LjYtMS4zNTUtLjYxOC0uMDA2LS43NTcuNTYyLTEuMzI0LjYxOEExLjczNCwxLjczNCwwLDAsMSw3LjI1NCwxNy44Wm0xMi43Nyw5LjM4LS4wMzEtLjEzMWMtLjAyLS4wODMtLjAzNi0uMTU5LS4wNDgtLjIzOGExLjcsMS43LDAsMCwxLS4wMDctLjQxMiwxLjAwOSwxLjAwOSwwLDAsMSwuNTgyLS4yLjcuNywwLDEsMS0uNDI4LDEuMzFjLS4wMjEtLjEyMS0uMDQzLS4yMjEtLjA2NC0uMzFabS03Ljc4Mi0yLjQxOWE2LjczOCw2LjczOCwwLDAsMCwyLjI2OS40LDEuNzQ4LDEuNzQ4LDAsMCwxLS4xMTIuNiwxLjIzMywxLjIzMywwLDAsMC0uMDQxLjMsNC4yMzcsNC4yMzcsMCwwLDEtMi4xLS44ODJBLjI4Mi4yODIsMCwwLDEsMTIuMjQyLDI0Ljc2NlptNy4zNjcuODM5YTIuMjE4LDIuMjE4LDAsMCwxLS40NzUtLjE5Yy0uMDc4LS4wNDItLjE1Ny0uMDktLjIzOC0uMTQzcy0uMTYyLS4xMTMtLjI0Ny0uMTc5Yy4wMTEtLjA0My4wNzktLjAyNC4wODItLjA3NmExLjY2NiwxLjY2NiwwLDAsMCwuMTg4LjA3LDEuOTMsMS45MywwLDAsMCwuMzkyLjA3NmMuMDY3LjAwNi4xMzQuMDA5LjIuMDFzLjEzNywwLC4yMDYtLjAwNmMuNzU5LS4wNDYsMS41NjYtLjM1OCwyLjI1Mi0uNDE5LS40MzMuMjgzLS44LjYzNi0xLjIxOC45MzgtLjExNS4wMDYtLjIyNC4wMDktLjMyNy4wMDlBMy4wNTIsMy4wNTIsMCwwLDEsMTkuNjA5LDI1LjYwNVptLTEuODcyLDMuNzA2YTQuODM0LDQuODM0LDAsMCwxLTEuODMzLjU1OWMtLjE1OC0uMDM3LS4yLS4yLS4yNTMtLjM4NS0uMDEzLS4wNDYtLjAyNi0uMDkyLS4wNDItLjEzOXMtLjAzLS4wODUtLjA0Ny0uMTI4YTYuNTg1LDYuNTg1LDAsMCwxLS41NDQtMS45YzAtLjA4OC0uMDA5LS4xODItLjAxMy0uMjgtLjAzOS0uOTQ0LS4wMzEtMi4yMjUuODktMi4wNDlhOS4wNzcsOS4wNzcsMCwwLDEsMi40MDguODgxYy4xOTQuMTA2LjM0Ny4yMjUuNTI1LjMyMmExLjU4NSwxLjU4NSwwLDAsMCwuMjk0LjEyNywxLjU2NSwxLjU2NSwwLDAsMCwuMTc3LjA0NCwxLjg4MywxLjg4MywwLDAsMCwuMi4wMjdjMCwuMDc4LS4wMDYuMTU3LS4wMDkuMjM2YTMuMjg1LDMuMjg1LDAsMCwxLS45MDYuMjgxLDEuNTU1LDEuNTU1LDAsMCwwLS4yOTEuMTA2LDMuNSwzLjUsMCwwLDEsLjM3MS4wMzYsMy4wMzksMy4wMzksMCwwLDEsLjkxNi4yOWwwLC4wNjNxLS4wMS4yNjQtLjAyMS41MjdBMjEuMDA3LDIxLjAwNywwLDAsMSwxNy43MzcsMjkuMzExWm00LjI0NS0xLjUzNnEtLjE2NC0uMDM5LS4zMjItLjA4NGE4LjYxOCw4LjYxOCwwLDAsMSwuMDM1LS45LjcuNywwLDAsMSwuMi0uMDk1LDQuMjA5LDQuMjA5LDAsMCwxLC43NTctLjEsMS40NjMsMS40NjMsMCwwLDAtLjI0My0uMDkyYy0uMDQzLS4wMTItLjA4OC0uMDIzLS4xMzMtLjAzMkExLjc2MSwxLjc2MSwwLDAsMCwyMiwyNi40MjlhMS40NzUsMS40NzUsMCwwLDAtLjQwNy4wMzgsMS42OTQsMS42OTQsMCwwLDAtLjE3NS0uNTU4bC4wNTctLjAyM2MuNjA5LS4yNjgsMS45MTgtMS41MjksMi42NjUtMS4wOTNhMS4xMjUsMS4xMjUsMCwwLDEsLjM0OC42NTIsNy4wNTcsNy4wNTcsMCwwLDEsLjIsMS4zNzgsMi45NjMsMi45NjMsMCwwLDEtLjA3My44NywxLjA4MSwxLjA4MSwwLDAsMS0uMTcyLjM4MWgwQTEyLjEzOCwxMi4xMzgsMCwwLDEsMjEuOTgyLDI3Ljc3NFoiLz48cGF0aCBzdHlsZT0iZmlsbDojZjdlNGNkIiBkPSJNMTcuNTMsMTguODYyYy0uNjE2LS4zLTEuMDU2LS4xMzUtMS4xMzYtLjAyOC0uMTUyLjIuMTYzLDEuMzA2LjE2MywxLjMwNmwuMy4wNjFDMTYuOCwxOC45ODQsMTcuNTMsMTguODYyLDE3LjUzLDE4Ljg2MloiLz48cGF0aCBzdHlsZT0iZmlsbDojMWQxOTE5IiBkPSJNMjEuMzkzLDI4Ljk2MWEuMzM0LjMzNCwwLDAsMC0uMzMzLjMxOWguNjY2QS4zMzQuMzM0LDAsMCwwLDIxLjM5MywyOC45NjFaIi8+PHBhdGggc3R5bGU9ImZpbGw6IzIzMWYyMCIgZD0iTTE1LjY0MiwyOS43NDVhLjE1My4xNTMsMCwwLDAtLjE1My0uMTUzaC0uMTM5di4xNzdhLjE1My4xNTMsMCwwLDEtLjE1My4xNTNINC44MzRhLjE1My4xNTMsMCwwLDEtLjE1My0uMTUzVjMwSDE1LjY0MloiLz48cGF0aCBzdHlsZT0iZmlsbDojMjMxZjIwIiBkPSJNMjYuOTE4LDI5LjkyMmgtOC41YS4xNTMuMTUzLDAsMCwxLS4xNTMtLjE1M3YtLjE3N2gtLjc4YS4xNTMuMTUzLDAsMCwwLS4xNTMuMTUzVjMwaDkuNzM3di0uMjMxQS4xNTMuMTUzLDAsMCwxLDI2LjkxOCwyOS45MjJaIi8+PHBhdGggc3R5bGU9ImZpbGw6IzIzMWYyMCIgZD0iTTQuODM0LDI5LjkyMkgxNS4yYS4xNTMuMTUzLDAsMCwwLC4xNTMtLjE1M3YtLjMzNWEuMTUzLjE1MywwLDAsMC0uMTUzLS4xNTNINC44MzRhLjE1My4xNTMsMCwwLDAtLjE1My4xNTN2LjMzNUEuMTUzLjE1MywwLDAsMCw0LjgzNCwyOS45MjJaIi8+PHBhdGggc3R5bGU9ImZpbGw6IzIzMWYyMCIgZD0iTTE4LjI2NiwyOS43NjlhLjE1My4xNTMsMCwwLDAsLjE1My4xNTNoOC41YS4xNTMuMTUzLDAsMCwwLC4xNTMtLjE1M3YtLjMzNUEuMTUuMTUsMCwwLDAsMjcsMjkuMzA3YS4xNDkuMTQ5LDAsMCwwLS4wODEtLjAyNmgtOC41YS4xNTMuMTUzLDAsMCwwLS4xNTMuMTUzdi4zMzVaIi8+PC9zdmc+" vertex="1" parent="1">
          <mxGeometry x="400" y="575" width="145" height="145" as="geometry" />
        </mxCell>
        <mxCell id="5GPRaHHNxdMrhig5xY4P-29" value="" style="shape=image;verticalLabelPosition=bottom;labelBackgroundColor=default;verticalAlign=top;aspect=fixed;imageAspect=0;image=data:image/svg+xml,PHN2ZyB4bWxucz0iaHR0cDovL3d3dy53My5vcmcvMjAwMC9zdmciIGZpbGw9Im5vbmUiIHZpZXdCb3g9IjAgMCAxNiAxNiIgaGVpZ2h0PSI4MDBweCIgd2lkdGg9IjgwMHB4Ij48cGF0aCBkPSJNMS43MDIgMi45OEwxIDMuMzEydjkuMzc2bC43MDIuMzMyIDIuODQyLTQuNzc3TDEuNzAyIDIuOTh6IiBmaWxsPSIjOUQ1MDI1Ii8+PHBhdGggZD0iTTMuMzM5IDEyLjY1N2wtMS42MzcuMzYzVjIuOThsMS42MzcuMzUzdjkuMzI0eiIgZmlsbD0iI0Y1ODUzNiIvPjxwYXRoIGQ9Ik0yLjQ3NiAyLjYxMmwuODYzLS40MDYgNC4wOTYgNi4yMTYtNC4wOTYgNS4zNzItLjg2My0uNDA2VjIuNjEyeiIgZmlsbD0iIzlENTAyNSIvPjxwYXRoIGQ9Ik01LjM4IDEzLjI0OGwtMi4wNDEuNTQ2VjIuMjA2bDIuMDQuNTQ4djEwLjQ5NHoiIGZpbGw9IiNGNTg1MzYiLz48cGF0aCBkPSJNNC4zIDEuNzVsMS4wOC0uNTEyIDYuMDQzIDcuODY0LTYuMDQzIDUuNjYtMS4wOC0uNTExVjEuNzQ5eiIgZmlsbD0iIzlENTAyNSIvPjxwYXRoIGQ9Ik03Ljk5OCAxMy44NTZsLTIuNjE4LjkwNlYxLjIzOGwyLjYxOC45MDh2MTEuNzF6IiBmaWxsPSIjRjU4NTM2Ii8+PHBhdGggZD0iTTYuNjAyLjY2TDcuOTk4IDBsNi41MzggOC40NTNMNy45OTggMTZsLTEuMzk2LS42NlYuNjZ6IiBmaWxsPSIjOUQ1MDI1Ii8+PHBhdGggZD0iTTE1IDEyLjY4Nkw3Ljk5OCAxNlYwTDE1IDMuMzE0djkuMzcyeiIgZmlsbD0iI0Y1ODUzNiIvPjwvc3ZnPg==;" vertex="1" parent="1">
          <mxGeometry x="620" y="230" width="200" height="200" as="geometry" />
        </mxCell>
        <mxCell id="5GPRaHHNxdMrhig5xY4P-30" value="" style="shape=image;verticalLabelPosition=bottom;labelBackgroundColor=default;verticalAlign=top;aspect=fixed;imageAspect=0;image=data:image/svg+xml,PHN2ZyB4bWxucz0iaHR0cDovL3d3dy53My5vcmcvMjAwMC9zdmciIGZpbGw9Im5vbmUiIHZpZXdCb3g9IjAgMCAxNiAxNiIgaGVpZ2h0PSI4MDBweCIgd2lkdGg9IjgwMHB4Ij4mI3hhOyYjeGE7PHBhdGggZD0iTTQuNTEgNy42ODdjMCAuMTk3LjAyLjM1Ny4wNTguNDc1LjA0Mi4xMTcuMDk2LjI0NS4xNy4zODRhLjIzMy4yMzMgMCAwMS4wMzcuMTIzYzAgLjA1My0uMDMyLjEwNy0uMS4xNmwtLjMzNi4yMjRhLjI1NS4yNTUgMCAwMS0uMTM4LjA0OGMtLjA1NCAwLS4xMDctLjAyNi0uMTYtLjA3NGExLjY1MiAxLjY1MiAwIDAxLS4xOTItLjI1MSA0LjEzNyA0LjEzNyAwIDAxLS4xNjUtLjMxNWMtLjQxNS40OTEtLjkzNi43MzctMS41NjQuNzM3LS40NDcgMC0uODA0LS4xMjktMS4wNjQtLjM4NS0uMjYxLS4yNTYtLjM5NC0uNTk4LS4zOTQtMS4wMjUgMC0uNDU0LjE2LS44MjIuNDg0LTEuMS4zMjUtLjI3OC43NTYtLjQxNiAxLjMwNC0uNDE2LjE4IDAgLjM2Ny4wMTYuNTY0LjA0Mi4xOTcuMDI3LjQuMDcuNjEyLjExOHYtLjM5YzAtLjQwNi0uMDg1LS42ODktLjI1LS44NTQtLjE3LS4xNjYtLjQ1OC0uMjQ2LS44NjgtLjI0Ni0uMTg2IDAtLjM3Ny4wMjItLjU3NC4wN2E0LjIzIDQuMjMgMCAwMC0uNTc1LjE4MSAxLjUyNSAxLjUyNSAwIDAxLS4xODYuMDcuMzI2LjMyNiAwIDAxLS4wODUuMDE2Yy0uMDc1IDAtLjExMi0uMDU0LS4xMTItLjE2NnYtLjI2MmMwLS4wODUuMDEtLjE1LjAzNy0uMTg2YS4zOTkuMzk5IDAgMDEuMTUtLjExM2MuMTg1LS4wOTYuNDA5LS4xNzYuNjctLjI0LjI2LS4wNy41MzctLjEwMS44My0uMTAxLjYzMyAwIDEuMDk2LjE0NCAxLjM5NC40MzIuMjkzLjI4OC40NDIuNzI2LjQ0MiAxLjMxNHYxLjczaC4wMXptLTIuMTYxLjgxMWMuMTc1IDAgLjM1Ni0uMDMyLjU0OC0uMDk2LjE5MS0uMDY0LjM2Mi0uMTgyLjUwNS0uMzQyYS44NDguODQ4IDAgMDAuMTgxLS4zNDFjLjAzMi0uMTI5LjA1NC0uMjgzLjA1NC0uNDY1VjcuMDNhNC40MyA0LjQzIDAgMDAtLjQ5LS4wOSAzLjk5NiAzLjk5NiAwIDAwLS41LS4wMzNjLS4zNTcgMC0uNjE4LjA3LS43OTMuMjE0LS4xNzYuMTQ0LS4yNi4zNDctLjI2LjYxNCAwIC4yNS4wNjMuNDM3LjE5Ni41NjYuMTI4LjEzMy4zMTQuMTk3LjU1OS4xOTd6bTQuMjczLjU3N2MtLjA5NiAwLS4xNi0uMDE2LS4yMDItLjA1NC0uMDQzLS4wMzItLjA4LS4xMDYtLjExMi0uMjA4bC0xLjI1LTQuMTI3YS45MzguOTM4IDAgMDEtLjA0OS0uMjE0YzAtLjA4NS4wNDMtLjEzMy4xMjgtLjEzM2guNTIyYy4xIDAgLjE3LjAxNi4yMDcuMDUzLjA0My4wMzIuMDc1LjEwNy4xMDcuMjA4bC44OTQgMy41MzUuODMtMy41MzVjLjAyNi0uMTA2LjA1OC0uMTc2LjEtLjIwOGEuMzY1LjM2NSAwIDAxLjIxNC0uMDUzaC40MjVjLjEwMiAwIC4xNy4wMTYuMjEzLjA1My4wNDMuMDMyLjA4LjEwNy4xMDEuMjA4bC44NDEgMy41NzguOTItMy41NzhhLjQ1OC40NTggMCAwMS4xMDctLjIwOC4zNDYuMzQ2IDAgMDEuMjA4LS4wNTNoLjQ5NWMuMDg1IDAgLjEzMy4wNDMuMTMzLjEzMyAwIC4wMjctLjAwNi4wNTQtLjAxLjA4NmEuNzYuNzYgMCAwMS0uMDM4LjEzM2wtMS4yODMgNC4xMjdjLS4wMzIuMTA3LS4wNjkuMTc3LS4xMTEuMjA5YS4zNC4zNCAwIDAxLS4yMDMuMDUzaC0uNDU3Yy0uMTAxIDAtLjE3LS4wMTYtLjIxMy0uMDUzLS4wNDMtLjAzOC0uMDgtLjEwNy0uMTAxLS4yMTRMOC4yMTMgNS4zN2wtLjgyIDMuNDM5Yy0uMDI2LjEwNy0uMDU4LjE3Ni0uMS4yMTMtLjA0My4wMzgtLjExOC4wNTQtLjIxMy4wNTRoLS40NTh6bTYuODM4LjE0NGEzLjUxIDMuNTEgMCAwMS0uODItLjA5NmMtLjI2Ni0uMDY0LS40NzMtLjEzNC0uNjEyLS4yMTQtLjA4NS0uMDQ4LS4xNDMtLjEwMS0uMTY1LS4xNWEuMzc4LjM3OCAwIDAxLS4wMzEtLjE0OXYtLjI3MmMwLS4xMTIuMDQyLS4xNjYuMTIyLS4xNjZhLjMuMyAwIDAxLjA5Ni4wMTZjLjAzMi4wMTEuMDguMDMyLjEzMy4wNTQuMTguMDguMzc4LjE0NC41ODUuMTg3LjIxMy4wNDIuNDIuMDY0LjYzMy4wNjQuMzM2IDAgLjU5Ni0uMDU5Ljc3Ny0uMTc2YS41NzUuNTc1IDAgMDAuMjc3LS41MDguNTIuNTIgMCAwMC0uMTQ0LS4zNzNjLS4wOTUtLjEwMi0uMjc2LS4xOTMtLjUzNy0uMjc4bC0uNzcyLS4yNGMtLjM4OC0uMTIzLS42NzYtLjMwNS0uODUxLS41NDVhMS4yNzUgMS4yNzUgMCAwMS0uMjY2LS43NzRjMC0uMjI0LjA0OC0uNDIyLjE0My0uNTkzLjA5Ni0uMTcuMjI0LS4zMi4zODQtLjQzOC4xNi0uMTIyLjM0LS4yMTMuNTUzLS4yNzcuMjEzLS4wNjQuNDM2LS4wOTEuNjctLjA5MS4xMTggMCAuMjQuMDA1LjM1Ny4wMjEuMTIyLjAxNi4yMzQuMDM4LjM0Ni4wNi4xMDYuMDI2LjIwOC4wNTIuMzAzLjA4NS4wOTYuMDMyLjE3LjA2NC4yMjQuMDk2YS40Ni40NiAwIDAxLjE2LjEzMy4yODkuMjg5IDAgMDEuMDQ3LjE3NnYuMjUxYzAgLjExMi0uMDQyLjE3MS0uMTIyLjE3MWEuNTUyLjU1MiAwIDAxLS4yMDItLjA2NCAyLjQyNyAyLjQyNyAwIDAwLTEuMDIyLS4yMDhjLS4zMDMgMC0uNTQzLjA0OC0uNzA4LjE1LS4xNjUuMS0uMjUuMjU2LS4yNS40NzUgMCAuMTQ5LjA1My4yNzcuMTYuMzc5LjEwNi4xMDEuMzAzLjIwMi41ODUuMjkzbC43NTYuMjRjLjM4My4xMjMuNjYuMjk0LjgyNS41MTMuMTY1LjIxOS4yNDQuNDcuMjQ0Ljc0OCAwIC4yMy0uMDQ3LjQzNy0uMTM4LjYxOWExLjQzNiAxLjQzNiAwIDAxLS4zODguNDdjLS4xNjUuMTMzLS4zNjIuMjMtLjU5MS4yOTktLjI0LjA3NS0uNDkuMTEyLS43NjEuMTEyeiIgZmlsbD0iIzI1MkYzRSIvPiYjeGE7JiN4YTs8ZyBjbGlwLXJ1bGU9ImV2ZW5vZGQiIGZpbGwtcnVsZT0iZXZlbm9kZCIgZmlsbD0iI0Y5MCI+JiN4YTsmI3hhOzxwYXRoIGQ9Ik0xNC40NjUgMTEuODEzYy0xLjc1IDEuMjk3LTQuMjk0IDEuOTg2LTYuNDgxIDEuOTg2LTMuMDY1IDAtNS44MjctMS4xMzctNy45MTMtMy4wMjctLjE2NS0uMTUtLjAxNi0uMzUzLjE4LS4yMzUgMi4yNTcgMS4zMTMgNS4wNCAyLjEwOSA3LjkyIDIuMTA5IDEuOTQxIDAgNC4wNzUtLjQwNiA2LjAzOS0xLjIzOS4yOTMtLjEzMy41NDMuMTkyLjI1NS40MDZ6Ii8+JiN4YTsmI3hhOzxwYXRoIGQ9Ik0xNS4xOTQgMTAuOThjLS4yMjMtLjI4Ny0xLjQ3OS0uMTM4LTIuMDQ4LS4wNjktLjE3LjAyMi0uMTk3LS4xMjgtLjA0My0uMjQgMS0uNzA1IDIuNjQ1LS41MDIgMi44MzYtLjI2Ny4xOTIuMjQtLjA1MyAxLjg5LS45OSAyLjY4LS4xNDMuMTIzLS4yODEuMDYtLjIxOC0uMS4yMTMtLjUzLjY4Ny0xLjcyLjQ2My0yLjAwM3oiLz4mI3hhOyYjeGE7PC9nPiYjeGE7JiN4YTs8L3N2Zz4=;" vertex="1" parent="1">
          <mxGeometry x="820" y="120" width="100" height="100" as="geometry" />
        </mxCell>
        <mxCell id="5GPRaHHNxdMrhig5xY4P-31" value="" style="shape=image;verticalLabelPosition=bottom;verticalAlign=top;imageAspect=0;aspect=fixed;image=data:image/svg+xml,PHN2ZyB4bWxucz0iaHR0cDovL3d3dy53My5vcmcvMjAwMC9zdmciIHZpZXdCb3g9IjAgMCA1MTIgNTEyIiByb2xlPSJpbWciIGFyaWEtbGFiZWw9IkdtYWlsIj48cmVjdCBmaWxsPSIjZmZmZmZmIiByeD0iMTUlIiBoZWlnaHQ9IjUxMiIgd2lkdGg9IjUxMiIvPjxwYXRoIGQ9Ik0xMjAgMzkyVjE1MS4wNzVoMjcyVjM5MiIgZmlsbD0iI2YyZjJmMiIvPjxwYXRoIGQ9Ik0yNTYgMjg1TDEyMCAzOTJsLTQtMjEyIiBmaWxsLW9wYWNpdHk9Ii4wNSIvPjxwYXRoIGQ9Ik0xMjAgMzkySDk3Yy0xMiAwLTIyLTEwLTIyLTIzVjE0M2g0NXoiIGZpbGw9IiNkNTRjM2YiLz48cGF0aCBkPSJNMzE3IDM5Mmg3N1YxNTlIODIiIGZpbGwtb3BhY2l0eT0iLjA4Ii8+PHBhdGggZD0iTTk3IDEyMWgzMThMMjU2IDIzNCIgZmlsbD0iI2YyZjJmMiIvPjxwYXRoIGQ9Ik0zOTIgMzkyaDIzYzEyIDAgMjItMTAgMjItMjNWMTQzaC00NXoiIGZpbGw9IiNiNjM1MjQiLz48cGF0aCBkPSJNOTcgMTQzbDE1OSAxMTUgMTU5LTExNSIgc3Ryb2tlLXdpZHRoPSI0NCIgc3Ryb2tlLWxpbmVjYXA9InJvdW5kIiBzdHJva2U9IiNkZTUxNDUiIGZpbGw9Im5vbmUiLz48L3N2Zz4=" vertex="1" parent="1">
          <mxGeometry x="1061.48" y="470" width="76" height="76" as="geometry" />
        </mxCell>
        <mxCell id="5GPRaHHNxdMrhig5xY4P-35" value="" style="edgeStyle=none;orthogonalLoop=1;jettySize=auto;html=1;rounded=0;fillColor=#e1d5e7;strokeColor=#9673a6;" edge="1" parent="1" target="5GPRaHHNxdMrhig5xY4P-14">
          <mxGeometry width="100" relative="1" as="geometry">
            <mxPoint x="170" y="310" as="sourcePoint" />
            <mxPoint x="190" y="230" as="targetPoint" />
            <Array as="points">
              <mxPoint x="310" y="150" />
            </Array>
          </mxGeometry>
        </mxCell>
        <mxCell id="5GPRaHHNxdMrhig5xY4P-38" value="" style="edgeStyle=none;orthogonalLoop=1;jettySize=auto;html=1;rounded=0;fillColor=#e1d5e7;strokeColor=#9673a6;" edge="1" parent="1" target="5GPRaHHNxdMrhig5xY4P-29">
          <mxGeometry width="100" relative="1" as="geometry">
            <mxPoint x="400" y="180" as="sourcePoint" />
            <mxPoint x="520" y="270" as="targetPoint" />
            <Array as="points">
              <mxPoint x="330" y="150" />
            </Array>
          </mxGeometry>
        </mxCell>
        <mxCell id="5GPRaHHNxdMrhig5xY4P-42" value="" style="edgeStyle=orthogonalEdgeStyle;rounded=0;orthogonalLoop=1;jettySize=auto;html=1;fillColor=#ffe6cc;strokeColor=#d79b00;" edge="1" parent="1" source="5GPRaHHNxdMrhig5xY4P-39" target="5GPRaHHNxdMrhig5xY4P-22">
          <mxGeometry relative="1" as="geometry">
            <Array as="points">
              <mxPoint x="1050" y="310" />
              <mxPoint x="1050" y="310" />
            </Array>
          </mxGeometry>
        </mxCell>
        <mxCell id="5GPRaHHNxdMrhig5xY4P-39" value="" style="shape=image;verticalLabelPosition=bottom;verticalAlign=top;imageAspect=0;aspect=fixed;image=data:image/png,iVBORw0KGgoAAAANSUhEUgAABGoAAAUACAYAAAAfr7SOAAAABGdBTUEAALGPC/xhBQAAACBjSFJNAAB6JgAAgIQAAPoAAACA6AAAdTAAAOpgAAA6mAAAF3CculE8AAAABmJLR0QAAAAAAAD5Q7t/AAAACXBIWXMAABAOAAAQDgE1FGXkAAAAB3RJTUUH5AMNExsv6Ey60wAAgABJREFUeNrs/XmU3ed933l+nt+9taAAkuAmkeKmzbYiUXTcsS3HieAk3iRBkrt75uRMJrEtipTizulOZqYD/9GnZ6anM9OxSMqd7jNnpk8HSvf0yZyZc+YkEklJlKyNWmxZkmVrtayVGwASXEASay33/p75495bVQALJEgCuL+qer2OrqpQC+opsED+6l3P7/mWAMAZ9t56c1KTlOyubd6987L+P7v+Dbt6M3PNv601H62pPywpwyQZPns0f/iff2PaSwYAgC2hTHsBAHTH3ltvnjx7WZJfS3Jran5l/pLerpvedGl6/bKc5IEkn0lyT5KvppSnU2tqkrtu/8K0PwUAANjUhBqAbW7vrW/OaPtMklGg+fUk702yJ8nO1GT+kl7GoWb9ux5L8vUkH03NJ2ryg1KykiSlllx6suS//Gf3T/vTAwCATUWoAdimXjDQTJw91Kx7izyc5HMZ7bL545Vm8Hi/9pOU9FLzgdvstAEAgHMh1ABsM3vf++ak1skZNGcPNBMvHGrWO5Xk20nuTXJfSvlurXVx8p+bu27//LQ/fQAA6DShBmCb2CDQ/FpGgeZXslGgmXhxoWa9x5J8McmHa8oXB+kdnMlgvIWnyZ233z/tPxIAAOgcoQZgi9t7+y3JsD1zB82teaFAM/HSQ83EUpLvJ7kvo5023yjJiZqklJI7brPLBgAAJoQagC1q73+1J3noyLnf4nQ2Lz/UrPdkkj9Nyj1JPt30ysPtsB2mJCcWav4f/+CL0/5jAwCAqRJqALagvbfevFGg+ZUkCy/6Nzu/oWZikORHST6d5J6UfK03yDPDXlLa5I73O3wYAIDtSagB2EL23nrz5NmXH2gmLkyoWe9okq8luSc1nyq1/LA2dVBq8lMnHsz7/ncPX9Q/QwAAmCahBmCTe8etN6//l/n5CzQTFz7UTLQZjfn+TJKPlJqvDErviX6GadOmNr188L3OswEAYGsTagA2qb23vjlJTalJfTln0LyQixdq1juZ5FtJ7klyX039XlPLUk2SUjL/eMm/+C/uv1hrAQCAi0aoAdhkNhiz/RsZBZq35nwGmonphJr1Dib5UpIPJ/lCM3fZo8OlZ1OS1F7NXbc6gBgAgK1DqAHYJDYINC9uzPZLNf1QM7GY5C+TfCI196bUb6VtTpamptSSD7zPbVEAAGx+Qg1Ax+297ZakbV/+mO2XqjuhZr0nkvxJkntK8tmZYf/h5d6gTZJeqfmD2+yyAQBgc+rMFTcAp9v7n78lOXJieoFmopuhZmIlozHfn0jy0SR/1tYcbUpSU3LX7XbZAACwuXTuihuA8Zjt5waa8zPF6cXqdqhZ75mMxnzfXVM+XVN+3KQdpCRt7eeDt3922usDAIAX1OkrboDtZu+tN0+enX6gmdg8oWZimOShjMd8p+Qrqe1TSZNSSu64zS4bAAC6a1NccQNsZZMx22OTQHNbRrc4TS/QTGy+ULPe8STfTHJvko+XUr5fa12uJWnapBm2+YPf+9K01wgAAKs23RU3wFbR+UAzsblDzbrPIgeSfDHJh2vJl9omj/WGSWlL2lJy1/vun/YaAQBAqAG42M4yZvviHxJ8rrZGqFlvMcl3knw8NR8rtXy79tpTpZa0JfnwkeTH+74w7TUCALBNbYkrboDNYNMFmomtF2rWezyjXTZ3l+QLg14e7g1Ta5K2n/zhewQbAAAuri13xQ3QNXtvuyVp280XaCa2dqiZWEny/YzGfN9bU/+iPyzHhr0kKbnTmG8AAC6SLXvFDTBte//pzyfHFjdvoJnYHqFmvSMZjfn+SJJPJ82DSTtIaupszV2/4/BhAAAunG1xxQ1wse299eaNAs10x2y/VNsv1EwMkjyQ0Zjvu5P6lTJonk4/KW3ygffbZQMAwPm3ra64AS60vbfePHm2u1OcXqztG2rWO5bkz5N8tCT3NW3zg2HTrpQk8/02//V77LIBAOD82LZX3ADnyxljtnfn9FucNm+gmRBqzvjTyCNJPpfknpL88bDmcFOSUkratuau9zmAGACAl27bX3EDvFRnBJrLkvxGtlKgmRBqzuZUkm8n+WhN7mtKvpOaxVqSUkvambnc9bt/NO01AgCwybjiBniRNu2Y7ZdKqDkXjyX5UpIPJ/nCfLtwcLE5WUtKSkk+cJvzbAAAODeuuAHO0bYLNBNCzYuxlMmY75J7Si3fHNb2eGlKmja5w21RAAC8AFfcAC9g7223JG27/QLNhFDzUj2Z5KtJPlJLPtMb1IfaXhmmJrX2ctf7Pzft9QEA0EGuuAHOYu8//tlkuR3toilbaIrTiyXUvFyDJD9K8ukk96SWr5Zm+GytTWpJ7rrNLhsAANa44gbYwOpBwaVcllq3Z6CZEGrOp6NJvpbkYyX55LDkh03NSpKc2lHzf/+HX5z2+gAAmDJX3ADrrE1yKuMdNHX7BpoJoeZCaJM8nOSzSe6pJX8yt5QnlmdLUpM73+fwYQCA7coVN7DtjQ4JTsaBZndGgWbrjdl+qYSaC+1kkm8luSfJfanlr1LqYlKzfM0g84d7+cBtX5r2GgEAuEhccQPblkBzjoSai6UmeTTJF5N8OKlfnP3GpYdW/vrxlDYZ9pK7jPkGANjyXHED284ZgWZyi9P2meL0Ygk107CU5HtJ7ivJPaWWb9W0J1NK2iRPz12aD/32R6e9RgAALgBX3MC2IdC8RELNtD2R5MtJ7i7JZ4dpHu6lbWtGX8l33W5qFADAVuKKG9jy9t52S7L6ba1A86IJNV2xkuSHSf4oyb1J/qyUHB1Njy+543a3RQEAbAWuuIEta+/7b0lWnhNobkvy1gg0506o6aJnMhrzfXdSPt2k+Umb4UqS9Hq9/MGtn5v2+gAAeIlccQNb0hljtn/DIcEvg1DTZcOMxnx/OqNbo74yGA6f7PV6KTW5431uiwIA2GxccQNbyhmBZrKDRqB5OYSazeJ4km8muTcl9zXD+v22KUtJUlfmctd/8qlprw8AgHPgihvY9IzZvsCEms2mJjmY0ZjvjyT5Qju7+FizPJ+2JE1N7nQAMQBAZ7niBjYtgeYiEWo2s8Uk303yiST31OTbJTlVS1JqkuWV3PlPvjztNQIAsI4rbmDT2WDMtjNoLiShZqt4PMkfJ7k7Jff3hs3Dw16taZNaqjHfAAAd4Yob2DQ2CDTGbF8MQs1Ws5LkB0nuS/LR1PLnpdRjNUlKclnv2fyX7/nmtNcIALBtueIGOm/vbbck7XPGbAs0F4tQs5U9neSrST6Sks+UUh+obTNIampTctd7Pz/t9QEAbDuuuIHO2vu+W5LBaYHGLU7TINRsB8MkDyT5dEn5SE39ajNsn257TWpK7rpdsAEAuFhccQOddMaYbYFmmoSa7eZYkr9Icm9JPtGm/KCkLqcmw1Lzh7d/cdrrAwDY0lxxA50i0HSQULNdtUkOJPl8kruTfKmXcniYpKTkjtvvn/b6AAC2JFfcwNQZs91xQg3JqSTfTvKxknw8ab5b054qSWbn53OsXcx/9zumRgEAnA+uuIGpEWg2CaGG0x1O8sUkd5fk85fdeP0jzz50IKk1bSm5632CDQDAy+GKG7joBJpNRqhhYytJ/iqjMd/3lFq/maYcr7WkJJkfnMp//XtfnfYaAQA2HVfcwEVzRqCZnEFza4zZ7jahhhf2VEZjvj+clM/0anlo0NRhqTU1NXc5gBgA4Jy54gYuuL23vXl0LKlAszkJNZy7QZKfJPl0ko8k+VpJ80wtbVKTO293WxQAwAtxxQ1cMHvfd0syqDHFaZMTanhpnk3y9SQfrSWfbNr8sJasJEkpNXfcZpcNAMBGXHEDF4Qx21uIUMPL0yZ5OMnnktybmi+1tXmiaVrBBgBgA664gfNKoNmChBrOn5NJvpnkYym5r6T+Za1lsSZJr5e7bv3ctNcHADB1rriBl80Upy1OqOH8q0keS/LFkny4Tb542be+ffDoLW9Om5Km1Nx5m/NsAIDtyRU38JIJNNuEUMOFtZTRmO+PJ7m3pnyr1PZEUjJsamZ7JX/wHtEGANg+XHEDL5pAs80INVw8TyT5SkYToz5Te+1DZdCrKUkpyR23fX7a6wMAuOBccQPn7HkCzVtjzPbWJdRw8Q2S/DDJH5WUe2vytdoOjzZNk1qSA9ct5//ztj+d9hoBAC4IV9zAC9p725tHc1sEmu1JqGG6nknytST3luRTbVN+1AzroCapJbnrdrdFAQBbiytu4Kz23n5LMqwxxWmbE2rohjbJQ0k+neTu1PqVXtM8Oaw1pZbc8T63RQEAW4MrbmBDe2+9efycQLPtCTV0z/Ek30pyT1I+0dR8vy11MUnaDPPB2/942usDAHjJXHEDG3rHe97UlFLeleT3ItBsb0IN3VWTPJrkC0n+fZIv7cjOR0/lRFJr7nzfF6e9PgCAF80VN7ChvbfevDPJZ5K8ZdprYcqEGjaHxSTfTfKJlNxb2vrtWsrJJOn3hlkpTe56j3ADAHRff9oLADqrxL8jgM1jPsnfSPI3UvO+WsqXk9yT5DNNBg+XwVz9/Q+9NaVt8gHn2QAAHeZHo8CG9t56864k92f0jQ/bmR01bF6DJN9P8smU3FuSrw/THitpUlIykzb/zW122QAA3eKn5QDAVtVP8qYkb0rNrTX5apPmI7Xks6Xkx8ttGf7z/b+SUpI7b7PLBgDoBqEGANgOLk/ym0l+rdQ8WGv9VEnurslX62B4ZN/+PSklmV1I/q//4AvTXisAsI0JNQDAdtJL8rrx4x+W1G+k19yb5L5S8oOlE1ne96E9adLkA7fdP+21AgDbkMMGgA05o4ZVzqhh66tJHkny+ZJydy350tLy4uG5mbnUUnKX26IAgIvIFTewIaGGVUIN28upJN9Ocl+Sj9WmfKe09VSSDFPzh7c7fBgAuLDc+gQAsGZHkl8cP36vtPWLSe5JzeePDocP//7+PSk1GTbJXbc5ywYAOP/8aBTYkB01rLKjBlYyGvP98aR8tKn1GzU5VksyzDDtbC//6ndEGwDg/LCjBgDg+c0kuXn0qO9rS/40yUeSfCalPDC7lHbfv35rkpI73yfYAAAvj1ADAHDuLk/y9iS/keTHvdp8upZ8JDVfq/08s2//niQ1w501f/gPvjTttQIAm5BQAwDw4vWS/PT48Q9TyjfKMPck+USSH/aONyu/v39PmrbkD95vahQAcO4cNgBsyBk1rHJGDZyrmuShJJ9LyT2l5o9PzQyemF/pp5TkDocPAwDnwBU3sCGhhlVCDbwUJ5N8K8nHU3JfSb5TaxaTpDQld7zXLhsAYGNufQIAOP8WkvxSkl9KzX9Sky8m+UhN+cJb/qNfOLivrSlNcsd77bIBAE7nR6PAhuyoYZUdNXC+LCX5qyT3JbmnNPl2bevxlJJeevmD2z437fUBAB1gRw0AwMUxl+Rnx4/ba5uvJOUjST6T5KF9+/e0bVPSG9bcYcw3AGxbQg0AwMV3VZK9SX4zNT8aZvipJHeX1D8bNnl23/49qUky7Oeuf/zZaa8VALiIhBoAgOnpJ3nD+PE7pc3XSnJvkk/Vmh/2eoPB7+/fk7Ykd5kaBQDbglADANANlyX5tSS/muTBpuTTNeXekvrluWF5ct/+PUlJnrpikH/zH/3JtNcKAFwgToUENuQwYVY5TBim6USSbya5J8knayl/1RvWxbYkpZbc8X5jvgFgq7GjBgCgu3Ym+eXx45+WWj/fNvlwav3SLf/HNz26b39NSs2dt31x2usEAM4TPxoFNmRHDavsqIGuWUzyvSQfT3JvSv1OajlRUtIflPw3v3f/tNcHALwMdtQAAGwu80l+bvx4X2r5cpK7k3x2fqn38L79e2opyR0OHwaATcmPRoEN2VHDKjtqYDMYJPl+kk+n5O6SfD21Hq0paZqSQdvmg7e7PQoANgM7agAANr9+kjcleVNqfrcmX03KPUk+lVp/3EsZ/v6H9iS1yR233z/ttQIAz0OoAQDYWnYn+Y2MRn0/2NZ8KslHSvLVQVk6su9De1Jq0rZN7nr//dNeKwBwBnvYgQ259YlVbn2CreBYJmO+Sz5Ravl+LXU5Scqw5o73uy0KALrCjhoAgK3vkiR/O8nfSs1/VlM/n5qP1JIvPX7dwuF9+/eM32hH/k+3f3LaawWAbc2PRoEN2VHDKjtqYKs6leQ7Se5L8rEk3x6/LG1JPmhqFABMhR01AADb044kvzB+/OMkXyrJvTX57PEmB/bt31NrKbnrts9Pe50AsK340SiwITtqWGVHDWwnK0n+Ksknkny0lvKNUuvRJGkGTT7we/dPe30AsOXZUQMAwMRMkjePH7eXWr+S5COp+WxN/fG+f72nTVOTlNzp1igAuCCEGgAANnJ5krcl+fWUPFD79Y+SfCTJn9Vh8/Tv/+tfSanJsF9y13vvn/ZaAWDLEGoAAHg+vSSvHz/+UWr5i9K096SWTyT5YdMOV35//560KbnrdufZAMDL5bABYEPOqGGVM2qA56pJHk7y+ZR8uNT88cLw5BMnegtJTZZKm//+9i9Ne40AsCm54gY2JNSwSqgBnt/JJN9K8vEkH0+t3y2lLI4uM0vuuP3+aa8PADYVtz4BAPByLCT5pfHjn6SUL9TknpJ8fi5XHti3f0+S5ImHrs7//C/+3bTXCgCd50ejwIbsqGGVHTXAi7eU5PsZ7bL5aEY7bo4lSdPWfOD9X5z2+gCgs+yoAQDgfJtLcsv48b4kf5rRxKjPlGF9aN/+PW1ScqfDhwHgOYQaAAAupCuT7E3ym0l+NJxpPp3xmO///ENvfbakpK1JkzZ3OYAYAIQaAAAuin6SN4wfv53Urze1fDTJfU3Kj0p6g3/+oT3p1ZIP2GkDwDbmsAFgQ86oYZUzaoALpyZ5MMlnk9xdS768UodPztZekqTptfnAe+2yAWB7ccUNbEioYZVQA1wcJ5J8M8lHU/PJJN+tyVJpkpKaO25zADEA24NbnwAA6IKdSX45yS+n5D9N8vkyOsvmS3OXHD+071/vSUrSzszkg7/7mWmvFQAuGD8aBTZkRw2r7KgBpmcxyfeSfLzU8tFa8p3U9nhKSVuafPC2+6e9PgA47+yoAQCgq+aT/FySn6ulvj/Jn6aUDyf57ErpPbJv/542NbnzfV+Y9joB4LwRagAA2AyuTvKuJG9L8sO5duVTSe5O8uf79u95tqQkpckdt31u2usEgJdFqAEAYDOZSfLG8eN3U/K1JB9N8skkP9q3f88wSWpJ7rrNThsANh+hBgCAzWp3kl9P8qs19cHU4aeS3JPkK71hfWrfv96TkpphKfng7aINAJuDUyGBDTlMmFUOEwY2l+NJvpHkntR8otT6/TRluaakqTUfcJ4NAB1nRw0AAFvJriR/O8nfSsk/raV8PsmHS/Kl64/OHd63f0+SZJhB/vD2P5n2WgHgOfxoFNiQHTWssqMG2PxOZjzmO8m9SflOSU7V1DQp+cDtn5/2+gBglR01AABsdQsZ/eDhbyR5f1L/uCb3pOSzO9rZA/v276lJsnNuKf/Vb39l2msFYJvzo1FgQ3bUsMqOGmBrWk7y/SR/lNHUqK/XWo6VUlNKzR23fXHa6wNgm7KjBgCA7Wg2yZvHj/cm+Uop9e6UfKYp9Sf79u8ZppTceZvbogC4uIQaAAC2u8uTvC3Jr6fmgWFtPpXk7iR/9s//9Z6nSkkGpZeZtLlDuAHgAhNqAABgpJfk9ePHb6fWvygldyf5REn9QW3blX379yQlufM2Y74BuDAcNgBsyBk1rHJGDbC91SQPJ/l8kg8n+ZPlx3qPz13TppaMpkbddv+01wjAFuKKG9iQUMMqoQZg4mSS7yT5eEn5aC35bq3tYklJbUrueq/bogB4+dz6BAAA52YhyS8m+cWa+nup+UJJuSfJ55fnewf37d9TU5OV0uZf3f6laa8VgE3Kj0aBDdlRwyo7agCez1JGY74/npqPJfUbpZTjSUmpNR94n7NsAHhx7KgBAICXbi7JLUluScn7kvKVmny4JJ/ttfWhffv3DJPkcA7mf7n9x9NeKwCbgFADAADnx5VJ3pHk12vqAyu98kcZjfn++rW5/unf339dmjT5g9vvn/Y6AegwoQYAAM6vmSQ/PX78dpI/b1PvTcl9afOjffv3DEZvVrP8qpX8d+/402mvF4AOcdgAsCFn1LDKGTUA50NN8mDWjflObZ5MaVNSk1pyh/NsAIgdNQAAcDGUJK8ZP/5+km+mtB9NyX2llr9sS5b2fehXUlJzx22CDcB25kejwIbsqGGVHTUAF9KhjHbZ3JNSvrhzpj10YrnUmpJer+QDt94/7fUBcJG54gY2JNSwSqgBuBiWknwvyceSfKyW8q207YlSSkqT3PFeu2wAtgu3PgEAwPTNJfnr48f7S61fTil3J/ls6eXhffv3tClJv/TzL9/72WmvFYALSKgBAIBuuTrJu5O8PcmP25X8UVLuTurXV9qVZ/ft35Nhr+QPb/38tNcJwAUg1AAAQDfNJHnD6FF/JzVfKyn3Jvmj2uRH+/bvGaYmd5oWBbClCDUAANB9u5P8epJfTfJAf6V+LsndSf503/49T5aUNHWYlabJB02NAtjUhBoAANg8miSvGz/+QUq+keSeJJ+sKd/r1Szv278ntSR3vfcLRocAbEL+1Q1syNQnVpn6BLAZHMzov9sfTvLHP3zjKx/76b88nNSStMkd/9h5NgCbhStuYENCDauEGoDN5FSSv0zy8ZLcm1q+0zbtqVJLUmruvO2L014fAC/AFTewIaGGVUINwGZ1OMmfJvlwUj9Xe+2BMuy1JSVJmztuF20AusgZNQAAsDW9MslvJXl7Un5Qhr1PJvlokq/XlGP7PrQnTZIPOHwYoFOEGgAA2Npmk9w8fry3pn4lo2DzRyX5yb79e4ZJMj8/k3/xjz4z7bUCbHtCDQAAbB+XJ3lbkl9PzQPD5FMZTY366qlTy0f27d+T0iR3vNcuG4BpEWoAAGD76SV5/fjx20n+opRyd5JPluQH+/a/dbmUJrXWtINePvh7n5v2egG2DadCAhtymDCrHCYMsF3UJAcyHvNdSvmTYdrDTS0Z9pLeoObO9zmAGOBCc8UNbEioYZVQA7AdnUrynSQfS/LRtsl3mzaLk1feebtbowAuFFfcwIaEGlYJNQDb3WNJ/jjJR5LcX9IcTNqa1NQmufO9dtkAnE/OqAEAAJ7PNUn+V0neleSvatr7SvLxJH+eYXN83/49qU3JXe/9/LTXCbAlCDUAAMC5mE1yS5JbavK+pHw5pd6d5LNtkwf37d8zTE16K03+4J/cP+21AmxaQg0AAPBiXZFkb5LfTPKT3qB+qiR31+TPBvPDp/ft35M01W1RAC+BUAMAALxU/SQ/neSna/LbKfmL0paPJPWTteRH+/bvWSkpyczDueN3H5j2WgE2BadCAhtymDCrHCYMwIvTJnk4o+uIj5SUP6nJE0lNU5JBLfng7c6zATgbV9zAhoQaVgk1ALx0J5N8K8nHU/LRJvnL2talWkpSk0dzMv/2fX827TUCdIorbmBDQg2rhBoAzo9DSb6Q5O4kXxwcWzrYv3QuJSWpTe64/XPTXh9AJ7jiBjYk1LBKqAHg/FpK8r2Mdtl8rKR8s9bhiaRJktx5+xemvT6AqXLFDWxIqGGVUAPAhfNkki8n+XBJ7k8tD9dShzVJ09bc8X5To4Dtx9QnAABgWq5K8q4kb6vJj1PqHyW5OyVfr73m2X379yQpudPhw8A2ItQAAADTNpPkDePH75Saryf1niSfLMmP9+3fM0hJ0mtz53u+NO21AlxQQg0AANAlu5P8apK/k+TBmvq5ktxTky9npffkvv170vZKPnirXTbA1iTUAAAAXdRL8rokr6vJP0jNN1Lqx5N8PMn3/vn+ty6VWpKS9HvD/Mtb/3ja6wU4L5wKCWzIYcKscpgwAN1yMMnnk3wkNX9cajlUm5o0NaUmd9zmAGJgc3PFDWxIqGGVUANANy0l+cskH03qR9Pk2xk2p0qpqSk5fu0r8v/c+/+b9hoBXjRX3MCGhBpWCTUAdN/hjMZ8f6TUfK5tmgOltm2SDEuTP7zt/mmvD+CcOaMGAADY7F6Z5D9MsreW/LDU9o+SfCTJn8+0g2P79u9JanLn+74w7XUCvCChBgAA2Cpmkrxx/PjdJF9pS3Nvkk/V1Af27d8zKCmZGZT8337v/mmvFWBDQg0AALAVXZ7kbUl+PckDpZTPpOTe1Hz51NzwiF02QFcJNQAAwFbWS/L6JK9PzT+sqX/RG5Z7knwyKd/ft3/PcpL0lwf5l//kT6a9VgCHCQMbc5gwqxwmDMDW02Y05vv+jM6y+ZN2pvdYb2WYpKTUmg/YaQNMiStuYENCDauEGgC2tsUk303y0ST3lpTvtqUuliSpySDL+W9v/9NprxHYRlxxAxsSalgl1ACwfTya8ZjvlNzf1HqgTVNrU9Nrm3zg9vunvT5gG2imvQAAAICOuDbJf5xkf2o+1qbcmdS3Jtk1yDC/v/9Xpr0+YBtwmDAAAMDpZpO8efy4tbT5ckn5SJJ7kjw+7cUBW5tQAwAAcHZXJNmb5O+l1uNJ/r/TXhCwtbn1CQAA4IX1k8xPexHA1ifUAAAAnJs67QUAW59QAwAAANARQg0AAABARwg1AAAAAB0h1AAAAAB0hFADAAAA0BFCDQAAAEBHCDUAAAAAHSHUAAAAAHSEUAMAAADQEUINAAAAQEcINQAAAAAdIdQAAAAAdIRQAwAAANARQg0AAABARwg1AAAAAB0h1AAAAAB0hFADAAAA0BFCDQAAAEBHCDUAAAAAHSHUAAAAAHSEUAMAAADQEUINAAAAQEcINQAAAAAdIdQAAAAAdIRQAwAAANARQg0AAABARwg1AAAAAB0h1AAAAAB0hFADAAAA0BFCDQAAAEBH9Ke9ANiM3vneW9IO21x53Vyued3O1JokJb1+Lx94z2envTwAAAA2KaEGztG73vOG1NJLTUlJZmryM6WUt6TmcJLvJ3l85dTJZ/ft3zN6hzp63Pn+L0x76QAAAGwSQg08j73vuXn0TElWerPpD5euSfLLbW3fXUr+Tq25rpSspObJpP6gNzP7l0m+mVq/lZQDSZ7Yt3/PYPKb1F5S2pqSmjtu++K0Pz0AAAA6RqiBM7zr1ptT62xqs5KkJm0Wkry5N1x+R03Zm+SNSXase5d+khvGj19NMkwpR5M8kJIfJPlmkj9P8kBqDp7a1z+5445Bfn//niQlSVJT8+3bv5BPTPuTBwAAYKqEGhjb+56bk1LTJmlK29TUm1Lz91Ly7iR/M8nV5/hb9ZJcPn78B0n+N0lOJfVQafPAjjsG307yZ0l+kOSBUvJMrRm+ef+e3JKM1lCb1EGTD/7e56b9xwIAAMBFJNSwrb3j9jelGZbUJGlK0tbLk/x8m8FvpeZXk7w+5+fvyY4krxs/fi3JsCZPJfXhWvO9jMLNXyb5UZLDN8w+c+pALsu+/XsyOqm4pLTJHf/YeTcAAABbmVDDtvTO9745tdZkmKSWuSRvSFt/PSnvSvKzSS67wEvoJXnF+PHzSX47ybGaPJZafnRg+bI/T/LtpH4/qQ+WWo7Xfgajg4pH4ab2S+56z+en/UcJAADAeSTUsG38R7e+OcujvTOZ6e0oy4OT1yZ5ay31t5K8Ncn1U17iJePHTyV5e5KVpDyZUh6uJd9KzbeSfDfJD1NzpFlsT04mTJVS0iT5g9uEGwAAgM1MqGHLe+d73pxaapZSU2p2pcnPLQ9OviPJ25K8Icn8tNd4FjNJrh0/3jJ+2bNJOZyS79V++WaS75RRvHlsZ3/26X3799TJO5eSfOC9X0gp0/40AAAAOFdCDVvSf/y/3Zul+YdH57u06afkNSX5tZS8KzVvSXLFtNf4El02fvx0kt9KsliTp1Prj46uLH03ybfGjwdL8uS+/XuW9u0fvWNNTTn5ZO78p9+b9ucAAADAWQg1bBmjqU1tkiaL5Ucpmb0qyVtqU9+d5O8leU1GZ8NsJfNZ23Xz1oxO3TmR5OG25q9KyXcyGg3+gySPlSt+5tl9+8fDq2oy7C+nN5xNr7T5g9u+NO3PBQAAYNsTatjUfusfvTErc72UdvWOn/kkbyx15h1JfUeSW5LsnPY6L6JekkuT3Dx+/K+TLCU5XFJ+XBePfC/J15N8J8kjpW0eryXDYW2y70N7Uto2aXrpNyXf/MKT0/5cAAAAth2hhk3pHbfdktRhVlKSXkra3JjkrUnzW0l+Ocmrpr3GDplLcuP48XeTtEmeScnDTe3/IKMdN99M8pOUcmCm1z+1NFipR59cHl561ey01w4AALCtCDVsGm97/8+mt9ymlDZlZSXDfu/SUvMfZKW+M6ODgX86owN4eX5NRmf0XJHkryf5+0lOpebRmvLA8mDlG03yFz/361cf+Mk3j87Vtd1KAAAAXGBCDZ03mdqU5WGSMpPkdW2v9+ul5l1Jfj7J5dNe4xawI8lrx49frclwZq45MrujuXTp+DAxOQoAAOCiEGropPf/H67NwWeuTGpy8opT2XFk/pUp+eWkvqum/N2MbuNppr3OLayX5OpSSmp0GgAAgItFqKFT3vU7P5u2N8yBIyWlqTuTvGnHkfm9Sd6e5E1JFqa9RgAAALhQhBqm7i3/xQ256tHLkiTNUr9pe+1NpdS/m5p3J/mbSV4x7TUCAADAxSDUMBXvuO2WlDJM2pJysKQ29fIkPz+YW3p3kl9N8vo4GBgAAIBtRqjhonnnP/q51P4gpWlTh8OkX2ZLzc/Upv5mkncm+bkkl057nQAAADAtQg0X3DtvfWNqaVLrSpoHX5366geuTSlvzTC/VZO3Jrk+zqsFAAAAoYYL43f/2Q156thlqbWkpiQZ7kzKX29f/eDepLwtyV9LMj/tdQIAAECXCDWcV+94z5tSSskTR5Nek36teXXS/r3U8u4kb0ly1bTXCAAAAF0l1PCyvf09P5MmM0lJek3JsK1XleQtbZt3JvVXk7w2SW/a6wQAAICuE2p4yd55682pk1+02ZHkDcO2vj3JO5L8bJJd014jAAAAbCZCDS/a3vfcnJSkn5SV0UHAb02T/zDJ305y7bTXBwAAAJuVUMMLmkxtWt0+U3NpUn9uJeWdSX4zyc8kmZ32OgEAAGCzE2rY0G//Zzfl6ROXjKc2JUnbT8pPJfn1lOxNyi8kuXza6wQAAICtRKjhNO94z5vSlJIjx5LlpTaz871XJPVvjqc2/d0kNyVppr1OAAAA2IqEGpKa7L3t5qQmpSSp2ZGSN83ON3uT+o4kNydZmPYyAQAAYKsTaraxt7/3zWlqTd6b1KY0pdYba82vJPmtJH8zyTXTXiMAAABsJ0LNNjSZ2tQbthk2ze6k/nxp6zuT/EaS1yeZmfYaAQAAYDsSaraJd//OmzLsldEvamaT+tPDpvxGUt+V5OeSXDbtNQIAAMB2J9RscXvf++ak1jx1+Xx2P33q2qS8NSXvTMrfSXJdHAwMAAAAnSHUbEFvv+2WNMOapKYku2ry5t1PL74zKb+Z5E1J5qe9RgAAAOC5hJotYu+tb06pNSnJMGlS6muS/Fqt9V1J3pLkqmmvEQAAAHh+Qs0m987fuSW11yYZpqa5MskvNm377iR/L8nrkvSmvUYAAADg3Ag1m1+T5OakeXtK3pXkZ5PsmvaiAAAAgBdPqNnkatNeluS/zWgHDQAAALCJmfiz+fWS7J72IgAAAICXT6jZGuq0FwAAAAC8fEINAAAAQEcINQAAAAAdIdQAAAAAdIRQAwAAANARQg0AAABARwg1AAAAAB0h1AAAAAB0hFADAAAA0BFCDQAAAEBHCDUAAAAAHSHUAAAAAHSEUAMAAADQEUINAAAAQEcINQAAAAAdIdQAAAAAdIRQAwAAANARQg0AAABARwg1AAAAAB0h1AAAAAB0hFADAAAA0BFCDQAAAEBHCDUAAAAAHSHUAAAAAHSEUAMAAADQEUINAAAAQEcINQAAAAAdIdQAAAAAdIRQAwAAANARQg0AAABARwg1AAAAAB0h1AAAAAB0hFADAAAA0BFCDQAAAEBHCDUAAAAAHSHUAAAAAHSEUAMAAADQEUINAAAAQEcINQAAAAAdIdQAAAAAdIRQAwAAANARQg0AAABARwg1AAAAAB0h1AAAAAB0hFADAAAA0BFCDQAAAEBHCDUAAAAAHSHUAAAAAHSEUAMAAADQEUINAAAAQEcINQAAAAAdIdQAAAAAdIRQAwAAANARQg0AAABARwg1AAAAAB0h1AAAAAB0hFADAAAA0BFCDQAAAEBHCDUAAAAAHSHUAAAAAHSEUAMAAADQEUINAAAAQEcINQAAAAAdIdQAAAAAdIRQAwAAANARQg0AAABARwg1AAAAAB0h1AAAAAB0hFADAAAA0BFCDQAAAEBHCDUAAAAAHSHUAAAAAHSEUAMAAADQEUINAAAAQEcINQAAAAAdIdQAAAAAdIRQAwAAANARQg0AAABARwg1AAAAAB0h1AAAAAB0hFADAAAA0BFCDQAAAEBHCDUAAAAAHSHUAAAAAHSEUAMAAADQEUINAAAAQEcINQAAAAAdIdQAAAAAdIRQAwAAANARQg0AAABARwg1AAAAAB0h1AAAAAB0hFADAAAA0BFCDQAAAEBHCDUAAAAAHSHUAAAAAHSEUAMAAADQEUINAAAAQEcINQAAAAAdIdQAAAAAdIRQAwAAANARQg0AAABARwg1AAAAAB0h1AAAAAB0hFADAAAA0BFCDQAAAEBHCDUAAAAAHSHUAAAAAHSEUAMAAADQEUINAAAAQEcINQAAAAAdIdQAAAAAdIRQAwAAANARQg0AAABARwg1AAAAAB0h1AAAAAB0hFADAAAA0BFCDQAAAEBHCDUAAAAAHSHUAAAAAHSEUAMAAADQEUINAAAAQEcINQAAAAAdIdQAAAAAdIRQAwAAANARQg0AAABARwg1AAAAAB0h1AAAAAB0hFADAAAA0BFCDQAAAEBHCDUAAAAAHSHUAAAAAHSEUAMAAADQEUINAAAAQEcINQAAAAAdIdQAAAAAdIRQAwAAANARQg0AAABARwg1AAAAAB0h1AAAAAB0hFADAAAA0BFCDQAAAEBHCDUAAAAAHSHUAAAAAHSEUAMAAADQEUINAAAAQEcINQAAAAAdIdQAAAAAdIRQAwAAANARQg0AAABARwg1AAAAAB0h1AAAAAB0hFADAAAA0BFCDQAAAEBHCDUAAAAAHSHUAAAAAHSEUAMAAADQEUINAAAAQEcINQAAAAAdIdQAAAAAdIRQAwAAANARQg0AAABARwg1AAAAAB0h1AAAAAB0hFADAAAA0BFCDQAAAEBHCDUAAAAAHSHUAAAAAHSEUAMAAADQEUINAAAAQEcINQAAAAAdIdQAAAAAdIRQAwAAANARQg0AAABARwg1AAAAAB0h1AAAAAB0hFADAAAA0BFCDQAAAEBHCDUAAAAAHSHUAAAAAHSEUAMAAADQEUINAAAAQEcINQAAAAAdIdQAAAAAdIRQAwAAANARQg0AAABARwg1AAAAAB0h1AAAAAB0hFADAAAA0BFCDQAAAEBHCDUAAAAAHSHUAAAAAHSEUAMAAADQEUINAAAAQEcINQAAAAAdIdQAAAAAdIRQAwAAANARQg0AAABARwg1AAAAAB0h1AAAAAB0hFADAAAA0BFCDQAAAEBHCDUAAAAAHSHUAAAAAHSEUAMAAADQEUINAAAAQEcINQAAAAAdIdQAAAAAdIRQAwAAANARQg0AAABARwg1AAAAAB0h1AAAAAB0hFADAAAA0BFCDQAAAEBHCDUAAAAAHSHUAAAAAHSEUAMAAADQEUINAAAAQEcINQAAAAAdIdQAAAAAdIRQAwAAANARQg0AAABARwg1AAAAAB0h1AAAAAB0hFADAAAA0BFCDQAAAEBHCDUAAAAAHSHUAAAAAHSEUAMAAADQEUINAAAAQEcINQAAAAAdIdQAAAAAdIRQAwAAANARQg0AAABARwg1AAAAAB0h1AAAAAB0hFADAAAA0BFCDQAAAEBHCDUAAAAAHSHUAAAAAHSEUAMAAADQEUINAAAAQEcINQAAAAAdIdQAAAAAdIRQAwAAANARQg0AAABARwg1AAAAAB0h1AAAAAB0hFADAAAA0BFCDQAAAEBHCDUAAAAAHSHUAAAAAHSEUAMAAADQEUINAAAAQEcINQAAAAAdIdQAAAAAdIRQAwAAANARQg0AAABARwg1AAAAAB0h1AAAAAB0hFADAAAA0BFCDQAAAEBHCDUAAAAAHSHUAAAAAHSEUAMAAADQEUINAAAAQEcINQAAAAAdIdQAAAAAdIRQAwAAANARQg0AAABARwg1AAAAAB0h1AAAAAB0hFADAAAA0BFCDQAAAEBHCDUAAAAAHSHUAAAAAHSEUAMAAADQEUINAAAAQEcINQAAAAAdIdQAAAAAdIRQAwAAANARQg0AAABARwg1AAAAAB0h1AAAAAB0hFADAAAA0BFCDQAAAEBHCDUAAAAAHSHUAAAAAHSEUAMAAADQEUINAAAAQEcINQAAAAAdIdQAAAAAdIRQAwAAANARQg0AAABARwg1AAAAAB0h1AAAAAB0hFADAAAA0BFCDQAAAEBHCDUAAAAAHSHUAAAAAHSEUAMAAADQEUINAAAAQEcINQAAAAAdIdQAAAAAdIRQAwAAANARQg0AAABARwg1AAAAAB0h1AAAAAB0hFADAAAA0BFCDQAAAEBHCDUAAAAAHSHUAAAAAHSEUAMAAADQEUINAAAAQEcINQAAAAAdIdQAAAAAdIRQAwAAANARQg0AAABARwg1AAAAAB0h1AAAAAB0hFADAAAA0BFCDQAAAEBHCDUAAAAAHSHUAAAAAHSEUAMAAADQEUINAAAAQEcINQAAAAAdIdQAAAAAdIRQAwAAANARQg0AAABARwg1AAAAAB0h1AAAAAB0hFADAAAA0BFCDQAAAEBHCDUAAAAAHSHUAAAAAHSEUAMAAADQEUINAAAAQEcINQAAAAAdIdQAAAAAdIRQAwAAANARQg0AAABARwg1AAAAAB0h1AAAAAB0hFADAAAA0BFCDQAAAEBHCDUAAAAAHSHUAAAAAHSEUAMAAADQEUINAAAAQEcINQAAAAAdIdQAAAAAdIRQAwAAANARQg0AAABARwg1AAAAAB0h1AAAAAB0hFADAAAA0BFCDQAAAEBHCDUAAAAAHSHUAAAAAHSEUAMAAADQEUINAAAAQEcINQAAAAAdIdQAAAAAdIRQAwAAANARQg0AAABARwg1AAAAAB0h1AAAAAB0hFADAAAA0BFCDQAAAEBHCDUAAAAAHSHUAAAAAHSEUAMAAADQEUINAAAAQEcINQAAAAAdIdQAAAAAdIRQAwAAANARQg0AAABARwg1AAAAAB0h1AAAAAB0hFADAAAA0BFCDQAAAEBHCDUAAAAAHSHUAAAAAHSEUAMAAADQEUINAAAAQEcINQAAAAAdIdQAAAAAdIRQAwAAANARQg0AAABARwg1AAAAAB0h1AAAAAB0hFADAAAA0BFCDQAAAEBHCDUAAAAAHSHUAAAAAHSEUAMAAADQEUINAAAAQEcINQAAAAAdIdQAAAAAdIRQAwAAANARQg0AAABARwg1AAAAAB0h1AAAAAB0hFADAAAA0BFCDQAAAEBHCDUAAAAAHSHUAAAAAHSEUAMAAADQEUINAAAAQEcINQAAAAAdIdQAAAAAdIRQAwAAANARQg0AAABARwg1AAAAAB0h1AAAAAB0hFADAAAA0BFCDQAAAEBHCDUAAAAAHSHUAAAAAHSEUAMAAADQEUINAAAAQEcINQAAAAAdIdQAAAAAdIRQAwAAANARQg0AAABARwg1AAAAAB0h1AAAAAB0hFADAAAA0BFCDQAAAEBHCDUAAAAAHSHUAAAAAHSEUAMAAADQEUINAAAAQEcINQAAAAAdIdQAAAAAdER/2gsAAADYDGpqPvX1/yXDdjDtpXAB1dQ8duTBPPj4X+b/8tv/btrLYRsSagAAgE2upq49e7qy/sno/5vSS1Oa1dedq9ne/I4kl077s+XlKOn3+uk3s+n1Zku/N5Om9GrbDjJoVzIYLmdluDT52jiZRJXjohNqAACAjhgHl+dUlzL+X1n9dSlJKb30Si9N0xvFl6af3vj5Xm8m/WYm/d7s6LH++d5smtJLyXO7ztmUkv6O2Uv+2WA4+PtJfZGJh4ullHVfI5n8862ptSaptdZaTg5OZWWw1K4MlwaD4VJZGSz1l1ZODk8uPXvi5PLRwfLK4o7BcLk/GK78n5P86bQ/J7YfoQYAADjPzhJcSlmNLSUlKZMdLs0osqzGlnFwafrpNTPpnxZd5jLTnxvtiFj/duP3bZpeeqU/+oa9lHU7acr4w5XT13TuSq31DUl9w7T/dLen8T/L1f+rqeMvslpramradpDBcCXDdnm8O2YlK4PFLA8Wszw4leXBYlaGSxkOVzJol7MyWGqH7Ura2jYZ/x6joJMkWUnNfz/tz5rtSagBAAA2cLbdLVkNLpPYMnnapKwLLf30e6OY0jT9cWiZGb9sEl1mxregzIx3xJy5Q2Z8i9K6e5TKeHfNGUtd9+RsAWbtG3u64/R/nqNnam3XokmtaetwfEvScgbjx8pwKSuDpSwPTo1jzKmsDJczbAcZtivjp4PU2o5/7/X//Fd3aD3fcJ1hfLEwJUINAABsSWdki/rc160Gl9KklJKS8dPSrMaWXjMzii7NTHq98Q6XZmZ0a1FvNv1mHFx6M+k1s+PdMetDy+gxuiWlnPk9+UZLft7gUlN9+9x563e/rD1Tax1HmDa1tmnbYQbtSlYGSxm0yxkMRgFmebC4uhNmZbi4GmDa1QgzHAeYM2NistZ9ynPXVDZ6OXSPUAMAAJ31fLFl7QUbhZZSmtVo0m9mxsFlElT66fVm01+9tWg2M7251V0uvaY/jiuj36OMD98tTZMm53AIbz1bbHmeQ3/puLNFtrK666Wt4wBThxm2g6wMlkahZbC0ugNmfYhZGS6tBpjR+wzT1uHGXxsbBpgzgxBsDUINAABcUOceJyaRpRmHlvXPN6W3euvQTG9uXXRZ93S802X9y5ozfp/1HyNnO063nvlsXfdrO1q2lueJHTWrAaYdR5TVHTDDxawMlrO8GmLGTweTHTAro/dtx+9fhxnde1TWf+h1T9afXTTtPxOYLqEGAADOyTkEl9VvPMtqXJmcszLZoTI6u2XtbJb+uvNaJrteer3+ul0w/VF8Gb//6o6Zdbtn1q/xzGdrNl70eArOtP9QuWDOEmDG/8jbOsywDse3E42ejna9LK7dejRcHN+ONLolaTBcymC4vG7nTJtah+sO4F0rL+tPFVpdTVFg4FwINQAAbDMbnGsxUZ770/2yLrSsP3ulV/rPCS2T81p640N0++t2tkzOfCnj81pGMaesOyemZMOJRPXssSXJusNS2R42CDDrbjWrtV09SHfyGKzebjTa+TJ5fjBcWjugt11O2w7HE5Ta1fNkJh9z8mTD248EGDivhBoAADahjXa3rJ/mkqx9Mzn6RnLtkNvxSOdJcBmf0zKzbuzzJLb0x4Fl9HYzp42DbtYFl/XfrG4YXOrzH5Cb2OHC2cdPJ1kXYFbGI6gHkxHTq6Onl1dOjXe+jEdUjycltZNdL6sjqNcFmLMevpszdmsBF4tQAwDAFJ1tBPTq+NzxryY7T5IyPqtlcuDtZPzz+luK1kLL7LqR0Ovffl2wafqr52KU55yTse4Ml3MaAS24cKazB5jJ7pW2HWYwXMmgXc5wuDK+1Wjx9OlHg8XT3mbQrqRtB2tjrDccP736gU9fkQADnSbUAABwHpw9uKyOZS7rg0tZ281SRjtamtVx0P1xaJlEl/W3Fc2uvs3ZR0Bn7WOPnuTFBpe1A3MFF85mowBTx187o+fbOly7tWi802VyG9LoMdoJMxgup20HGayOnx6s2/VyrgHG+GnYKoQaAABy9oNyTw8ua+eqNKvPT3apTG4h6vXWnu83s5npj2PL5PDccXRZH1iapln3fG/tY2b12Y2W/AK7W9bHI8GFc3Hm+S+jZybntdTaru2AaVfGtxYtZbB++tFg8bRzYIZ1MD6wdzAOMOPdL8npX5YCDDAm1AAAbAkbJIvnCy6roaVZd37LJK7010Y8r04gWptQtP4A3cm5LetHSDfN2vMveMjo8+5uOfex1nB2Zwt+ZRxghuumGA1Xd72sDJayPJ50dPohvItZGS6NJyUN09bx1KQ6PKcDqk9bk/YCbECoAQDolHOMEyWjOJJJFFn3tOmNYsu6mDKZPNQ/LcA89+nk9ymlSZO155+3tzzPGOi1sb1wvj1P7Kij8dNtncSUYYbtYBxcJiOoR/Fl9WXjlw/bwWnv19b2nCeECS/A+SDUAABcEPX577hZm3Y7DiGTEdDrnh+f4TKKKLOro577vdnM9ObW7XqZ3HI0GQPdG++YadZ2z5Sy+uv1azzz2Y3HQE/OyICL4ewBZjS4aDjewTLeydIO1sWX8a6X03bCjJ4O25V1O2fa1MkkpKz7YKe1FgEGmA6hBgDgrJ5nd0tZ/2QylrkZx5beaQfdrp7Xsm4i0dpOl9nTz3c545yXsu4smNXzYU4LLmeLLRuVlWqHC1O0QYBZd87Q2vjpwbox1OPx08Px9KPx+Om1A3pHj8n46ZrxOTJnDTBn3H70QrfmAUyBUAMAbAPnNgJ69JKSMj7YdjLOeRJd1iYSza7tcjltItHMKMyU/urI6MkZL6NxuJPYsvqRkrMElxc8JFdwoTPOPn46yWqAGbQrGQ5HE40Gw+XT4sto8tFSBu3KaRGmbYdrU5TGMWfyMZ//8F0BBti8hBoAYBM5S3AZ7zZJ1t+mUNZuHyr91Z0tzeo46P54AtHs6sG4M725zPTn1r1db3zAbm/1/daPmj791ogzgks9bcVn/2wEFzpr4/HTSVbHULftYHT4bruc4XAUWSbnvkxGT6+Mx0+PpiStrI6fXvv9znX8dMbBE2BrE2oAgItso7NbTg8uk/BRVl/WrMWSya6WdWeyrO1oWdvdMjrTpb/uFqRJeJnskBntcFlTNj4w9wV3twgubDYbB5jVnSu1zbAO191atDaGehReTq2eBTM8I74M25V1u73OONvI+GmAcyLUAAAv0hnZ4nlHQK8dYDs51PY5Z7GsO5+lv26HS2/dTpd+b2YUW8Y7ZErpjcLNuh0uybpv88qGSz6H24mm/WcLL9WZ57+Mnpmc11Jrm5rRIbqj6LKcwRnTjlanIK1Mxk8PxhOQRof2jm472iC0vmCAAeDFEGoAYFt6vtiy9oIzpwWt//Xo1qHxzpbJYzLmeXWXy+hlM7250aG54/HPTemddvDuOY2AXrfO5waXF/p8YDMqG8TH9QGmXTfFaJjBcGV1wtFguDbtaPUsmMFiBoOlDOtoUtJkctK5jp8+bU0CDMAFI9QAwKZVN97MsoH1O1qa1bHN41CyekDu+Pah/uzqwbiT4NJrTn9+ssPltN9z/GjSPP83cc8TW+xoYXt4nthRk7YOR4929HTYDsbBZbTzZWU8fnrljB0xw3aw+j7tON6cS4AxfhqgW4QaAJi6em47QcbTiZ47AroZ3wrUX93RsnZOy/qn68c+r+18Gd1KNNol06zummlOu6VooxHQpz+7/rlqRwvb1NkDTK1JHUeXSYQZTTiaxJel1TNgBusjzGApw3bltJ0zox0w9fQPdFprEWAANjOhBgDOm40OyR3b4CfYkxHQ64PL5NDb/mpwmU1vvLtl7eyWyZkuk10vo/CyusNlMpp2/fNnCS4bhZbVl4ynsQAbBJh1h0xPxk+vPUaH7y4PllYP3p1MQlo/enowXE5bh+ODfNfOkpl8zMnHO/P2o9OnjAGw1Qg1AHCGevq9OXm+kbGllDNiy2QE9Oig236vn15vNrO9ufR7c6ftdOmtm2C0fprR+uCS1dCSjYPLuUwkElzgLDaafpSs/q0aB5jBZKLRcBJgFrM8OJWV4fgA3tXx02tTktp2mLo6frpdNwnJ+GkAnp9QA8D2UJLnzInN+lsDSpozJhI1zTi6lP66HS3rdreMd7iMIstk/PO692t6z40t6z7eiOAC59/G46eTrI6hbtvBOK6srO5uWZt+NA4xg6XVt1kbQz0YjbBOzelh5/kCzNq/AwDghQg1AGx57bBmsFSyY+6S7Np5aXbML2S2P5+Z/tzo6cx4ItHqzpj+aTtkJjtc1jz3m8Akz3NI7pq181sEF3jxNg4wqztXapthHa7ualkLMJP4sjb9aDhcWQ0ww/GOmbVdLy8mwGz0cgB46YQaALa2kqwstTn4g5Ppl+XMzp7I7MxsFhYWsrCwc/TYsTM7duzI/Nx85ufnMz8/k95MP6WuHarbNKPbEeoZkWXtPAngpTnz/Jf146dHZ7bUtGnbNoN2tOtlMD7rZf0BvJOzYAbD5dFtSnU0AWnYrqzuRntOIxVgAOggoQaAbWFleZBTy8tJjmX1p+Tr9Hq99Pszmen305+ZydzsXHbs2DGOOQtZ2LGQ+fkdo6AzvyM75ndkZmYmvd5o583o6cYxZ/QyO2jYTsqZ3SWnB5j2tClGo10vy6dNO5rsflkZrE1CGtZh2naQYTtMWwfj6UcbfvgNAszzjMQGgA4RagDYFsppZ0Q89zu1tm2zvLyYpaUzXzO6BaKUMoo5vX56/dHTufn51YCzGnN27MiO+YUsLCxkx/yO9Pv99Hr98dNxzKmnDeRe+0hiDp33wuOnJ6On2/Eo6pXBUpYnE48Gi6NzYCZBZvzrYTtYfZ92HG/OdXqa8ALAViPUAMCqssHE27WXtW2b5XY5dXn8HeSxo0nWAssk5kx22Mz0+5mbmz9tF86OcdBZWFjIjnHkmen30+/PpD8zmhJ15nk4p99qJeZwIbxwgJnsYhmObyca7XxZCzCjGDO+NWl8KO+wHZy2c2a0A+aMHW2ntRYBBgCEGgB4kc6c3rL+1207OktjZWU5i0mOHT+W5PSY0zTNeDJUk36/n/n5+czNz6/FnPkdWdi5MzsXdmZhx0Lm5uYzMzOTmdnZzPRn0u+fHnNKKacFHDGHNRsEmHUTxtrajm8lWnsM1t12NDmAdzBcymC4shphBsOVtHU4Psi3XT1PZvIxJx/vOePsUxLTjwDgeQk1AHABPF/MqbVmOBxkOEyWlpdy4uSJ1ZdP3rZpRgcZN03JTH9mFHLm5jM3Nze61Wq8K2dhYVd2Lixkdm4us7OzmZ0ZPe31RpOqVseCizlbzEbTj5JJgpkEmEG7kuF4pPQkwKxGmPFumMlkpMkY6kmAyWqEOT3AGD8NABeWUAMAU3TmzpiJ0bSbYdo2GQwGOXnq5OrLJ287eTRNk5mZmczOzmVubi5zc6Oos3Nh5+rOnB07FjI3jjlzs/OZm5tN0/TW/T5NSjn9IGQxZxo2Hj+dZHX3yrAdrI6WHgyXMxyuZHm4uDr5aGllMSvDxQyHgwza5XVjqAfrfr8XM35agAGAi0moAYBNYP3OmPVGu3OGGQ6HOXXq1OrLJm87efumaTI7M5uZ2dnMzsyu7cxZWBgFnYVd2bFjx+jl4507c3NzaZreeHfPxiPKxZxzc/qZK2sBpk7CSW0zbIer8WUwmYA02QWzcmr1+dXx05PdMnWw7p/DiwkwG70cAJg2oQYAtoizxZxkdHbO4tJiTi2uxZz136iv35kzMzObmX4/s7Nz2bFjITsXFrJjYSE7F3Zlx/yO8Xk68+MR5bPp9ZrVoHO2EeVbM+icef7L6eOnJztg2nY4Hj09OWh3eXwb0lJWBqfWnQOznGEdHdTbDkfnxYymg41nhNXTPrQAAwBblFADANvIC8WcpaWlLC4unvX9e71e+uMpVTP9fmZmZ8fn5excPTdnfn5HduwYjSefn5/P7Oxsml4vvfE0rLPFnNHLph10ypndJWsBZnw72ropRpP4sjIY74BZHUW9dgjvymApwzocH9o7mpw0mn604YffIMCcfSITALD1CDUAwGme70yStm2zvLyUpaWlM14zuuVmMqK81+unP446s3NzWdixkB07xgFnHHEmI8p3zO9If2Ym/V4//f7ofc9/zHm+8dM1tbYZ1mFqOxwHmJVxgFk3gnp8K9Iowoyeb9tB2vH7tHWYtm3P9uFPCzDGTwMAZyPUAAAvUtlgwvLay0YjypezvDwOKqMJ5c+ZajUKOqMwMz83N444O1anWo3Czs5R0BnHnJnxbp4zR5RvZDS4aLi6i2XYjm4rWh9flgeLp4WYwXB5tAOmXRlNTqrD8e6ZdlyNyvpP+bTB05PPDQDg5RBqAIAL4oVGlA8Gg6wMVpKanDhxPMlTz4k5o8doZ87c3Nzq7VSj26t2rE602nXJzswtNKsH7q6cNnp6shtmOcPh8vjWpcno6eeOnx4/l9MzTElEGADgIhBqAICpOfMWoDNjzmSi1fLyUk6ePJGn89ydOSUlO3fP5vo37ErTGx/mmzq5byrGTwMAm4lQAwB03vqYcmbMaWvNcDA6K6Y068+AEWAAgM2nmfYCAABeDjkGANhKhBoAAACAjhBqAAAAADpCqAEAAADoCKEGAAAAoCOEGgAAAICOEGoAAAAAOkKoAQAAAOgIoQYAAACgI4QaAAAAgI4QagAAAAA6QqgBAAAA6AihBgAAAKAjhBoAYNOr014AAMB5ItQAAAAAdIRQAwAAANARQg0AAABARwg1AAAAAB0h1AAAAAB0hFADAAAA0BFCDQAAAEBHCDUAAAAAHSHUAAAAAHSEUAMAAADQEUINAAAAQEcINQAAAAAdIdQAAAAAdIRQAwAAANARQg0AAABARwg1AAAAAB0h1AAAAAB0hFADAAAA0BFCDQAAAEBHCDUAAAAAHSHUAAAAAHSEUAMAAADQEUINAAAAQEcINQAAAAAdIdQAAAAAdIRQAwAAANARQg0AAABARwg1AAAAAB0h1AAAAAB0hFADAAAA0BFCDQAAAEBHCDUAAAAAHSHUAAAAAHSEUAMAAADQEUINAAAAQEcINQAAAAAdIdQAAAAAdIRQAwAAANARQg0AAABARwg1AAAAAB0h1AAAAAB0hFADAAAA0BFCDQAAAEBHCDUAAAAAHSHUAAAAAHSEUAMAAADQEUINAAAAQEcINQAAAAAdIdQAAAAAdIRQAwAAANARQg0AsPnVaS8AAOD8EGoAAAAAOkKoAQAAAOgIoQYAAACgI4QaAAAAgI4QagAAAAA6QqgBAAAA6AihBgAAAKAjhBoAAACAjhBqAAAAADpCqAEAAADoCKEGAAAAoCOEGgAAAICOEGoAAAAAOkKoAQAAAOgIoQYAAACgI4QaAAAAgI4QagAAAAA6QqgBAAAA6AihBgAAAKAjhBoAYAuo014AAMB5IdQAAAAAdIRQAwAAANARQg0AAABARwg1AAAAAB0h1AAAW0BxnjAAsCUINQAAAAAdIdQAAAAAdIRQAwAAANARQg0AAABARwg1AAAAAB0h1AAAAAB0hFADAAAA0BFCDQAAAEBHCDUAAAAAHSHUAACbXp32AgAAzhOhBgAAAKAjhBoAAACAjhBqAAAAADpCqAEAAADoCKEGAAAAoCOEGgBgCzD3CQDYGoQaAAAAgI4QagAAAAA6QqgBAAAA6AihBgAAAKAjhBoAAACAjhBqAAAAADpCqAEAAADoCKEGAAAAoCOEGgAAAICOEGoAAAAAOkKoAQAAAOgIoQYAAACgI4QaAAAAgI4QagCALaBMewEAAOeFUAMAAADQEUINAAAAQEcINQAAAAAdIdQAAAAAdIRQAwAAANARQg0AsAXUaS8AAOC86E97AQAAANA1NTX3fWV/Usro0dYkNSltkl5Sa9Imb/+bt097qWwxQg0AAACsU0oz89PX/eI/bpr+LW0d/ijJoZQ8mZqnkubZ5eWVwezcbFJq7vvqh1KSDJukaZOUkpKaZse38xs3/6tpfypsQkINAAAArFNK6e2Y3fXumvruJMPUejLJEynliSSPzc7OPJhaH0zyQJLHa3K41DxRk1Ozu3YNVo4dy/DULbnvq/9mtPOmlNHT8Y6ct//i+6f9KdJhQg0AAACsV1f/L0l6SS4ZP157xlsOkhxN8lSpeTLJwZVjx36SUcB5JMnhJIdSyrO11uXsWFgpi6dy31c/tO73LylJBk3yzp+/bdqfOR0g1AAAm5+zhAGYjn6SK8aPnzrtNbUuJnk2JU+ntk+UkgezeOqBJA8nOZiaR1PyaJITSZZmBhmMAs5YKWu/1XAu7/ilfzjtz5WLRKgBAACA829+/Hhlkjckeeu61x1LKceTPJ3kUE0erE0eSnIgpTyc5FCSJ0tyqvZ6p0oW29MiTpLUmiYr+c23/CfT/jw5z4SaTezB+kB+73fekV6/N+2lAAAAcO4mt1Jdm+SN614+TK3HM9pl83hNDmYweHgUb+qB1DyQJo+m5lhSj6/0Lj31nIAz3olzKsl//AvvnfbnyUsg1GwCH//T/zGlN/5HVdf2dn/9s/8+1177qpknnnyiV2s77WUCAADw8vSSXDZ+vCrJX08y+T5wOSUnU3MiyaGU5kCvXXw4o7NwHkzyUJKnkjxbSzm2o21XViNOKaNzjGub0mvymz8v4HSZUDNF/+4b/+8srCwltaZ988E0374mqc3avYilJLVNOxz2yugv6u4kVya5PslNOy+9/LXveNu7Xv2Re//da59++kjKunsYAQAA2FJmx4/dSa5L8gvjl9ckS+PHU6n1UKn10SQPpZSHU+sDSQ4keSbJkdKUY/d99UN1bRJVUlPTNkmvXftedGHXK/Irf+2d0/6ctyWh5iJYvyOm1mFKGd+qtLyYJGlT0nzv2pJkZ0Yh5ook16bWG5PyuqbXvym1XpvRvY1XJ1lIMpOk9Pv9zM7MTPtTBAAAYDpK1s7DuSzrJ1ONbr1YSa0nkjxRSzk0HLSPJXlwHHAeTPJ4kiPjqVWLqbUmNSePHc59X/s3SWpKamptUmqb/swgv/Yf/N60P+ctTag5T/70Y/+vPHPVcmrKaCdM2yZlbXdMXRmmmZtpMmxnk1yeWq9Ock2SVzWpr8ugeU2S61NydZKrMqqk/STN833cGoMuAAAA2FCTZG78uCLJz6x7XZtkOckzJeXJUnM4ycGUMhkvfiCjiPN4SvNMUgZt02uXB81ovHitSUpSRjtyai3Z+xbjxc8HoeZF+vhX/seUZrI7pmZys9HTGaSWfjIcNCllppSyK6MdMNcm9ZrSb15Th8NXJ+XVqfUVGf0luTKjvzDuWQIAAOBiajLahXPN+HHzutfVJCdT65EkT9VaDyf1oVLzo4zOxDmU5HBGIedkW+tKv5T2zDNxJt/ptrVk7y/eOu3Pd9MQas7ivi//j0nTG++IGe9ZmRzANDNT6srKXEqZT61XZHRmzLWltjemaV6d5KaUcn2Sy5N6eZJdEWMAAADYHCZHc+xMcsMZr2uTHE0pz2R0ePHBXmkeqsmPMwo4B5McSsnTpZTFZm5hOYvH631f+zenDcdJHd1O9Y5fcrDxmbZ1qPl33/i3WVhZPv2LZazOzaUsLs6llIW02ZUm1yW5Lqk31OXlG5PcWJLXZLQz5tKMRqtN57AY9z4BAABwcTQZHdWxO8mrk/yNda9bTnI0tR5L8nit9aHhqeMPp5SHMgo4jyR5NCknUtuTTb9dfs548SQpJfMLV+bvvum3pv25TsW2CDVnG2/dLC2m7TX91OxKsjOpVyflhiQ3laWlG1PK9an11Sm5JjWXJnVnRlvDOqOUktnZ2fGn1iYppj8BAAAwDbMZnbl6VUYbG96SZPJ9+Kkkx5McTeqhNM1Dtc3DSR5O8khNHirJ00mOp+mdOHX8ieFpt1IlSVvTDtvs/eX3TfvzvKC2TKj5zJ/9D1kZ9tYO813nsQf/LNe85hcuyWjny+6MRpnd2JbymrT1uiQ3jl5WrkyyY/zofO2otWZudi5/65f35ODBAzn06IE88eTjOXHiRNq2TRLRBgAAgC6YfK99dZLXJXnr+OXDJIslOZHkSJJHMhwcKKU8klIeTK0PZ7Qb52iSZ2cumTnxnF04dTRm5+1v2RoBZ1OEmtPGW7eD1cN81++OOb4yk7lmaUdG48guT62vSCk3JXntNa/++RtT63VJJiOud2Z0iO+m+PyfTyklr3zFNXnlK67Jm2/+2Rw9+mwefexQDhx8JI8/cTjHjh3NcDhcfVsAAADokF7WzsN5RZI3rL6m1pUky+NbqQ6n5ODw1PBgkodT85OUPJzkiSTPpOaZ+776oaXTfudSRjswykpqnUnamlKbvO2Xun2wcWdCxb//xv+UHUujoPDc8dY1adu87hdvy4++tn8myaWp9cqMStyrkrxutrfy6prmxoz+wV6bUnZntO2qM5/jhVLHwarf7+fKK6/KlVdelb/2hjfm2LFjefyJwzlw8JE89tijefboM1lZWRn/EYs2AAAAdNrM+LEzo8lUP7v6mpJRxEmeSimPp5RHMxop/mDWDjZ+MqlPJf1nT33vu8Mdf+2NqWlXx4uX1NTSjJ9v87a3vH/an2+SKUSM08ZbJympo2eW26RpsnziRGYXFvpJFjK6r+2VSV6RUl7z46/9m9eUNK9OrdeMX/eKjM6M2fIx5lxNok3T9LJ79+XZvfvyvP51P52TJ0/kiSefyMGDj+TQowfz9DNHsry8PBoxLtoAAACwuayPODee8bpBRuPFn6jJE6k5tOMNb3woNT9OykNJfTzJ4ZryVJJTRw49MrziupuydiZO0qamSZNkdG/WO3/h4k2numCBY3W8dVOS2o53xozGW7cnTqbZudDP6Paj3RndknRNar1xdmHhpiSvTdNcn+SKpF6V0dkyYsyLNIk2pZTs2nVJdu26JK++6TU5depUjhx5MgcPHcihRw/mqaeezKnFUw4jBgAAYCvoZ9QRLs3oPJx16kqSZ1PKkxmNF3/4iutufCipP8loR87hjCZTPZtkuS4tDXpzc7nva/8mSU1qGZ1o29Y0peY3f/H2C7L4l+zff+PfZm55adyYztDrJSuDflLmMipc144e9bpmYcdNqfWmkrw2yZUZjbi+LB2bqLSV1HXn+SwsLGRh4cZcf/2NWVpazNPPPJ1HHz2YAwcfyRNPPp6TJ09mOBymFNEGAACALWUma5OpkuRvrXvdqSTPpuZIkzyR1AfK7OxDGd1OdSgpj6bk0SSnUuvisDRrk6nG9wwloydP7F7K7/zUP3lJCzynUHO28dZlaTFLpTazaXZk7ValVyW5IcPhDWnKDan1tUl5VWouS+qlSXZN958J66PN7OxcrnnltbnmldfmTW+6JUePPpvHHjuUgwcP5PDjj+X4ieMZDFZipw0AAABb3GQy1TXjX/9Kksk30ePR4nkmyaE05YGS+lBGu3AeGT89UpJTg7nm1CuOzNXTplONv59uyjC/+fPPP51qNdR8+Bv/U+bXH+a7TtP002a4IzU7M9r5cm2SG2opN82m3JDkpiTXZ3S4786MYkxv2n/CnJtJuJnpz+SqK6/OVVe+Im/4mTfl+Injefzxx3Lw4CN59LFDefbos6uHEScOJAYAAGBbKEkuGT+uS/Kmda8bJDmelONJnqjJI73F9qFaciDJQxlFnENJjpWSE8NBf3Gj8eKlJlc8PptffPfvpP/3/9O3ZO/bfis7l2uGqbNJ2ZXkstR6VUq5Iclr23ZwQ5Ibxgu6dry4HRmdMcMWUsfz53u9XnZftjuXX7Z2GPHjTxzOoUMHc+jRA3nmmWeyuLS4+n6iDQAAANtQP6Ozd3dntIHl59a9bnH8eDa1PlprDpamPpxSDqTWBzIKOUeSHC1tPfbNue+u/O//h19K/41vvOXtl1522WtrU15fau/6Opqo9KqUcmVGIWYuqzdasZ3UWlNTVw8jvmTXpXnNq1+XxcVTefKpJ/Poowdz8NCBdYcRrx1eDAAAANvc/PixO6M7kUZG3zwvZRRxniqlOVRncvDqS274weuv+4UH+t/61p//z088fnj2da99/cx1r7p+7pJLLu03TbPufWEt2iTJ/PxCbrj+xlx/3Q352eXlPP30U3n0sUM5cPCRPPnkEzlx8kTatk0i2gAAAMAZSkmZT8n8sB1cdnLp6I1Hjh1afvLYgXLs5FPL/aWlpcsfePDHMw89/MBw165Lll917XVLr33N63rXvPJVvZ07d/ZLKUWw4XR19Uzp2dnZXHPNq3LNNa/KzW/62Tz77DN57PCjOXDwkTz+xOEcO3Y0w+Ho7CPRBgAAgO2rpJSkbdt6auXYytPHHxs8efSRPHvyiWZlsLij1tqUUmb6SWopJbXW3tGjz+44evTZ+sMffX+4+7LL2+uvv2Hx1Te9tv+Kq1/Zm5+fb8ZvN+3PjI6ZfE30+/1cddXVueqqq/PX3vCmHDt+NIcPH86Bgw/n8OFHTzuMWLQBAABgOxi1lLYurZxonz35RPvk0UeGz5x4vFlcPj4/jjOrb5ek9s985ySlbdv+U0eezFNHnqx/+b3vtldeceXwphtfPbzh+hubK6+8upmbmxu9t2jDGSZfE03TZPdll2f3ZZfnp17/0zlx4niefPKJHBhPkHr6mSNZXl5a3Zkj3AAAAN0wOvbBt7u8HJONLiuDxXr01FPDp44daI8ce7Q5tXysadvhTEpSUjb8Xrj/fL9pkjIYrPQeO/xo77HDj9Zvfvsv6tVXvWJ4042vKTdcf2PZvfvyMjMzI9qwofWHC19yyaW55JJL8+pXvzanTp3KU0eezMFDj+TQoYN56siTWVxcTFvbs36hAsALcSUCwEs3CjOllPR7c7lkxxWZm1mIWsOLUcZzmFaGy/X44pF65Nih+tSxg/Xk0rPNYLjSf744s17/nD7YONosLi6WRw483Bw4+EhdWNhZr3nlNe1NN76mXPeq68ull15W+r3+uDz6YuZ0678mFhYWsrBwY264/sYsLi7mmWefzqFDowlSTzz5eE6ePJFhOxRtAACAC6amJnV0N8BsfyG75q/I7l2vzO6FV2Rh/rLM9GZXB6rA2ZRRfclguJKTS0frkeOH6pFjB3Ps1JGyMlwqo0HKL+5723MKNasLWPuNy4kTx8uPfvLDPPDgT+oluy6pr3rV9bnpxlfnmmteVXbt3BWTozib9V8T8/PzuWb+2lzzymvz5ptvybNHn81jj40OIz78+GM5fvxYhsNBItoAAAAv0+R7kV6vn/mZXbl04ars3vnKXLZwdeZnd6XfzCRlspHG97JsbBJnhu0wi8vH8vTxx+pTxw7m6Mknszw4VWqtozgzfrsX60WFmtMWNv6gtdby7NFny7NHn8kPf/T9XHbpZfW6627ITTe+przi6ldkYWFnHELM2az/uuj3Z3LVlVfnqiuvzht+5o05fvxYDj/+WA4eeiSPPeYwYgAA4MVaf0vTbBbmLsvuna/I7p2vzCU7rshsf0eappfR5pq6ussGnms8sam2ObV8PM+eOJynjh2sz554PEsrJ0tb24xvRnrZ36++5FBz2nJLSVIyHA7z1JGnylNHnsr3/uq7ueLyK3P99TfkphtenauuekXm5+eT2GXD2a0V7l527748u3dfkZ96/c/k5MkTeeKJx3Pg0IE8+ujBPP3MkSwtLSURbS4sf1cBANhcVm9pKk1mZxaya/7y7N51TS5buDo753dnpjc33kwwfmvfn/I8JhtPlgcnc/Tkk3ny2IE8c/xwTi0fS9sOy/mKM+udl1Bz5ieRJIPBIIcffyyHH38s3/nut3LVVa/IjTfclBuvvzFXXHFlZmZmk4g2nN3oa6OmlJJduy7Jrl3jw4gXT+Wpp57MwUMHcvDQIzny1FNZXFpMrW3cIvXSrf70oCQlTZqmWT0MCwAAuqzWmpSkV/qZn92VS3Zckct3XZtLF67KjtlL0mtmUsra95++D+X5TOLMYLicY6eeylPHDubp44/mxNKzGbaD0dtcwO89z3uoOfOTS5Ll5eUcPPhIDh06kG9+6y/yyqtfmZtuek2ue9X1ueyy3en3R8vwl4WzmUSbJNkxvyM3XH9jrr/uxiwtLeaZZ47k0GOHcvDgI3niicdz8tTJtO0wos3Z1NPGojelSa+ZydzMQuZmdmbH3K4szF2W2WYhh7//uZw89lRe0o2VABeZf1MBbCfrb2maycLcZbl04epcvuuaXDJ/ReZmdqYpzeQtE+O2eQGTH1IP2pWcWHw6R44/miPHDub44tNZGS6vvs3F+GH2BQ01p33S42+YT548kQce+kkeeuTB7Nq5K9dc86rcdOOr86prr8sll1ySXq+fWm0/4/lNvj7m5uZyzTWvyjXXvCpvftMtefbZZ/Po4UM5ePBAHn/8sRw/fjyD4bh4brtoU9cOQSslTeml1/Qy05vP/Oyu7JjdlR2zl2Rh7rLMz+7KbH8+M/25NKWXUkpWVlbSa2ayus0GAACmaP2Uppn+jtGUpvF5Mwtzl2W2Pz+65l9/3gw8j7VDgQc5uXQ0Tx9/NE8dO5jjp45kebCYWuvq+bwX00ULNat/EONvlmutOXrsaI4eezY//skPc+mll+W6V12fG2+4Kde88tosLOwcHerknkFewOTro9+fyVVXXZ2rrro6f+1n3rR2GPHBA3ns8KEzDiNOtk58GP8naPzXpClNmqaffm9mtENmNchcmh1zl2auvyP93mz6vdnT4tX6k+3FUgAAumASZ3pNP/OzO3Ppjqty2c5X5rKdV2fH7K70m9nTpjS5huWFjQ8Fboc5uXw8z4wOBc7Rk09kaeXkOM5M3m463zNe9FBz2h/P+BDitm3z9NNH8vTTR/L9738vl+3eneuvuzE33XhTXnH1KzM/vzC+nzBxuCnP58zDiC9fdxjx408czsFDB3Lo0YN55plnsrS0uPp+m2O3zelBppSMgkwzk9n+fOYnMWb2kuyYvSTzs7sy059Lv5kZR8/V32b1pwv+QwYAQLdMbmlK+r257Ji9JJftvDq7d16TS3dcmbmZBVOaeAnKuCm0WVo5kWdPPpGnjh3MM8cPZ3HleNr2/E1sOh+mGmrWWz2EeDjIk08+kSeffCJ/+b3v5MorrswNN9yUG2+4KVdecVXm5uaS+AaTF1br6F/ck8OIL7nk0rzm1a/LqVOn8tSRJ3Po0IEcPHQgR448lVOLp1a/prrwF/PM/+A0TS/93kxmenOZm1nIwtxlWZi9dPUWptmZhfSafnpNP6U0Gf+Xa5Jj/H0BtoXqVk2ATWly7VtKk9n+juya353dO6/JZTtfkZ3zuzPbnxtd407ijGtbztHkUOCVwakcXXco8KmlY6NDgcuFPRT4pepMqFlv8oe0srKcRx87lMcOP5pvf+cbufqqV+TGG16dG66/Mbt3X56ZmZkkog0vbP2tPAsLC1lYuDHXX3dDlv//7f1rkGT5ed/5/c7J+z2zblm3zKwGKRLEdAGi3jjCJmhvhEmu0D2AdqmVV5KJmZoeDERSGw6H135hO8IvdtcrTQMkV3KEY70vdmcQG46wBUqxG35jL0kIBEk7vBa6BxfijpnpyqxrZuX9fs7xi8yTldXVPdOXqsrb9/NqKJwBzoyyM7O+df7P0+2qdFbUwWFB+/uPVCyeqNFsyLZtSTcRbcaGmg3fJDymTz5vQAFvSEF/TJHhkaWgP6qgLyKvxy/T8Mg0Tfe/YhRkBv+s9qT/dQMAAAAfafQkvOlRwB9VPLQ8eGomvKJwICaP6b9wqoKf+fCs3DlFPaujevtMpVpBpXpBjXZZfXs4CmMK48y4qQw149x/ee12Wx8++kCP9j9UJBxROr2hXG4whDgRT8rjGRzt4A8wPs74a8Tv92tjfVMb65vafeUzqlTKOjw60H7+Qx2fHKlWq8myLEkvH20urr8ebFvyeYPye4MK+CIKB+KKDAf7BnwRBXyh4WBfc/SUzONzZAAAAIBZ4Q5m9Zo+hQJxJcKrSkbXFQstKeiLXDjSxJYmPI/xjU3NTmUUZ2qtkvpWd2JDgV/U1Ieace4PyvVGXfWf/Vg/f/+nikZj2ljf1K3cJ7S+vqFoNDZ60oAfZPEszocRe8+HEX/yFdVqVR2fHOnRow90eHyoSqWsfv9ZNkhdXH9tGMb5+mtvWKHAYJZM2B9XwB+W3xuWz+MfBhnD/a+4MKWep2QAAAAwe85XaPu9QUWCKSUjaSUj6eGRpuDwaIp7LT+/4XmcDwVudKrDocD7qjZPL2xskqZjvMXzmKlQ47qwOapaUbVa0U9++iMlE0ltbm4rl72ldHpd4VB4dCYNeBbua8U0TSWTKSWTKf3iL/ySGo26Tk9P9Cj/SIeHBZ2dldTpdOQ49nAWznDbkuGRzxtU0BdR0B9V2B9TOJhQ0BeV3xuS3xuUaXpGa+AuBxleqwAAAJhd51uaPAr4IoqFlpSMrisRXlUoEJd3dKSJp8TxItw4Y6vTq6vcPFaxuq9K81jtblOOY89snBk3k6FmnPsv37ZtFUtFFUtF/eCH39dSalnb21llMzmtrqwpGAxK4o0Az258uHAsFlcsFtfOzifUajVVKhX1aP9DtewzrSYG669DgbjCgfgoyHg9PhkyR3MtLxxbYjo9AAAA5sL5UzMe06dwIKZ4eGxLkz8ij+EZrtDmSBNejPsARrffVLV5qmJtX2f1I7W6Ndm2NVUbm67CzIeacaPNUf2+jo4PdXR8qO99/z0tL68ql8lpezurpdSy/H6/JKINnt34ayUcjigcjmhrK6N+vyfT4xl9+AwuHlt/TZABAADAnLm4pWlwpCkRWVNqdKQpNBroygptvKjRxiaro1qrOJw7c6BWp6q+1ZvajU1XYa5CzbjxIcT5/CMVCvsKvfdtpdfSymwPok0ykZTX6xPnIfE8xl8rg9cPQQYAAADzzf2+a5oehXxhxUIrSkbSSkRWFfLH5PUE2NKEl+aOiOhbXdXb5UGcqRXU6JypZ3WHgXA+48y4uQ01rvH/D2w2G/r5+z/VBx++r0g4ovX1TeWyO9rc3FYsGpPH4xVvKgAAAAAwPKJkSF7Tr5A/qnhkdRBnQiuDI02mly1NeGlunLGsvprdqs7qByrW8qq1iur1Oxc3Ns13nxmZ+1AzbhBtBo9P1eo1VX/yA/3s5z9RLBbX1saWcrlbSqc3FI1ELwwsBgAAAIB5d36kyZDfG1I4kBhuaVpTNLQknyc42LDrHmniZyW8sPONTc1ufWxj04k6vdZMb2y6CgsVasa5Rc62bZXLZyqXz/TDH/9AyWRK21sZ5bK3tLq6plAwxOYoAAAAAHNp/EhT0BdWLLSkVGRd8fCqwoHEYEEGK7RxRdyfrdu9uqqNExVr+yo3jtXu1WXb9twNBX5RCxtqxrkvAsuydHp6otPTE33/r7+r5aUVZTI5ZbezWl5eVSAQkMRTNgAATB1HWpjnoQHgJQ2eVpA8pk8hf0zx8IpS0Q3FQssK+qOPbWni5x+8nPONTW3VWqcqVvM6axyq1anKsq25Hgr8ogg1j3FfHL1eTweHBR0cFvTedx5odWVVueyOtrezSiWX5PMNh8jypgUAAABgqp2v0PZ5AooEk0pEVpWKbCgSTCrgC8kwTLY04cq4T2H1rY7q7TOVanmVagdqdMrq273BNcSZpyLUfAT3RdPptPVo/0Pt5x8pHI4ovbauXO6Wtja3lIgnGUIMAAAAYKqMH2kKeEOKhpaVjKwpGUkrFIjL5/FzpAlXyhg+2dq3e2p2KirVD1Ss7aveOlPf6oxiocETsB+LUPOM3GjTaNT1s5//WO9/8DPFojFtbGwpl93RxvqmotGYPKaHwVoAAAAAbtj4liafgv6oEuFVJSJpJcIrCvqiw18wc6QJV2e0scnuq9Wp6axxONjY1Cyq2x8fCmyIh2eeHaHmOY1vjqpUK6pUy/rJT3+keDyh7c2MstkdpdfWFQ6H2RwFAAAA4NqMb2nyeYIKBxNKhtNKRtcUDS7J7w2xpQnXwN3YZKvVG2xsKtXyqjSO1ek1ZTsMBX5ZhJqX4EYby7JUKhVVKhX11z/8vlKplDJbWWWzO1pZWVUoGJJEsAEAAADwcs6PNJkKeCOKhVJKRtaVjKwNtzRxpAnXYRBnHMdRp9dQtXmqYi2vcuNQrW5dNkOBrxSh5oq4L8Z+v6fj4yMdHx/pu99/TyvLq8PNUTktLS3L7/dLItoAAAAAeDaO41w40hQPrSgZTSseWlHQH5XX9LGlCdfCjX49q61aq6RSdV+lxqGanYosq0+cuSaEmmvgvki73a7yhX0VDvJ6+N63lV5LK5vZ0fZ2RslESl7vxTOiAAAAAPD4lqZwIK5EJK1kJK1Y6AlHmtjShCt0PhS4q3q7PNjYVD8YDAW2u6NriDPXh1BzzdwXb7vd0vsf/FwffPiBopGI1tMbyuVuaXNjS/F4YvBGK6INAAAAsIjGjzT5vRFFQymlImklwmsKB5NsacK1Gh8K3GxXdFY/ULFeUK1ZVM/qjIYCs7HpZhBqbtAg2jiq1Wuq1Wv66fs/VTwW1+bGlnLZW9pY31A4HJFpeoZvvLz5AgAAAPPKPdLkMbwK+aOKh1eUjK4rHlpRyB+Tx/RypAnXyB0KbKnZHQwFLlb3VW2dqtNrjm1sEk/P3DBCzQSMtkHZtsrlM5XLZ/rRj3+gZCKl7S13c1RawWBoWM15Q8ZkOI49fOx20ncCAM9iuJcWAKbW+ZEmr8evcCChRHhVqei6oqElBbxhjjThmg3jjGOr22uo3DhWcbixqd2ts7FpShBqJsx98VuWpdPiiU6LJ/r+D76rpdSyspmcMpmcVpZXFQgEJFHRcXNM09Tqalq1el2dTluWZQ0ed+QNGwAA4JldPNIUVjS4pGRkTclIWuFAXD5vcPD9ihXauEbuAwDdfku14cams8ahWp2qLDY2TR1CzRRx/1D0ej0dHh3o8OhA3/nuQ62srCqb3VFmO6tUckk+n08S0QbXy+Px6Nf+h/9j7d7+jA4OCsoX9nVycqR6o65+v0+0AQAAeCJH7td0j8eroG94pCmypkR4bbClyeN+n3ev53s9rp4bAHtWZ7CxqV7QWf1AjXZZfatHnJlihJop5f5habVberT/ofbzjxQOR5ReW1cuu6OtrW3FYwl5vT7x5o7r4vf7tbaa1tpqWq986rbq9boOjw6UL+zr8PBA1VpVvd5g8rv7Rg8AALB4xo80uVuaBk/NxILLCvhCMk0PT83g2rlDgftWT412WaV6QaVaQfX2mXpWRxq+Tokz041QM+XG/wA1GnX97Oc/1vsf/EzRaEwb65vKZXe0sbGlWDTG5ihcC/f15PF4lUymlEot6W/84i+r1Wrq5ORY+YN9FQp5lStnarfbo7+PN38AADDP3CNNhmEq4AsrEkwqGVlXMrKmSDApnyfAlibciPONTZZanarOGocqVvOqtU7V7bcvbmziK/pMINTMkMEPvoOzhdVqRdVqRT/56Y+USCS1ubGlndwtpdfWFQ5HGEKMa+E4gy8ZpmkqGo0pFo1rZ+cTardbKpaKOjgsaD//SKXiqZqt5ug1SLQBcN34xANwE8a3NAX9EcVCy0q5W5oCcXlMnwy2NOFGnA8FbnVrqjSOdVrbV6Vxom6vORwKzMamWUWomVHuHzbbtlUqFVUqFfXDH/21UqklbW9llMve0urKqoLBkCQ+JHD1HGe4iUBSMBjS9lZG21sZfWb3V3VWLg2OSOUf6eTkWPVGXZZlSeKDAgAAzBb3aQSv6VM4mFA8vKpUZLClKegLXzjSND6fBrgO7i/kO72Gqq1TFav7KjeO1OrWZdsWG5vmBKFmDrh/CPv9vo6Pj3R8fKTvff87Wl5eUS6zo8x2TktLy/L7/ZKINrge7uvK5/Mpvbau9Nq6XvmVXVVrVR0fH2o//0hHR4eqVMvq9/uSiDYAAGD6jLY0GaZ83qCioZSSkbSSkbQigcRoSxNHmnBT3DjT63dUaxVHG5ua7Yosu89Q4DlEqJkz7h/ObrerQiGvg4OCHn7n21pdWVMuu6PtrYySydRwCDHRBtfjfK6NR0upJS2llvRLf+OTajTqOjk91v7+Ix0eH+jsrKRutyvHsUX5BwAAk+LGGY/pVcAXHm5pWlcivKpQICqv6Zc40oQbZMiQI8myu6q3zsaGApfVt7uja/j+PJ8INXPM/UPbbDb1wYfv68NHHygaiSqd3hhsjtrcViwWl9fjZfo8rs34nJpYLK5YLK5bO7+gVqul0llR+cK+Cgd5FYsnarfasmyLSfQAAOCajW9p8inkjysRXlUymlYstKyALyKP6Rlc6R735qsyrtloKLDVV7NbUal2oFItr1qrpJ7VHr1m2bQ6/wg1C2D8B95avaZavaqfv/9TxaJxbW5uKZfd0fr6piLhyOCMLdEG12T8dRUOhxUOh7W9lVGn01GlUlbhIK98YV8nJ0dqNBvq9/tEGwAAcCXGtzT5vaHhlqb0cEtTSv7hkSZWaOMmuXHGti01u3WVG4cq1vKqNk/V6TWHM5KGV/KVeGEQahaMuznKtm2VK2cqV0r60Y9/oGQiqe2trLLZHa2tphUKhS58UAFXbfzLj98f0NpaWmtrab3yqV3V6lUdHR0qX9jX4dGBarWqer2eJObaAHgy3hkAPMnoOPboSNOykpF1xcOrCgVi8pr+4ZYmiV9W4uacb2xqd+sqN45VqhdUbhyp02vItm2GAi84Qs0Cc6ONZVk6LZ7qtHiq7//gu1pKLSuTySqb2dHy0oqCwaAkzuLiOp1vSPB6vVpKLWsptTKYa9Ns6OTkSIVCXoWDvMqVM3U6ndHfyYcXAAA4N/xOYUhe069wIKZEZE3JiHukKSyP6WVLEybCHQrc7TdVbZ4OhgLXD9Xu1mTZFkOBMUKogaTzH3Z7vZ4Ojw50eHyg73z3oVZWVpXN7CizndVSalk+H0OIcf0Gry9HpmkqHosrEU/oE7d+Qa1WW8XiiQ4OC9ov7KtUKqrVal6YgwMAABbL+ZEm48KRpkRkTdHgknzegEzD5EgTJsLdENa3Oqq3SirW8irVD9TsVNS3h0+ME2fwGEINLnHfJDqdjvb3Hymf39fDUFjptXVlczva2swomUjI4xm8fPiww3VyHPcLlaFQKKxMJqft7aw+0+uqfHY2iDb5Rzo9PVa9UZdt25KINgAAzDP3aL5peBTyRRQNLSkVWVcisqJQICGv6Rs9vSDxfRU3yx3227d7arTLKtUHQ4Hr7ZL6VlfO8BqGAuNpCDX4SO4Pu41mQz97/6d6/8OfKxqNaWN9Uzu5W1pf31QsGmMIMW7I+ePJfp9f6fS60ul13X5lV5VqRUdHh9rPP9LxyZGq1Yr6/b4kog2wCPj0AebfYKiqIY/pVSgQVyK0omR0XbHQskL+qEzDwwptTMxoY5PdV7NTVblxpGJ1X7VWUd1+e/T6FXkGz4BQg2fi/qDrOI6q1Yqq1Yp+8tMfKRFPamtrW7nsjtJr6wqHIzIMU3LXGALXaDQg0OPV8tKKlpdW9Mlf+hXVG3WdnB5rP/9Ih4cHKpfP1Ol1Rj/JEW4AAJgF7gptUz5vQNFgcjhvZl3RQFJ+38XlF6zQxs0bDgW2LbV6jVGcqTRPxjY2Db538v0Tz4NQg+fmvsnYtq3SWVGls6J+8MPvK5VMDTdH5bS6klYwGLzwyClwnUZzakxT8XhC8XhCn7j1i2q2miqVTpXP76twkFexVFS73RpO0+c8MAAA08SNLabpUcAXUiy0MlqhHfLH5PUE2NKECTOGr0FbnV5TleaJirW8yo1Dtbt1NjbhShBq8FLcN59+v6/jk2Mdnxzre3/9HS0vrSiTySm7ndPS8rIC/oAkHkHFzRh/nUXCEUXCEWW2c2q326pUyioc5JUv7Ovk9EjNZlP9fp9oAwDARFzc0hTyRxUPryoZSSseXlHQF3lsLiJbmjAZ7i+ge/22aq3icGPTgZrdqiyrz8YmXClCDa6M+6bU7XZUOMjr4LCg977zQGura8pmd7S9lVUykWRzFG7U+OssGAwqGHTn2nxa1dpgrk0+/0iHR4eq1avMtQEA4JqNb2nyeUOKBBIXtjT5fUG2NGEquEfrelZXjfaZivWCzmoF1dtl9e3u4BriDK4BoQbXwJD7XtVqNfXBhz/Xo/0PFQ5HtJ7eUC63o82NbcVjcXk8HklEG9yM8deZ1zuYa7OytKpf/qVfUaNR1/HJkQqFvAoHeVUqZXW6ndH1fAADAPDixo80BX1hxUJLSkbWlQivKhyIy+vxj9YYc6QJk+QOBe5bPTU7FZ3VD1SqFVRrldSzOqO5M4wExnUi1OBauZPNHcdRvV7TT+o1/fz9nyoWjWljY0s7uVtKpzcUjUYHvzkR0QY3xxkOvTaHc20SiaQ+cesX1W63dHp6osJhQfnCI5VKJbXbrfM5OEQbAAA+luM4wyNNPoX8McXDK0pG1hUPLyvoj8pjeNnShClxPhS42a3prH6oYi2vavNU3X6LocC4cYQa3JjxIcTlSlnlSlk//skPxzZH3VJ6La1QKMwQYtw4x3FGH8KhUETZbFSZTE7d7t9S6aykg8OC8vl9nRaP1Wg0ZNu2JD6sAQA4525pMuTzBBQOJpQIrykVXVc0mJLfF7p4pIktTZgwwzBkO7Y6vboqjROdVvdVaR6r023IdmziDCaGUIOJcN/sLMtSsXSqYulUf/2D72tpaUmZ7ZyymZxWV1YVCAQl8RsW3LTzR679/oA21je1sb6p3dufUbVS0eHRgfbzH+r45Fi1GnNtAACL6/xIkym/NzI80jSYNxMJJDjShKnj/kK422+p2jwdbWxqdmqybYuNTZgKhBpM3PnmqJ6Ojg51dHSo737voVaWV5XL7mh7O6ul1DJDiDEx7mvO6/FqeXlFy8sr+uQvf0r1ek0np8fa33+kw6MDlStn6naHg+WGH/IAAMyb8SNNQX9U8dCKUtF1xUIrCvmj8pgcacJ0ceNM3+qq1iqqVCuoVD9Qs1NR3+4NriHOYIoQajBV3DfHTqet/fwj5Qv7CofDSq+tK5fd0dZmRvF4Ql6vT/xWBpPgvuZM01QikRzNtWm1miqWTrWf39fBQV6lUlHtTnvw2Cwf/ACAmXbxSFMkmFA8vKZUND080hTmSBOmzvlQ4K4a7YpK9YJKtbzq7bJ6Vme0eYyhwJhGhBpMqfPNUY1GQz/7+U/0/gc/VzQS1fr6pnLZHW1ubCkWjcnj8bK6ERMxPlw4EokqEokqm9lRu93SWflMBwd55Qt5nZweq9lsyLKswRcCog0AYMpdPNI02NKUiKSViqQVCsTl8wRGq4v5HoZp4cYZy+6r2anqrH6oUi2vaquoXr99cWMTX8cwxQg1mHrjm6OqtaoqtYp++rMfKx5LaGtzW9nsjtbTG4pEIqMfgPmygJs2/poLBkPaWA9pY31Tt1/5jKq1ig4PD5Qv7Ovo6ED1Rl39fk+cfwYATA9H7keZ1+NT0BdRPLyqZGRN8fCqgv6ovKZveKTJvZ7vW5gG5xubWr2Gyo0jFav7qjRP1Om15Dg2c2cwcwg1mCluAbdtW2flks7KJf3wx3+tZCKl7e2Mctkdra6sKRQKSyLYYDLGX3c+n08ry6taXV4bzLVp1HR8fKTCQV4HBwVVquXRXBuJgcQAgJs0fqQpqHAgrkRkTclIWrHQkvzekEzTw5EmTKFBnHEcR51eQ5XmiYq1fZUbR2p3GwwFxswj1GBmnQ8h7uvk9Fgnp8f63ve/q5XlFWW2s8pmd7S8tCy/PyCJaIPJcZzBl1uPx6NkIqVUckm/+Au/pFarpdPisfKFvAqFfZ2VS2q32xeOVAEAcJUe39IUDaWUjKwrGV5VOJgYHWniqRlMI3cocK/fUrVVHMSZ+pGanaosu6/BiSbiDGYfoQZzwX0z7vW6gycVDgt677sPtLaaVjazo+2tjFKpJXm9g5c8XzowKY7jjM5HRyIRRSKfUDazo063o1KpOJxrs6/T4qmazYZs25ZEtHkRo8HPhjnaQAIAi8jd0uQxvIMtTeHBlqZ4aEVBf0we0zt6OmF0PTAl3HDYt7uqt0rDjU0FNdplNjZhbhFqMHfcN+l2u60PPnxfHz76QJFwROn0hnZyt7S5saV4PCGPxyOJLyOYnMFrb/D6C/gD2tzY0ubGlj69+6uqVMo6PDrQfv6Rjk+OVKtVZVmWJKLNkw1nKxiSaXjk8wQUCsQUCSSVCK+o03L04ff/RD2nxb8/AAvg/EiT1+NXOJBQIryiZHRdseCSAr6ITPN8S9P4fBpgGribmCy7r0anrLP6gYq1vGqtkvpWZ/T6ZmMT5hWhBnPN/YGs3qir/rMf6+fv/1SxWFyb65vK5W5pY31TkUh0cP6ax3sxYe7rz+v1amVlVSsrq/qVT76iWr2q4+Mj7ecf6fDoQJVKRb3eYK7NokYH99F9wzBkGh75fUGFAwlFgynFQsuKBJMK+MLyeQIyDVOnpRMZMid92wBwbcaPNPk8oeGWpsG8mUggIZ83yJYmTLnzocDNbk1n9UMVa3lVm6fq9lujJ5LHt8MC84pQg4Uwvg2qUimrUinrxz/9kRLxpLa3Mspmd5ReSysUCrM5ClNhdGzHNJVMpJRMpPSLv/BLajYbKhZPtV/Y18FBXqWzojqdjmzHnuPHfge/75XjyDBMeUyfAr6QIsHkKMyEAwkFfCF5TP/oy9voEX5+IAEwp9z3No/HO9zStKJkJK14eFUhf4wtTZgBbpyx1enVVW4cq1TPq9w4VqfbGHy/YSgwFhChBgvHfZO3LEvF0qmKpVP99Q+/p1RqSdntnDKZnFaWVxUMBiURbDB548OFo9GYotGYstkdtdttnZVLKhTyKhzs6/T0RM1WU5ZlDR4HntkvNOeP4JumKa8noKAvokgwpVhwSdHQksKBmHyeoDwer/u38Pg+gAXw+JGmuBLh8y1NAV+YLU2YAecbm7r9pqrNExVrBZ3VD9Xq1mTbFkOBsfAINVho50OIezo6OtTR0aG+872HWl5eVTaTU3Y7q1RqWX6/XxLRBpM3/hoMhUIKhQZzbbrdv6lqtaKDw4LyhX0dHR+q0air3+9p2n8LNf6DhGl65PcGFPRFFQ0tKxZaUjSYUtAflc/jHx5TFI/uA1gY50c9Tfm9IUWDKSWjaSUia4oGkhxpwsxwhwL3rLbqrdIwzhTU6FRlWT3iDDCGUAMMjYYQd9rK5x+pUNjXw/f+jdJr66PNUYlEks1RmBrjr0Gfz3dhrk29Udfx8aHyhUc6ODhQtVpRdzTXRprkCqTzHzok0/Qp4A0q5I8PokxoSZFgUkFfRB6PT6ZhDv9Zh38nf+4ALIDRkSbTq6A/olhoWcnouhKhFYUCsdExT94bMe3cYb99u6tGu6JSPa9S7UD1dkk9qzu6hjgDXESoAR5jDHK+JKnZbOrn7/9UH3z4viKRqDbWN5TLDjZHxWLxwcYEEW0wHc5nFXiUTCSVGs21aeq0eKzCcPX32dmZOp32hSNVN3Ff7qP6AV9Y4UBC8dCyosGUwsGE/N7QcD2sKTmOO5WGP1sAFsT4kSafQv74aBBwLLSsgC8sz9iRJo55Ypq536Utu69mp6qz+oFKtYKqrVP1+p3RUGA2NgFPR6gBPoI7Wd5xHNVqVdVqVf30Zz9RPJbQ5uaWdnK3lF5bVyQSHT7OybcmTAdnGDsGc22iikVjymVvqdNpq1gqDo5I5R+pWDxVs9WUbduSriLajK3Jlimvx6+gP6pIMKF4aFXRUEohf0x+b1CG4bnwG+HBfduT/lcHADfi8pGm5OCpmfCaosHzI008NYPZcD4UuNWtqtw41mltX9XmiTq95tjGpsXdWAk8D0IN8IzcDxXbtnVWLumsXNIPf/QDpVKpweav1dJQAABLGUlEQVSozI7WVtMKBoNEG0wVZ+wJlUAgqK3NbW1tbuvTt/+mKpWyDo4Kyuf3dXJypFq9JsuyJD3rFyn3t8CSYXjk9wYV8scUCSYVD60MjjH5o/J5AzJlXtg+wm+EASwaN854TI8CvsGRplR0XYnwqkKBuDymbzRkVeKpQky/wXdeW51eU5XmsYrVvMqNI7V7ddk2G5uAF0WoAV7A+eaovk5OjnVycqzvff+7Wl5aVjYz2By1vLSiQCAgiS9amC7u69Hn82l1dU2rq2t65Vd2Va1VdXx8qP38Ix0dH6pSKavX6w2udzxuYRk9nu8xvfJ7QwoHEoqGBmuyI4GEAr6wvB7/pVX3bB8BsHicsfdMn8KBuOLhFaWi64qFlhX0RUZD0gfvlQRsTD/3F5K9flvVVlGlWl6l+oFanaosNjYBV4JQA7yk881RXR0cFnRwWNB7332g1ZU1ZbM7ymxllUym5PP5JBFtMF3c16NpmkolU0olU/obv/jLajQbOj09GQ4jLqjVqwxWwQajigSSozATDsTl94bkNX2j2U78JhjAInOjtGmY8nmDigRTSg7nzUSCSfm9IbY0Yea4x/D6Vlf1dkmlekGlWkGNdll9NjYBV45QA1wh98Op1Wrpw0cf6NH+h4qEI0qnN5TL7mhrc1vxeEJej5cvZ5g640N/Y9GYYtG4dnK31Gq3VK2eyR/2KByIyecNyGMOPz7cHzR4WgbAAjs/0uRVwBdWLLysZHiwQjvkj8rrCbClCTPHHQrct3pqdioq1Q5UqudVa52pZ7WHM5aIM8B1INQA12D8A6veqKv+sx/p5+//TLFYTJsbm8pmdrSxvqloNDZ85JkvbZgu7iP4khQOhRUOhYf/7xKvVwA4H5zuNf0KBWJKhteUiKwpHl4ZbmkafM3mSBNmyfnGJkutbk3l+qGKtbyqzVN1+63hUOCLW1IBXD1CDXDNzjdH2apUyqpUyvrxT36kRDyhrc1t5bK3tLa2rnA4fGG7AzAtiDIAML6lyRjO50qOjjRFQyn5vEGZhsmRJsyg4cYmx1a7W1e5caxibV+VxrE6vaZsh6HAwE0j1AA36HwIsaViqahiqai//uH3tZRa1vZ2RrnsLa0sryoYDEriB2QAACbpfI6XRyFfWNHQklKRDcXDKwoHE/KaPlZoY2a5Q4G7/aaqzVOdVvdVbhyq1a3Lti3iDDBBhBpgQtwPvX6/r6PjQx0dH+q733tPKyurymZ2lNnOanlpWT6fXxLRBgCAm+Ae7fCYPoUCccVDY1ua/FF5DI/ECm3MqNHGJqujWquoUq2gs/qBGp2KLLs/uIY4A0wcoQaYAu6HYbfbVT6/r0Ihr4fv/Rutra5rJ7ejrc2MEomkvN7x8+4AAODlna/Q9nmDigaSSowdafJ7gzLGjzQxPB0zxhgOk+nbXdXbZZVqg41N9faZ+nZ3dI3B0BlgahBqgCnjRptms6n3P/iZPvzwfUWiUa2nN7STu6WN9U3F4vHhkEIeswYA4HmNVmibHgW8IcVCy0pGB1uawv6EvB6ONGG2nQ8F7qvZqeqsfqBiLa9aq6hevzN8cow4A0wrQg0wpdxg48hRrVZVrVbVz37+E8VjcW1ubiuX3dF6ekPhcITNUQAAfKTxLU0+hfwxxcMrSkbSiodXFPRF5fFcfGqVz1TMnuFQYNtSq9fQ2Whj04k6veboWB9zZ4DpR6gBZoD7YWrbts7KZzorl/TDH/1AyWRSme2sspkdra2uKRgMsTkKAABd3NLk8wYVGT/SFEzJ7wuxpQlz4HxjU7fXUKVxomItr3LjSO1eXbbNxiZgFhFqgBnjrvu2rL5OT090enqi73//u1paWlYmM4g2y0srCgQCkviNIABgcYwfaQr6QooFh0eawmsKB+LyevwcacJcON/Y1FKtdapiNa+zxqFandpgKLDBUGBglhFqgBk2GkLc6+rgsKDDo4K+852HWl1dUyaTU2Y7q1RyST6fTxLRBgAwfxzHGR1pCvqjSoRXlYysKx5e5kgT5ophGJIj9ayO6u0zFWv5wcamdll9uze4hjgDzAVCDTAn3A/ldqelDx+9r0f7HyocDiud3lAus6OtrW0l4kl5PB5JfFEFAMyqsS1NnoDCgYSSkTUlImnFQkvye0MyTY40YT6cb2zqqdmpDDY21QuqtUrqW53RnwWGAgPzhVADzJ3z36Q0Gg397Gc/0fvv/0yxaEwbG1vayd3SenpD0Whs8EVWRBssBsexJ30LAF7Q+ZEmUwFvRNHQkpKRtBKRVUUCSY40Ya64G5ts21KjW1O5fqhibV/V5qm6/fZoY5M7nwbA/CHUAHNstDnKcVSpVlSpVvTjn/xQiURSW5vb2snd0trausKh8OisMzCPAv6AtjYzOjgsqNVqyrYH0YbHw4Hp5W6oMU3vYEtTaEWp6LpioWWFAjF5DK9kcKQJ88Ld2GSr1aup0jjWaW1f1eaJ2t2mHMcefWbx2QXMP+PO3u2OJP+kbwTAzXG/zPp8Pi2llpXZziqTyWl1ZVWBQJBog7nU6/VUqZZ1dHSofGFfxydHqtWq6vf7kvjiO9McKRD2KLcbk9dnTvpu8MLOjzR5PX5FgsnBvJnouqLBlALe8IUjTcA8cL9zdXotVZsnKtb2VW4cqdWty7at0cYmAAulS6gBFpwbZAKBoJaXV5QdDiFeXlqR3++/cA0w69wYY1mW6o2aTk9OlC/s6/DoQGflM3W7neERKYYxzhRCzcwaP9Lk94YUDS4pOVyhHQ4m5PMERgNUiTOYF26c6Vkd1VrF4dyZAzU7FVnW+cYmAAuLUAPAdf6bzFAopLXVtHLZHW1tZZRMpOT1XtyaAcw693y/49hqtVo6OyuqcJBX4aCg0+KJWq2mLMsaDGkk2kw3Qs0MceR+jHg8PgV9EcXDK4N5M+FVBf1ReT3upsLB9cA8OB8K3FW9XR7EmVpBjc6Zelb3wjUAFh6hBsBlgxjjyDQ9ikQiWk9vKpfd0ebmtmLR2HDVKcMaMT/GQ0y321W1WtHh0YEKB/s6OjpSrV5Tv9974vWYAoSaqeY+NTPY0uRXyN3SFF5TLLysgDck0/Tw1AzmjjsU2LL6anarOqsfqFjLq9Ysqmd1xoYCA8AFhBoAH82NNh6PV7FYXFsb28rldpRObygaiV4YWAzMC/dpG8vqqdFo6PjkWAcHeRUO86pUymq3249di4ki1Eyd0ZEmw5TfF1I0mFIysj7Y0hRMjo408dQM5s34xqZWt65y41DFWl6V5om6vdZoSDZzZwB8BEINgGfnxhiv16tkMqWtzYxy2R2traYVCoUYQoy55B59sixLnU5bxVJRh4cF7Rf2VSoV1Ww22CI1aYSaqeA4jmRIHsOroD+qWGhZqej6+ZEm03dhSxMwTwbfgWy1e01VGscq1vIqN47U6Q0+I4gzAJ4DoQbAi3G/aPv9/sHmqExW2cyOVpZXFQgELlwDzBM3xvR6XZUrFR0fH2g/zxapiSLUTMjFLU3hQHywpSmyrlhoSQFfmCNNmGvuL6i6/bZqzVOd1vIqNw7V6lRlsbEJwIsj1AB4eW6QCQZDWl1ZVS67o+2trFKpJfl8vgvXAPPk4hapuk5PjwdbpA4PdFYuqdvtynZsGWyRul6EmhszfqTJ5wsOjzSllYykFQkk5fNypAnzzX19962O6u0zFWt5ndUO1OiU1bcHs8wYCgzgJRFqAFwtdzBeOBxRem1dO7kdbW5mlIgnGEKMuTY+r+nxLVLF4omarebgN6xEm6tHqLlWF480RRQLrSgVTSseXlXIH5PH9MngSBPm2PnGpp4a7fJoKHC9faa+1Rk9WQYAV4RQA+B6uF/YTdNULBrTxsaWspmcNje2FI3G5PF45DhEG8ynp22Ryhf2dXx8pHq9pp67Rcrgt68vjVBzxcaPNPkU9seViKwpGVlXNLSkoHukScQZzK/Rxia7r1anprPGoYq1fdWaRXX7bTY2AbhOhBoA1298c1QintDWVkbZzI7W0+sKhyNsjsLc+6gjUuXymdqdtgbHRHja5oUQal7ahSNN3qCiwaQS7pGmYFJ+b3Dw2mTeDOaaIcOQbNtWu1dXuXGsYm1flcaJOr2mHIehwABuBKEGwM1yY4zP51MquaTt7axy2ZxWVtYUCoYuXAPMI8MwZMiQ7dhjR6QKOjjM67R4omaTI1LPjVDzQtz3Wo/pVcAXVjy8omQkPdjSFIjJa/qHR5ok5s1gfhmjo3udXlPV5qmKtX2VG0dqdeuybYsnHwHcNEINgMlxf0gIBAJaWV5VJpNTdjurpaVl+f1sjsL8e9oRqUJhX0cnR6rXzo9IEW0+AqHmGblHmiSvJ6CQPzY80rSmWGhFAV9YHrY0YUG4G5t6/Y5q7aJK1bxK9UM1uxVZVp84A2CSCDUApoN71jsUDGltLa1sZkfb2xklEyl5vd7RNcA8Gz8i1WjUdXJ6rEIhr4PDwtgRqYvXQoSaj+AeaTIMQ35vSJFgUqloWonwmqLB1HBLk8lTM1gIbnjp2V01Wmcq1go6qxdUb5fVt7sXrgGACSLUAJg2g9/4mqapSCSi9NqGcrlb2tzYUiIeZ4AlFsb4Eal2u6ViqajDw4LyhX0VS6dqNpuybXt07UIj1Fz81zHc0mQaHgV9EcVCS0pGN5QIryociMtjekdPEwDzzg0vltNXo13RWf1ApVpetVZJPavDUGAA04hQA2B6jW+Oisfi2tzYUi53S+vpDUUiUZkmvwXG4nB/kOj1uipXyjo+PtJ+/pFOTo5UrVXV7/cvXLdQ3FBzOyavfzFDjfvDpsf0KhyIKx5eVSq6rmhwSUF/VB7DI7FCGwvDHQpsqdWtq9w41Gk1r2rrRN1eizgDYNoRagDMBveHC6/Xq2Qipa2tjHLZHa2tpRUKhvjtMBbKE7dI5fd1eHSgs3JJ3W5XtmMvzkBiR/KHPdpZqFDjzpsx5fcGFAmmlAivKhldVzSYlN8bYksTFswwzji2Or2mKo1jFWt5VRpHavcasm02NgGYGYQaALPHDTJ+v19LqWVlMzllMjmtLK8oEAheuAaYd+Pr7Vutls7KpeFcm7xOT0/UbDVlWdbgKNW8RpsFCTXuvBmP6VHAF1YstDzY0hRZU8gfl9fDliYsHvcXNd1+W9XmiUq1gs7qB2p1a7LY2ARgNhFqAMw2N8iEgiGtrKyOhhAvpZbk8/kvXAPMu6dukTrI6+j4UPV6Tb1e74nXz7S5DTWDp2ZkSF7Tr5A/qnhkVanIuuKhFQX8YXlMhq1j8QzijNS3Oqq1SirVCyrVCmp2KupbPeIMgFlHqAEwH9wfUgzDUDgUVjq9Pog2WxnF4wn5vD45cvhhBgvFHUjct/qDLVInxyoc5FU4zKtSKavdnpMtUnMUasa3NPm8QUUCidFTM7HQknzeoEzD5EgTFo4xqC/qWz01OmWVaoM4U2+fqWd1Rn9uAGAOEGoAzB/HceTIkcf0KBqJamNjS7nsjjY2thSLxmSa5ug6YFG4R59se7BFqlQq6mC0RaqoZrMxu1ukZnyY8PngdPdI05KSkfXRlqbBkSaDI01YOG6csey+Wp2azuoHKtYKqrZO1eu3GQoMYF4RagDMt8EPQI48Hq/i8YS2NreVy95SOr2uSDjCEGIspCcekTo+VKGwr+Pjw9nbIjWD67ndFdpe06eQPzba0hQLLSvoj8hjeNnShAXlbmyy1e7VVW4cq1jbV6Vxok6vKcdhKDCAuUeoAbA43B94fD6fUsklbW9nlMvc0urqqoLB0IVrgEUyvkWq0ajr5PRY+cK+Dg8PVC6fqdPtyHFsaVq3SM1EqHG3NBnyeQKKBJNKRtJKRtYUCS3Jz5EmLDj3FyedXlPV5olOa/sqN47V7tZl2xZxBsAi6Rp39m53JfkmfScAcJPcIBMIBLS8tDLaHLW8tCK/nyHEWFyDEGPIcYZHpM5KOjjID45IFU/VbDWn74jUlIYad96MaZoKeMOKhpaUirpHmhJjR5p4r8Ficl//PaujWrOoYi2vs/qBmp2qLLvPUGAAi6pn3Nm7XZaUmPSdAMCkuGfcg8GQVlfXtJO7pe2tjJKJlLxeNqpgsbkxptvtqlKt6Pj4UPv5Rzo+OVJtWo5ITVGoGbyfSB7Tp6A/pnh4WanIumLhFYX8UY40YeG54aVndVVvl3RWPxgOBS6rb3cvXAMAC6pg3Nm7/aqkfyjptyQlJ31HADAp45ujotGY0mtp5bK3tLW5rVgsLq/Hy+YoLLTxI1L1Rl2np8fK5/d1eHygs7Mzdbsd2Y4t46aPSE10mPDlI02J8KqS0XVFgyn5fSGONGHhjYYCWz01OtXhUOC86q2ielZn9GcIABZcXtK/lPR/Ne7s3ZYhJ+zI+KykPRFsAOB8CLHpVSwW0+bmlrKZW9pY31QkEpFpeiSiDRbY+BGpVquls3JJhcK+Dg4LOj09UbPVlGVZo21T1+qG13OfH2nyKOANKRpaGs6bSSsUiMs3PNJEnMEiO9/YZKndremsfqRSLa9K80TdfouNTQBwrqBBoHnHdpxvm4bRNyTp7t5tOZIbbH5N0hsi2ACApPNo4/X6lEwktbWVUTazo/RaWqFQePRFk2iDRfXELVJHByoc5HV0fKh6vaZer/fE66/EtYcaR+4fb6/Hp6Avonh4VclIWvHIqoK+iLyewbg/VmhjsQ03Njm2Ot2mKs0jFWsFlRtH6vQasm02NgHAmFGgcRzn24Zh9B3H0Ve+9OcX3yXv7t2WbUgexwnbBBsAuMSNMX6/X6nUkjLbWeUyO1peXlUwGLxwDbCo3KdtLKunRqOh45NjHRzmdXBQULlypna7/di1L+kaQo371Ix7pCkciCsZSSsRWVMstDzY0mR6eGoG0PlQ4G6/pWrzdDgU+FDtbk2WbTEUGAAuKkj6Yw0CzYPxQOO69I757/2DX1Er4JFtSKbDEzYA8DRukAkGg1pZXlU2u6PMdlZLqWX5fL4L1wCLyj36ZNvDLVKlog4OC8oX9lUqFdVoNl5+i9QVhZrRkSbDVMAXViSYGm1pigSTY1uahv+jwAJz/yz0rLbq7TOVqnmV6gdqdirqWz3iDABcNgo0tuM8MA2j70j6ypvfvHThU989v/Dap2SZhmwZMjkSBQAfyT1rHwqFlV5bVy67o62tbSUTKXk8ntE1wKJzY0yv11WlUtHRcIvUycmRqi+6ReolQo3jOJIheQyvQv6YYuFlpaIbioeWFfLHZJpeGWxpAiSdh5e+3VOjfabSaGNTSX2ry1BgAHgy94jTf2Xb9gPTNC89QfO4j30n/fzrr8g2JEfG4zNsflNSatL/xAAwTc6HjJqKRqJaX9/UTm4whDgWi8s0Bz9E8kMfcHGLVKNR18npifKFfR0eFXR2VlK325Xj2NLHbZF6rlBzvqXJ6/ErHIgrEVlTKrKhaCilgDc8+HPKkSZgaDB3xrL7anWqOqsfqljLq9oqqtdvMxQYAJ7O3eL0jhtobMdRr9/XP/vdv/rIv/GZ31Vf3XtFkmSfBxu2RAHAR3BjjMfjUTye0NbmtnLZHaXTG4qEIzIMc/hDKIDxodytdktnZyUVCnkVDvZ1WjxRq9V6+hapjwk14wHV7w0pGkwpMdzSFAkm5PMEONIEXDAcCmzbavfqKjeOVKwONjZ1eg3iDAB8NDfQvOtucbKdwbbYP3jrW8/0X/BC77B3914Zf8Lms5LuafCETWLS/0YAYBq50cbn8ymZTCmznVU2k9PqSlrBYHA0iBHA41ukOqpUhlukCvs6OjlSvV67eETqCaHmPJR6FfRFFQ+vDIYBh1cV9EflNX0SR5qAMcbwmJ+tTq+lSvNExVpe5caR2t0aG5sA4OPlJf0rja3Zth1HX/2II05P81LvtG6wkYyI5Py6BkeifkMEGwB4KvcHw0AgoOWlFWUyOWUzOS0tLSvgD1y4BsD4Eam+6vW6Tk6PB0ekDg9UrpTV6bTlD5na2Y3L5/ecH2kKrykZTSsWXFLAF2ZLE/AE7i8Kev22qq2iSrWCzuoHanaqsuw+Q4EB4ONdCjQfN4Pm41zJu+6dvdvD/zIj7AyCzT0RbADgYwxmZciQQsGw1lbXlM0MNkclEkk2RwFPYBiGDBmybEvtdlulUlGFg32dnB0qnQtrJbWhRHhNkUBSPm9g9MQNcQY45/656FmdwcamWkGlekGNdkV9q0ucAYBnc+mI08sGGteVvgPf2bstx5BMh2ADAM9jEGMcGYapSCSi9NrGYHPU5rbi8YQ8Hq8GYYcfNgHXhSNSva5Mw5DX4x5pkpg3A5wzBvVFltVTo1NVqV5QqVZQrVVS3+owdwYAnt1ozbbjOA+MKww0rit/N/7tf/BptQP248HG3RJFsAGAj+FGG4/pVTQW0+bGlnLZW1pf31A0EmVzFADgmbhxxrYttbo1ndWPVKztq9o8VbffIs4AwPMZBZrRmm1JX3nzm1f+P3Rt78yff21Xtjl40HjsSBTBBgCegxtjvF6vEomktja3tZO7pbXVtEKhMEOIAQCPGd/Y1FC1eaLT6r4qzWN1ug3ZDkOBAeA5XQ40V/wEzeOu/R361dd35RiDs+HMsAGAFze+OWppaVmZ7dxwc9SqAoHghWsAAIvFDffdfkvV5qlOq/sqNw7V6tZl2xZxBgCenzuDZhRobMdRt9/XP//dv7rW/+Ebe7e+u7craRRsIg5bogDghblBJhgMamV5dTDPZiuj5aVl+Xz+C9cAAOaTG2f6Vle1VlHFWkFn9YIancpgY5MYCgwAL+CJgcZ2HP3hW9+6kRuYyDv33b3d4fYF1noDwMtyZwyEQmGl19LDIcQZJRJJeb3e0TUAgNnnhpe+3VOjfaZS/UClWl71dlk9qyM5Yu4MALyYS1ucbMfRV6/xiNPTTPRd/M7erkSwAYAr4cYY0zQVjUS1vr6pXHZHmxtbisVi8pheOWyOAoCZM9rYZPfV6tR0Vj9QsZZXtVVUr99mKDAAvJxrW7P9oqbiHf3O3u3hzTB0GACuwmhzlMereCyhra1t5bI7Sqc3FAlHRl/oiTYAMJ3GNza1u3WdNY5UqhUGQ4F7zWGcGVwJAHghUxdoXFP1zn5n7zZrvQHgio0PIU4mU9reyiqXzWllZU3hUPjCNQCASRpsbHIcR51eQ5XGiYq1vMqNI7V7ddk2G5sA4AqMZtA4jvPAmKJA45q6d/m/+/c/rVbQJtgAwDVwg0zAHxhujsoqm93R8tKKAoHAhWsAADfDHQrc67dVbRVVrOV1Vj9Uq1MdDAU2GAoMAFdgfM32t03TtBxJX3nzm5O+r0um9h3/86/tyjaHI4c5EgUAV86daRAIBLW2uqZsdkeZraySqZR8Xt/oGgDA1RvEGalvdVVvl1SqFVSqF9Rol9W3e4NrpverOgDMksuBZsqeoHnc1L/7v/r6rhxjtNabYAMA18CNNpFwROn0xnBz1Lbi8YQ8Hs/oGgDAi3PDi2X31OhUhkOBC6q1iupbHTlsbAKAqzS+ZvvbpmlatuOo2+vpn//e/3vS9/aRZuaT4O7erqRRsIk4cj4rgg0AXKnxzVGxWFyb65vK5W5pY31TkUhUpumR2BwFAM9hMHfGsi21ujWV64c6re2r1iyq22+xsQkArt54oHlgmmbfdhzZjqM/fOtbk763ZzKTnwp393blsNYbAK6VG2O8Xq8SiaS2NzPKZHJKp9cVDoUHP1g4Gr4fAwDODeKMbdvq9BoqN45VrO2r0jxWu9uU4zAUGACuwWiLk2HY33acQaD56hQfcXqamf50uLO3K10MNnviCRsAuHLnm6P8WkotKbOdVSaT0+rKmoLB4IVrAGAxnW9s6vZaqrROVKoVBkOBuzXZtsVQYAC4HpcCjeTo/puzF2hcc/FJcWfv9vAfhhk2AHDd3CATDAa1vLyibGZH2e2sUqll+f3+C9cAwLxzhwL3rLbqrdJwY9OBmp2q+laPOAMA12fuAo1rrj417uzdZq03ANwQN8YYhqFQKKz0WlrZzI62tzJKJJLyer0XrgOAeWEM6stwY1N5+OTMgertknpW9/waAMB1GM2gkZwHkjE3gcY1d58g/96//2k1QzbBBgBu0CDGODJNjyKRqDbWN5TLDoYQx+MJmaY5dh0AzB43zlh2X81OVWf1wmBjU7OontVhKDAAXL/Rmm3DsB/M0xM0j5vbT5PPv7Yr2xyOHL54JOo3JCUnfX8AMK/cGOPxeAaboza2tJO7pXR6Q9FIdHhMgGADYBa4Q4Ettbp1lRtHKtb2VW2eqtNrEmcA4GaMB5pvO45pzWugcc39J8urr+/KMUZrvQk2AHCDxjdHJZMpbW9llMve0trqmoLBENEGwFRy35s6vaYqzWMVq3mVG0dq9+qybTY2AcANGR1xcp+gMQxbptnRP9n7/0763q7VwnzC3N3blUSwAYBJcYOM3+/X8tKKMpmcspmclpdWFAgELlwDADfNjTO9flvV5qlK9YJK9QO1OjVZdp+hwABwc54YaCRbb9/7y0nf241YyE+bu3u7cljrDQAT4waZUCik1ZU15bI72t7KKplMyefzXbgGAK6Lu7Gpb3VUb5+pVCuoVCuo0Smrb/cG1yzm12UAmIRLW5wMw9bb97416fu6cQv9yXNnb1c6DzafFUOHAeBGjW+OikQiWk9vKJPJaXszo3g8Lq/XJ8dxiDYArsz5xqaemp3K4MmZWkG1Vkk9qyM5Yu4MANysuV2z/aL4FNJgrfeAERZbogBgIhzHkSNHHtOjaDSmzY0t5TI72tjYVDQak2l6JBFtADy/841Nllrdqs7qhyrV8qo2i+r2WwwFBoDJINA8BZ9IY+7s3WatNwBMAXfdt9frUzye0NbmtnLZW0qvpRUOR0Y/UBFtADydu7HJVrtXV6VxrGItr0rjWJ1eU7bDUGAAmJC8Bluc3pWcB5JBoHkMn0yP+Xt/79NqROwnBRuGDgPABLgxxufzKZVaUmY7q1xmRysrqwoGQxeuAYDxjU3V5qmKtX2VG0dqdeuybYs4AwCTMz4keCHWbL8oPqWe4vNf3JXtGY4cZksUAEwFN8gEAkGtrqwos51TJpPTUmpZfr//wjUAFsdoY5PVUa1VUrG6r7PGoZrtChubAGDyCho8QUOgeUZ8Yn2MV1/flWOw1hsApo07UyIYDGltNa2d3C1tbW0rmUjJ6/WOrgEwn9zw0rd7FzY21dtn6tvdC9cAACZi7Aka69uO47EkRx5PS/9k77+f9L1NNT69ntHdvV1JBBsAmEZutIlGolpf39BO7hPaWN9ULBaXx+MVQ4iB+XA+FLivZruis8ahirW8aq2iev0OQ4EBYDqMH3F64K7Zlmy9fe8vJ31vM4FPshdwd29XDmu9AWDquDHGY3oUj8e1sbGlnewtra9vKByOsDkKmEnuUGBLrW5d5caRirW8qs0TdXpN4gwATI8nBpq3731r0vc1c/hUewl39nalQbBhrTcATBk3xni9XiWTKW1vZZXL5rS2mlYwGBr8YOdoGN4BTJdhnHFsdXtNlUcbm47U7jVk22xsAoApcmnNNoHm5fDpdgXu7N0e/hXBBgCmkRtt/P6AlpeWldnOKpPJaWV5RYFA8MI1ACbHHQrc7bdVa56qWMvrrHGoVqfGUGAAmD6XnqBhSPDV4JPuCt3Zu/2ktd4EGwCYIm6QCQZDWl1ZVTazo0wmq1RyST6f78I1AK6f+3Rbz+qo3j4bxJnagRqdsvpWjzgDANMnr8EWp3cl54FkEGiuGJ96V+zv/91Pqxqzx4PNZyXdE0OHAWCqOINzTzIMQ+FQWOn0hnLZHW1tbiuRSMrj8QyuI9oAV258Y1OjXdZZ/UDFekH1Vkl9qyNn+GcTADBV3EDjPkHDmu1rwifgNfnCF3dleYYjh9kSBQBTzXEcOXLkMT2KRmPaWN/UTu6WNtY3FY3GZJrm6DoAL2owd8ayLbU61cHGpmpe1dapev02Q4EBYHoVNAg0/xWB5mbwaXjNXn19V47BWm8AmBWjzVEejxKJpLY2t5XL7ii9tqFwODyaoQHgWbgbm2y1ew1VGkc6re2r2jhRu9eU49jEGQCYXmNP0FgPHMdjSY683qb+09f/f5O+t7nGJ+MNubu3K4lgAwCzxA0yPp9PqeSSMttZZbM5ra6kFQgEiDbAU4yGAvdaqjRPVKztq9w4Uqtbl21bbGwCgOk2mkEzvmZbsvX2vb+c9L0tBD4hb9h4sJGMiAYzbAg2ADDl3CATCAS0vLyqXCanzHZWS0sr8vv9F64BFpEbZ3pWR7VWUaVaQaX6gZrtChubAGA2XNriNAg0jt6+9xeTvreFwqflBN3Z25UGwYa13gAwQ9xZGqFQSKsraeVyO9reyiiZSMnr9UlyiDZYCG546VldNdpnKtULKtUKanTK6lndC9cAAKbWEwPN2/e+Nen7Wlh8ck6BO3u3h39FsAGAWTKIMY4Mw1Q0EtX6+qZy2R1tbmwpFovL6/HKIdpgzhiDR2NkWX01OxWV6gcq1QqqtYrqWW02NgHA7Lh0xIkhwdOBT9Epcmfv9pPWehNsAGAGuJujvB6vYtG4Nje3lMvuaD29oWg0NvrBlWiDWeTGGdu21OrWVW4cqljLq9o4UaffGj5lNrgSADD1RoFGch5IBoFmyvBpOmX+4b/zaZWT9pOCDTNsAGBGuDHG6/UqmUhqayujXPaW1lbTCoVCDCHGjBhsbHIcW+1eU5XGsYq1vMqNI3V6Ddm2TZwBgNky2uI0DDSs2Z5SfLJOqS98cVeWZzhyWKNg4x6JSk76/gAAz8YNMn6/X0upZWUyWWUzO1pZXlUgELhwDTANRhub+i1Vm6ejONPqVGWxsQkAZtHYmm37geOYliTdf/Obk74vPAWfslPu1dd35RgX1nrzhA0AzCg3yASDQa2urCmb3VFmK6tUakk+n+/CNcBNGsQZqW91VGuVVKrlVaofqNGpyLJ7g2v42ggAs2Ys0FgPHMdjSY683ob+09f/zaTvDR+BT9wZMb7Wexhs3KHDBBsAmEHu5qhwOKL0Wlq57I62NjNKJJLyeDyja4Dr4oaXvt1To13WWf1AxVpe9faZ+laHocAAMLsuPUEzWLNt6+17fznpe8Mz4NN3xowHm8e2RBFsAGAGuTHGNE1FozFtjG2OikZjMk2PWPeNqzLa2GT31erUdNY4VLGaV611qm6/PQqIAICZdGmL0yDQOHr73l9M+t7wHPgknmF39nYlgg0AzA03xng8XiXicW1tZZTN7Gg9va5wOCLDMEW0wfMbDAW2bUvtXlPlxpFKtbwqjWO1e005DkOBAWDGPTHQvH3vW5O+L7wgPpHnwGPBhqHDADAH3Bjj8/mUSi4ps51VNpPTyuqaQsHQhWuAy9yNTY46vaYqzRMVa/sq14/V7tVl25YGD9fwVRAAZtilQMMWp/nAp/McubN3+/G13m9I+i1JiUnfGwDgxblBJhAIaHl5VdntnLKZnFKpJTZH4QJ3Y1Ov31atVVKxltdZ/UDNblWW1SfOAMB8GAWa4ZptAs2c4ZN6zrz+6md0smI9KdjwhA0AzAF3hkgwGNLa6pqymR1tb2eVSibl9bI5ahG54aVnd9VonalUK6hUL6jeLqtvdy9cAwCYaaMhwcNAYxFo5hOf2nPqC1/cleUZjhwWwQYA5o8jxxkMIQ6HI1pPbww3R20rFouzOWrOueHFcvpqtisq1Q9UquVVa5XUszoMBQaA+fLENdsEmvnFJ/ice/X1XTnGhbXeBBsAmDOjIcSmR7F4XBvrm9rJ3dL6+qYikYhMw9TgEqLNbDsfCtzq1nTWOFKxuq9a81Sdfos4AwDz54mBxuer6f/42oNJ3xuuEZ/mC+Lu67sSwQYA5p4bbbxer5KJlLa2tpXL3tLaWlqhYGg0wwSzwzAM2Y6tTrehSvNYp9W8Ks1jdboN2WxsAoB5tC/pX2os0BiGLcOw9E/f+KtJ3xtuAJ/qC+bu3q6kQbBhrTcAzDc3yPj9fi2llpXZziqTyWllZVXBQPDCNZgublDr9tuqNk9UrOVVrh+q2a2xsQkA5pcbaC6s2ZYcvX3vLyZ9b7hBfMIvsMfWehNsAGCOuUEmGAxqZXlVuexgCPFSakk+n//CNZiMQZyR+lZHtVZpNBS42amob/WIMwAwv54YaN6+961J3xcmhE97PB5sOBIFAHPMjTGGYSgcDiu9tj7YHLWVUTyeGG6Ocog2N8QY1Bf1ra4a7fJwKHBB9faZelZHcsTcGQCYX5cCDUOCIRFqMObO3m3WegPAAhnEGEem6VE0GtPG+qZy2R1tbGwpFo3JND0i2lw9N85Ydl/NTlVnwzhTbRXV67cZCgwA8298zfZDySDQ4AK+BeCCL//GZ7S/bRFsAGDBuNHG4/EqEU9oc3NbO8MhxJFIdBQOiDYvyt3YZKvdq6tcP1SxlleleaJOryWHocAAsAjGA80DyWDNNp6IbwN4oi/8zq4s73DkMFuiAGChuDHG5/MpmUxpeyujXPaWVlfWFAqFLlyDj+YOBe70mqo0T1Ss7avcOFK7W5dtE2cAYEE8cc02gQZPwzcDfKRXX9+Vw1pvAFhY55ujAlpeXlE2k1M2k9Py0or8foYQP4kbZ3r9jmqtooq1vM7qB2p2qrKc/uAavoIBwCJ4YqDx+8v6T774nUnfG6YY3xLwTO6+visRbABgobmzU4LBkNZW15TL7mhrK6NUckler3d0zSIyZMjRYChwve1ubDpQo11W3+6OrgEALAR3SPAo0BiGLcOw9E/f+KtJ3xtmAN8Y8Fzu7u1KGgSbsbXeeyLYAMDCcOSMthFFIlGtpzeUy+1oa2NbsVhcXo9XzgIMIR4NBbb6anTKOqsfqFjLq946U89qy2FjEwAsmieu2ZYcvX3vLyZ9b5ghfHvAC3tsrTfBBgAW0PjmqFgsrs2NrcHmqPVNRSJReUzPXEWb841Nllrd2mgocLV5qm6/xcYmAFhMTww0b9/71qTvCzOKbxJ4aY8FG45EAcCCcqON1+tTIp7U1lZGuWxO6bV1hULhGd4cdb6xqdNrqNI8VrGWV7lxrE63IZuNTQCwqC4FGoYE4yrwjQJX5s7ebcmQDNZ6A8DCOx9C7FcqtaTM9mAI8cryqoLB4IVrppU7FLjba6naOh0OBT5Uu1uTZVuDzzy+SgHAItrXYEjwu4ZhPyTQ4Krx7QJX6n/9P/ib+v6n+gQbAMCIG2SCwaBWlleVzeSUyeSUSi3J75uuzVGDOCP1rLbqrdJoY1OjU5Fl9YkzALDY8pK+LuldyXkgGazZxrXgmwauxd/5nV31vcORwzLCjvRZySHYAMCCc2e4hENhra2tj4YQJ5NJeTyT2Rzlhpe+3VOjfaZSvaBSraB660x9u+t+lk36Xx0AYHKeuGabQIPrwrcOXKtXX9+VYwyXeksEGwCApPMYY5qmIpGoNtY3tJP9hDY2NhWLxWWa5oXrrtr5UOC+mp2qzoZDgWutU/X6HYYCAwCkpwSaQKCo//h3vj/pe8Mc4xsIbsTd13clYzhymGADABjjxhiPx6N4PKHNjS3t5G4pvbahSCQymhXz8tyhwJbavYbK9SMVa/uqNE/U6TWJMwAA19gMmkGgMQxbhmHpn77xV5O+NywAvo3gRt3d25UkDZ+xIdgAAC5wg4zP61MymdL2dla5bE6rK2kFg8EXijaDv8dWp9cabGyq5lVuHqndrcu22dgEABhxtzi94w4JNgxbkqO37/3FpO8NC4RvJZiYi2u9CTYAgIvcIBMIBLS8tDIYQryd1dLSigKBwIVrHucGnV6/rWqrqFItr1L9QK1OTZbNUGAAwAWX1mwbhq23731r0veFBcU3FEwcwQYA8HEGx5KkYDCs1ZVVZbM7ymxllUym5PP5xi6UelZH9faZSrWCSvWCGu2K+laXOAMAeNylQMOQYEwDvq1gatzZ25VjSKajkCP9+jDY/JakxKTvDQAwHdwnaAzDUCQcUTq9oVx2R9vbGZk+S6X6gUq1vGqtkvpWR44j5s4AAB43mkHj2MZDw3QINJgqfHPBVPm/GVt65/UlafDFOuzI/nVJe+IJGwDAYxzHkSNHHtOjzcyaVnd86loMBQYAPFVe0tclveM4xkPDcCw50v0vfXPS9wVcwLcYTKXP/e4nZbZ9g9+ceoywbI5EAQCezHEcLafjWv/FgGTYk74dAMD0cQPNu7ZlPjA9NoEGU41Qg6n2uS+9IsM2JMuQPCLYAAAuIdQAAJ4ir8ERp3fcQOM4hqoncf1f/rf/7aTvDXgqQg1mwp03bw/mDduGZBJsAADnCDUAgMeMZtCMAo1tyLZM/cHv/tmk7w34WIQazJQ7924P/sI2JENhOQQbAFh0hBoAwNB5oLHNh6Zp923blBzpq1/+xqTvDXhmhBrMrDtv7Gq4zoNgAwALjFADAAtvtGbbsY0Hhun0HdvQV97615O+L+CFEGow8wg2ALDYCDUAsLDcJ2i+Ngo0jqGvfIlAg9lGqMHcuPPGrmRL8igkW79OsAGAxUCoAYCFMzri5NjGQwIN5g2hBnPl1/5KSvwXo2ATlq1fk5x7ItgAwNxyHGl5LWqv/42gMVgVCACYU26gecdxjIeG4bBmG3OJLzOYS5/7vU/KaHsHQ4cJNgAw1xxHiqX8Z5lfiUYMU/5J3w8A4MrlJX1dgzXbD02PTaDBXCPUYK597kuvDH65ao2CDTNsAGDeOFIk6T3JfCoWN00jMOnbAQBcGTfQnK/ZdgwVP1zWf/kf/fGk7w24NoQaLIQ7b96WHA2esDEJNgAwVwah5jTzqViMUAMAc+F8zbYbaGxDluXRH/7un0763oBrR6jBQrlz7/bgL2xDMsSWKACYB4QaAJgX54HGNh+apt23bVNypK9++RuTvjfgxhBqsLBY6w0Ac4JQAwCz7vIWJ9vQV95iixMWE6EGC49gAwAzjlADALOKNdvAExBqgKFBsJFkKjQ2w+a3RLABgOlGqAGAWUOgAT4CoQYYE3akf+vermRL8oyCDWu9AWCaEWoAYFa4geYdxzEeGoZjEWiAywg1wBN87vc+KaPtHQwd9vCEDQBMNUINAEw7d832O7ZlPjQ9tiVHuv+lb076voCpRKgBPsLn3npFRt9wg01Ytn6NYAMAU4ZQAwDTavQEjRtoHMfQBw9z+r//n96d9L0BU4tQAzyDO2/eHsyvsQ3JVHjsCRuORAHApBFqAGDaXA40tiGr79Ef/t6fTvregKlHqAGew517twd/YRuSIbZEAcA0INQAwLQYDQm2LfOB6bEt2zYlR/rql78x6XsDZgahBnhBrPUGgClBqAGASbu8xck29JW3GBIMvAhCDfCSHgs2zLABgJtGqAGASWHNNnANCDXAFRkFG9NgSxQA3CRCDQDcNAINcI0INcAVu/PGrmSLtd4AcFMINQBwU/Y1WLP9ruMYDw3DsQg0wNUj1ADX4HO//8syWj53rTfBBgCuE6EGAK7bpS1OcqT7X/rmpO8LmEuEGuAafe6tV2T0DYINAFwnQg0AXJfLa7YdQ//N/c/rRz/6X0363oC5RagBbsCdN29LjgbBxlRYNkOHAeDKEGoA4KpdDjS2Iavv0R/+3p9O+t6AuUeoAW7QnXu3B39xHmw+Kzl7ItgAwIsj1ADAVRkNCbYt84HpsS3bMiVJX/3yNyZ9b8DCINQAE/LYWm/3SNRvimADAM+HUAMAL+s80NjmQ9O0+45t6CtvMSQYmARCDTBhjwUbjkQBwPMi1ADAi2LNNjCFCDXAlBgFG9MIydFn5RBsAOCZEGoA4Hm5a7a/RqABpg+hBpgyd97YlWxJpjMINhLBBgA+CqEGAJ6VG2jedRzjoWE4FoEGmD6EGmAKfe4/+KSMhncYbESwAYCPQqgBgI8zCjTuFic50v0vfXPS9wXgCQg1wBT73FuvyOgb48Hm1yXdk/QbItgAwAChBgCe5vKabZ6gAaYeoQaYAXfevC05kmzJcIyII+ezMvSGCDYAQKgBgMsuPUHj2Iasnkd/+Pt/Oul7A/AxCDXADLm7tytJchxHhoyII+fXZWhPBBsAi4xQAwCuR3LXbA8DjW2ZkqSvfvkbk743AM+IUAPMqLuv78oxHBmOIo7kBpvflJSY9L0BwI0i1ADAaM22bZsPTdPuO7ahr7zFESdgFhFqgBl39/XbcgzJcBQeBps3RLABsEgINQAWF2u2gTlEqAHmxN3Xb8uRI0NmeHgkimADYDEQagAsHgINMMcINcAc+Z//x39P5Z98n2ADYLEQagAsjtGQYMcxHhqGwxYnYA4RaoA59Pk3f1W21Zfj2I8HG4YOA5g/hBoA8+/SFic50v0vfXPS9wXgGhBqgDn26hufkePY7pYogg2A+USoATC/Lq/Z5gkaYO4RaoAFcHfv05Icgg2A+USoATB/Lgca21C/59Uf/f6fTPreAFwzQg2wQO7u7UqSG2wijpzPEmwAzDxCDYD58Ujumu1hoLEtU3Kkr/6jb0z63gDcEEINsKDuvr47HDqsiCMRbADMLkINgNnnBpqv2bb5wDQHT9B85S2OOAGLiFADLLi7r9+WY0iGo7AjcSQKwOwh1ACYXaNAw5ptAC5CDQBJw2Bzea03wQbA9CPUAJg9oyNOjm28R6ABMI5QA2Dk9//r/70++H/9qycFm9+UlJj0/QHAExFqAMyO0ZDg4RM0bHECcAmhBsAln//S35Ld78lxbJ6wATD9CDUApp8baN6xLfM902NbcqT7X/rmpO8LwBQi1AB4qlff+Iwcx2atN4DpRqgBML0ur9nmCRoAH4NQA+Bj3d37tCSHYANgOhFqAEyfS2u2HdtQv+vVH/3jP5n0vQGYcoQaAM/s7t6uJMmRI9mKyGCtN4ApQKgBMD0uBRrbMiVH+uo/+sak7w3AjCDUAHghd16/PXgHIdgAmDRCDYDJOw80tvnQNAdP0HzlLY44AXh+hBoAL2Us2IRliCNRAG4eoQbA5LiB5mvDLU6s2Qbw0gg1AK4EwQbAxBBqANy80RM0jm28R6ABcJUINQCuTPZ/8m9pd+fkScHmNyUlJn1/AOYUoQbAzdmX9C90/gQNW5wAXDlCDYAr92//zqfl8dg8YQPgZhBqAFw/d832O7Zlvmd6bEuOdP9L35z0fQGYQ4QaANfmc6/tyjAcgg2A60WoAXB93EDzruHooWOIJ2gAXDtCDYBrd+e1XYlgA+C6EGoAXL3RDBo30BiOZNrSP/kyT9EAuF6EGgA35s5rtwd/YYq13gCuDqEGwNV5YqCRpLc55gTghhBqAEzE2JYogg2Al0OoAfDynhhoiDMAJoFQA2CiWOsN4KURagC8uPFA855jqE+gATBphBoAU+EJwWZPg7XeyUnfG4ApR6gB8PwuBRpJuv8mgQbA5BFqAEyR/1x3Xv/n48HGPRJFsAHwdIQaAM/ukQZbnL7mHnGSCDQApguhBsDU+bd/59PyeGyCDYBnQ6gB8PH2Jf0LnT9BQ6ABMLUINQCm1ue+uCvDdDgSBeCjEWoAPF1eg0DzDoEGwKwg1ACYende25UMgg2ApyDUALgsL+mPZehdU863bcewDEcybemffJlIA2C6EWoAzIw7r90e/IUptkQBOEeoAXDuPNAYzgPbNvumYcuxDTY5AZgZhBoAM2lsS1RkbIYNwQZYRIQaAINA8y8l4x3TtB/YttE3DEdv3/vzSd8XADw3Qg2AmTYKNs7wCRsRbICFQ6gBFpkbaN6VzG9LVt8wpLfv8fQMgNlFqAEwF54QbJhhAywKQg2wiAZHnGS8KxkPJLsvGbr/5r+e9H0BwEsj1ACYK48Fm89KrPUG5h6hBlgkjwUapy+JQANgrhBqAMyd3/qHn5bXZxNsgEVBqAEWgRto3pFjPpBhD9dsE2gAzB9CDYC59bkv7sowHYINMO8INcA8Gw0JlmN+W6ZlyeGIE4D5RqgBMPfuvLYrGQ4zbIB5RagB5tH5ESfHfCDT6ss2pb6p+7/7p5O+NwC4VoQaAAvjzmvD+TVsiQLmC6EGmCdPDjSOoftv/dmk7w0AbgShBsBCYq03MEcINcA82Je7ZtsxH8iw+nJM3f/SNyZ9XwBw4wg1ABYaa72BOUCoAWbZ2BYn84Fk9SVT99/8xqTvCwAmhlADAGKtNzDTCDXALHpCoGFIMABIhBoAuIBgA8wgQg0wS87XbMt4KDl9iTXbADCOUAMAj/mtf/hpeX02wQaYFYQaYBacBxrHfCDDtiQCDQA8CaEGAJ7ic1/clWE6BBtg2hFqgGl2MdCYliWHI04A8FEINQDwMe68tisZBBtgahFqgGl0OdDYptTz6P7v/cmk7w0AphqhBgCe0Z3XhvNr2BIFTBdCDTBNLq7ZNq2+bFNyDN1/688mfW8AMBMINQDwAljrDUwRQg0wDS4GGsPqyzF1/0vfmPR9AcDMIdQAwEtgSxQwBQg1wCSdBxp3zTaBBgBeCqEGAK4AwQaYIEINMAmXA41M3X/zG5O+LwCYeYQaALhCBBtgAgg1wE06HxIs46Hk9CXWbAPAVSLUAMAV+81/8Gn5/DbBBrgphBrgJlzc4mTYlkSgAYDrQKgBgGvyuS/uyjBZ6w1cO0INcJ0ur9l2DAINAFwjQg0AXLM7r+1KBsEGuDaEGuA6XA40tin1PLr/e38y6XsDgLlGqAGAG3LnteH8GoINcLUINcBVcocEvyPHfCjT6ss2JdvQ/S//2aTvDQAWAqEGACbgsaHDvy5pTwQb4MUQaoCrcL7FyTEfyGDNNgBMCqEGACaILVHAFSDUAC/j8pptAg0ATBShBgCmAMEGeAmEGuBFXA40MnX/zW9M+r4AYOERagBgihBsgBdAqAGex74GQ4LflYyHktOXWLMNANOEUAMAU+Y3/8Fn5PNbBBvgWRFqgGeRl/T18xk0tiURaABgGhFqAGBKfe6LuzJM1noDH4tQA3yUy2u2HYNAAwBTjFADAFPuzmu7kkGwAZ6KUAM8yeVAY5tS16P7v/8nk743AMBHINQAwIy489pwfg3BBriIUAOMc4cEvyPHfCjT6ss2JdvQ/S//2aTvDQDwDAg1ADCDGDoMjCHUANL4FifHfCCDNdsAMKsINQAwwwg2gAg1WHSX12wTaABgphFqAGAOEGyw0Ag1WEzumu2vjQKNTN1/8xuTvi8AwEsi1ADAHHks2PyaBsHmt0SwwTwj1GCxuIHmXcl4KDl9iTXbADBPCDUAMGd+4+9/Rv6ARbDB4iDUYDHkJX39fAaNbUkEGgCYR4QaAJhTf/uLuzLNS2u990Swwbwh1GC+XQw0pmXJMQg0ADDHCDUAMOc+99quDINggzlGqMF8Gl+zPQg0til1vLr/j/+7Sd8bAOAaEWoAYEHceW04v4ahw5g3hBrMl/MZNOOBxjZ0/8t/Nul7AwDcAEINACwgtkRhrhBqMB/GA81DGazZBoBFRagBgAVGsMFcINRgtl1es02gAYCFRqgBABBsMNsINZhNlwONTN1/8xuTvi8AwIQRagAAI48FG9Z6YzYQajBbzo84yXwo2X2JNdsAgHOEGgDABf/Tf/8zCgQtgg1mB6EGs+HikGDDtiQCDQDgMkINAOCJ/vbv7Mr0OAQbTD9CDaZbXtLXL2xxcgwCDQDgqQg1AICP9LnXdmUY58HGMPRZhxk2mCaEGkynJ6/Zbnt1/z/47yZ9bwCAKUaoAQA8kzuvDebXOIbkkcKOCDaYEoQaTJcnBxrb0P0v/9mk7w0AMAMINQCA5/bq3m3ZkkyCDaYBoQbTYV/SHzvSu7ZhPPQ46ssxWLMNAHhuhBoAwAtzg40hhUWwwaQQajBZwydo9DXbMB6YjtO3DUNfvccMGgDAiyHUAABe2t2923IkmYbCjqPPOtKeGDqMm0KowWRcCjSOYegrBBoAwEsi1AAArszdvduyHcljKuw4+jWHLVG4CYQa3Cw30LxrG8ZDAg0A4KoRagAAV+q1/8WnVKyaBBvcHEINbsZoBo0zeILGItAAAK4DoQYAcC1++61X1O0Zsgg2uG6EGlyvvKSvD4cEP/A4juXI0FfeJNAAAK4HoQYAcK3+zr3bshzJsiWPMdoSxQwbXB1CDa7H+BanBx7Jsh1HTcfR//lLfz7pewMAzDFCDQDgRnz+jcHAYcuRPCLY4AoRanC1LgYax7EsSbakP3rzm5O+NwDAAiDUAABu1Ktv3JacwQ89JsEGV4FQg6sxHmgeehynbw3/gz8g0AAAbhChBgAwMa/u3SbY4OURavByLq3Ztg1DX2VIMABgQgg1AICJu7s3OBY1DDYMHcbzIdTgxbBmGwAwlQg1AICpcXfvNmu98fwINXg+BBoAwFQj1AAApsre//JTOimbBBs8O0INno07g+YdZxBoLAINAGAaEWoAAFPpt996Rd2eMdgSdTHY/Kak1KTvD1OEUIOPNgo0wyHBBBoAwFQj1AAAptrfuXdbliNZtuQxLsywIdhggFCDJ7sYaCTLdhzVbVv/+VvfmvS9AQDwVIQaAMBM+Pwbg4HDliN5RLDBGEINLhpfs/3A4ziWLcmS9Ees2QYAzABCDQBgprz6xm3JEWu9cY5Qg4HxQPPQ4zh9a/gf/AGBBgAwQwg1AICZ9erebYINCDUYbXGyhoHGNgx9lRk0AIAZRagBAMy8u3uDY1GGFJbYErVwCDWLijXbAIC5RKgBAMyNu3u33bXeIcfRZwk2C4JQs2j2JX1d0tcINACAeUSoAQDMlTf/w0/psGgSbBYJoWZR7Ev6uiO96wwCDWu2AQBziVADAJhLv/3WK+r2jMGWKFNhx2FL1Nwi1My7i2u2CTQAgDlHqAEAzLW/c++2LEeybMljsNZ7LhFq5tXFQCNZtuOoatv6L9761qTvDQCAa0OoAQAshM+/MRg4bDmSRwSbuUKomTeXnqCxJVmS/og12wCABUCoAQAslFffuC05Gl/rTbCZdYSaeeEGmneHgaZvDf+DPyDQAAAWCKEGALCwXt27/aRgw9DhWUOomXWXAo1tGPoqM2gAAAuKUAMAWHh39wbHogwpJOmzjvSmBk/YJCZ9b3gGhJpZtS/pjzUMNKzZBgBggFADAMDQ3b3bsh3JNI2w4zi/rvMjUQSbaUaomTX7kr4u6WsEGgAALiPUAAAw5kv/m9s6OBHBZpYQambFvqSvO9K7ziDQsGYbAIAnINQAAPAE/+5bu+r2nCcFm98QM2ymC6Fm2o0CjbvFiUADAMDTEWoAAPgIX7i3K8txZNuSaRhhRwSbqUOomVYX12xLlu04KlmW/ssv/8Wk7w0AgKlFqAEA4Bm8+sauHEmO48gQwWaqEGqmzaUnaGxJlqQ/Ys02AAAfi1ADAMBzePWNXTmO5MiRISPiyPmsmGEzWYSaafFIgydovmYbxgOP41jW8D/4AwINAADPjFADAMALuru36wab8SdsCDY3jVAzaY8k/cuxJ2j6tmHoq8ygAQDghRBqAAB4SQSbCSPUTMqlNdsEGgAAXh6hBgCAK3Jn77Yc1nrfPELNTbsUaNjiBADA1SHUAABwhX7/f/eKPigY42u9Pyvpnhg6fH0INTdlNCTYGQQa1mwDAHANCDUAAFyDf/etXXV7DsHmJhBqrtulLU4EGgAArg+hBgCAa/SFe7uyHEe2LZkGa72vBaHmulwMNJJlO44O+3391//oLyd9bwAAzC1CDQAAN+DVN3YlSZbjyBTB5koRaq6au2b7QqDpS/rPWLMNAMC1I9QAAHCDXn1jV46jJ22JIti8KELNVbkYaBzHsob/wR8QaAAAuDGEGgAAJoS13leEUPOy3EDztWGgYc02AAATRKgBAGDCCDYviVDzoh5J+mONrdkm0AAAMHmEGgAApsSdvdtyLm+JIth8HELN83IDzbu2YbxnOk6fLU4AAEwPQg0AAFPkP/yPXtEPfmaw1vt5EGqe1WiLkzN4goY12wAATCFCDQAAU+i3v7yrTtd5PNi4R6KSk76/qUKo+TgX12wTaAAAmGqEGgAAptgX3tyVZTuybck0jLAjnrC5hFDzNPuSvi5D71o6X7P9005H/+r3/z+TvjcAAPAUhBoAAGbAq2/sSpIsx5HJWu+LCDWPG8ygMfSuTD2UZVi2HPUl/Wes2QYAYOoRagAAmCGvvrErx9GTtkQtbrAh1LgeCzSyZDqSId3f+/NJ3xsAAHhGhBoAAGbUU9Z6L16wIdS4geZrw0DTlyndf4OnZwAAmEWEGgAAZtxjwWbxZtgsbqgh0AAAMIcINQAAzIk7e7flLOKWqMULNWNHnIz3ZDl9GdL9ewQaAADmAaEGAIA58p/8s0/pr75tynYkj2mE7UUINosTakZbnGQaD2U7lkSgAQBg3hBqAACYQ7/95dvqdCV7EZ6wmf9QMxZohkOCeYIGAIC5RagBAGCOfeHNXVm2I9uWTGM0w2a+gs38hprHAo1hyXCk1QPd//yPJ31vAADgmhBqAABYAJ9/Y1eOJMtxZGrOgs38hZrH1mwbgzXbpq37r39r0vcGAACuGaEGAIAF8uobu3Iczdda7/kJNY8FGg0CjSHd3/vzSd8bAAC4IYQaAAAW1Gitt2GEHWeGg83shxrWbAMAgBFCDQAAC24UbM6PRN3TLAWb2Q01BBoAAHAJoQYAAEiS7uzdlqPh0OHzLVG/JSkx6Xv7SLMXasaOOBnvyXL6bHECAAAuQg0AABj5f379k/pn/w+vbEfyGEbYnoW13rMTah5ptMXJeE+2Y0kEGgAAcBGhBgAAXPJ3v3xb7Z5kO5eesJm+YDP9ocZds/2OTL0nWwQaAADwVIQaAADwVF+4tyvLcaY72ExvqHEDzfmabcOR/tZf6P6vWpO+NwAAMKUINQAA4GN9/o1dOZJsOZKjsKTpCTbTF2oeW7NtDNZsm7buv/6tSd8bAACYcoQaAADwzO6+fluOocE3iEGwmfxa7+kJNY8FGg0CjSHd3/vzCd4WAACYJYQaAADwQu7s3Xb/crLBZvKhZjzQvMeabQAA8DIINQAA4KU8Fmxu/kjU5EINgQYAAFw5Qg0AALgSg2BjSHJuNtjcfKhx12x/TabxniynL4MtTgAA4GoQagAAwJX5x/8z6efhGw42Nxdq3EDzrkzjPdkOa7YBAMCVI9QAAIAr9/nXPinL9Lr/5/UGm+sPNfuS/sXoiJMtAg0AALg2hBoAAHBt7r7+ihzDGN8SdfXB5vpCzb4GT9C8M5hBY1gyHAINAAC4VoQaAABw7Z6w1vvqgs3Vh5qxI07DQGM6kmnp/ut/Mdl/kQAAYO4RagAAwI25lmBzdaFmbEiwHsrSINAY0v29P5/0vzoAALAgCDUAAGAirmyt98uHmicEGtZsAwCAySDUAACAiXrpYPPioWY80LwnS30CDQAAmDRCDQAAmAovHGyeP9SMBRrjPVlOXwZbnAAAwHQg1AAAgKnx3/+PpP/DL93WcIjNswWbZw81Y0OCjfdkO6zZBgAAU4dQAwAAps7nX/ukLNPr/p8fHWw+PtRc3OJki0ADAACmFqEGAABMrbuvvyLHMD56S9TTQ82+pH9xYc224RBoAADAVCPUAACAqfeRwcZRMpL0FjOfisVN0/Dp8SdoLGOwZtu0dP/1v5j0PwoAAMBHItQAAICZcff123IMXQg2jqN70ZTvVzOfjBqm1/hvpfE1245kSPf3/nzStw4AAPBMCDUAAGAmuVuibMsJp9YDfzO9E677o57v2V3HYs02AACYVYQaAAAw0/72F19RYsWvrV+OyuM39fbev570LQEAALyw/z9Fejh3Aj8jGgAAACV0RVh0ZGF0ZTpjcmVhdGUAMjAyMC0wMy0xM1QxOToyMjo0MCswMDowMMPtE3IAAAAldEVYdGRhdGU6bW9kaWZ5ADIwMTktMDgtMDdUMTA6NDg6NDMrMDA6MDDatIYkAAAATXRFWHRzb2Z0d2FyZQBJbWFnZU1hZ2ljayA2LjguOS05IFExNiB4ODZfNjQgMjAxOS0xMS0xMiBodHRwOi8vd3d3LmltYWdlbWFnaWNrLm9yZ2RU/qAAAAAYdEVYdFRodW1iOjpEb2N1bWVudDo6UGFnZXMAMaf/uy8AAAAZdEVYdFRodW1iOjpJbWFnZTo6SGVpZ2h0ADI3MTmlQE6oAAAAGHRFWHRUaHVtYjo6SW1hZ2U6OldpZHRoADI0MDDSiKUNAAAAGXRFWHRUaHVtYjo6TWltZXR5cGUAaW1hZ2UvcG5nP7JWTgAAABd0RVh0VGh1bWI6Ok1UaW1lADE1NjUxNzQ5MjP9JfXTAAAAE3RFWHRUaHVtYjo6U2l6ZQA4NC4yS0JCNm0F9wAAACl0RVh0VGh1bWI6OlVSSQBmaWxlOi8vYXdzLWNsb3Vkd2F0Y2gtbG9nby5wbmdy7Q8FAAAAAElFTkSuQmCC" vertex="1" parent="1">
          <mxGeometry x="880" y="246" width="79.45" height="90" as="geometry" />
        </mxCell>
        <mxCell id="5GPRaHHNxdMrhig5xY4P-40" value="" style="edgeStyle=none;orthogonalLoop=1;jettySize=auto;html=1;rounded=0;fillColor=#ffe6cc;strokeColor=#d79b00;" edge="1" parent="1">
          <mxGeometry width="100" relative="1" as="geometry">
            <mxPoint x="800" y="310" as="sourcePoint" />
            <mxPoint x="900" y="310" as="targetPoint" />
            <Array as="points" />
          </mxGeometry>
        </mxCell>
        <mxCell id="5GPRaHHNxdMrhig5xY4P-44" value="" style="edgeStyle=none;orthogonalLoop=1;jettySize=auto;html=1;rounded=0;fillColor=#ffe6cc;strokeColor=#d79b00;" edge="1" parent="1" source="5GPRaHHNxdMrhig5xY4P-22">
          <mxGeometry width="100" relative="1" as="geometry">
            <mxPoint x="1050" y="400" as="sourcePoint" />
            <mxPoint x="1100" y="460" as="targetPoint" />
            <Array as="points" />
          </mxGeometry>
        </mxCell>
        <mxCell id="5GPRaHHNxdMrhig5xY4P-45" value="" style="edgeStyle=none;orthogonalLoop=1;jettySize=auto;html=1;rounded=0;entryX=0;entryY=0.5;entryDx=0;entryDy=0;" edge="1" parent="1" source="5GPRaHHNxdMrhig5xY4P-12" target="5GPRaHHNxdMrhig5xY4P-15">
          <mxGeometry width="100" relative="1" as="geometry">
            <mxPoint x="130" y="480" as="sourcePoint" />
            <mxPoint x="230" y="480" as="targetPoint" />
            <Array as="points" />
          </mxGeometry>
        </mxCell>
        <mxCell id="5GPRaHHNxdMrhig5xY4P-46" value="" style="edgeStyle=none;orthogonalLoop=1;jettySize=auto;html=1;rounded=0;" edge="1" parent="1" source="5GPRaHHNxdMrhig5xY4P-15" target="5GPRaHHNxdMrhig5xY4P-29">
          <mxGeometry width="100" relative="1" as="geometry">
            <mxPoint x="570" y="460" as="sourcePoint" />
            <mxPoint x="670" y="460" as="targetPoint" />
            <Array as="points" />
          </mxGeometry>
        </mxCell>
        <mxCell id="5GPRaHHNxdMrhig5xY4P-48" value="" style="edgeStyle=none;orthogonalLoop=1;jettySize=auto;html=1;rounded=0;entryX=1;entryY=0.5;entryDx=0;entryDy=0;exitX=0;exitY=0.5;exitDx=0;exitDy=0;" edge="1" parent="1" source="5GPRaHHNxdMrhig5xY4P-28" target="5GPRaHHNxdMrhig5xY4P-20">
          <mxGeometry width="100" relative="1" as="geometry">
            <mxPoint x="290" y="700" as="sourcePoint" />
            <mxPoint x="410" y="680" as="targetPoint" />
            <Array as="points" />
          </mxGeometry>
        </mxCell>
        <mxCell id="5GPRaHHNxdMrhig5xY4P-49" value="" style="edgeStyle=none;orthogonalLoop=1;jettySize=auto;html=1;rounded=0;" edge="1" parent="1">
          <mxGeometry width="100" relative="1" as="geometry">
            <mxPoint x="160" y="420" as="sourcePoint" />
            <mxPoint x="160" y="690" as="targetPoint" />
            <Array as="points" />
          </mxGeometry>
        </mxCell>
        <mxCell id="5GPRaHHNxdMrhig5xY4P-50" value="" style="edgeStyle=none;orthogonalLoop=1;jettySize=auto;html=1;rounded=0;entryX=-0.02;entryY=0.405;entryDx=0;entryDy=0;entryPerimeter=0;fillColor=#dae8fc;strokeColor=#6c8ebf;" edge="1" parent="1" target="5GPRaHHNxdMrhig5xY4P-25">
          <mxGeometry width="100" relative="1" as="geometry">
            <mxPoint x="540" y="640" as="sourcePoint" />
            <mxPoint x="640" y="640" as="targetPoint" />
            <Array as="points" />
          </mxGeometry>
        </mxCell>
        <mxCell id="5GPRaHHNxdMrhig5xY4P-51" value="" style="edgeStyle=none;orthogonalLoop=1;jettySize=auto;html=1;endArrow=classic;startArrow=classic;endSize=8;startSize=8;rounded=0;exitX=1;exitY=0;exitDx=0;exitDy=0;entryX=0.473;entryY=1.006;entryDx=0;entryDy=0;entryPerimeter=0;fillColor=#ffe6cc;strokeColor=#d79b00;" edge="1" parent="1" source="5GPRaHHNxdMrhig5xY4P-28" target="5GPRaHHNxdMrhig5xY4P-29">
          <mxGeometry width="100" relative="1" as="geometry">
            <mxPoint x="730" y="490" as="sourcePoint" />
            <mxPoint x="830" y="490" as="targetPoint" />
            <Array as="points" />
          </mxGeometry>
        </mxCell>
        <mxCell id="5GPRaHHNxdMrhig5xY4P-52" value="" style="edgeStyle=none;orthogonalLoop=1;jettySize=auto;html=1;rounded=0;entryX=0;entryY=0.25;entryDx=0;entryDy=0;exitX=1;exitY=0.25;exitDx=0;exitDy=0;fillColor=#f8cecc;strokeColor=#b85450;shadow=1;" edge="1" parent="1" source="5GPRaHHNxdMrhig5xY4P-28" target="5GPRaHHNxdMrhig5xY4P-23">
          <mxGeometry width="100" relative="1" as="geometry">
            <mxPoint x="660" y="600" as="sourcePoint" />
            <mxPoint x="760" y="600" as="targetPoint" />
            <Array as="points" />
          </mxGeometry>
        </mxCell>
      </root>
    </mxGraphModel>
  </diagram>
</mxfile>
